<?xml version="1.0" encoding="UTF-8" standalone="no"?>
<!-- Created with Inkscape (http://www.inkscape.org/) -->

<svg
   xmlns:osb="http://www.openswatchbook.org/uri/2009/osb"
   xmlns:dc="http://purl.org/dc/elements/1.1/"
   xmlns:cc="http://creativecommons.org/ns#"
   xmlns:rdf="http://www.w3.org/1999/02/22-rdf-syntax-ns#"
   xmlns:svg="http://www.w3.org/2000/svg"
   xmlns="http://www.w3.org/2000/svg"
   xmlns:xlink="http://www.w3.org/1999/xlink"
   xmlns:sodipodi="http://sodipodi.sourceforge.net/DTD/sodipodi-0.dtd"
   xmlns:inkscape="http://www.inkscape.org/namespaces/inkscape"
   width="744.09448819"
   height="1052.3622047"
   id="svg2"
   version="1.1"
   inkscape:version="0.48.4 r9939"
   sodipodi:docname="Nowy dokument 1">
  <defs
     id="defs4">
    <linearGradient
       inkscape:collect="always"
       id="linearGradient5302">
      <stop
         style="stop-color:#e5bec3;stop-opacity:1;"
         offset="0"
         id="stop5304" />
      <stop
         style="stop-color:#e5bec3;stop-opacity:0;"
         offset="1"
         id="stop5306" />
    </linearGradient>
    <linearGradient
       id="linearGradient5230"
       osb:paint="solid">
      <stop
         style="stop-color:#000000;stop-opacity:1;"
         offset="0"
         id="stop5232" />
    </linearGradient>
    <radialGradient
       inkscape:collect="always"
       xlink:href="#linearGradient5302"
       id="radialGradient5310"
       cx="136.11806"
       cy="696.28339"
       fx="136.11806"
       fy="696.28339"
       r="34.597725"
       gradientTransform="matrix(1,0,0,1.0510948,0,-35.576485)"
       gradientUnits="userSpaceOnUse" />
    <radialGradient
       inkscape:collect="always"
       xlink:href="#linearGradient5302-9"
       id="radialGradient5310-7"
       cx="136.11806"
       cy="696.28339"
       fx="136.11806"
       fy="696.28339"
       r="34.597725"
       gradientTransform="matrix(1,0,0,1.0510948,0,-35.576485)"
       gradientUnits="userSpaceOnUse" />
    <linearGradient
       inkscape:collect="always"
       id="linearGradient5302-9">
      <stop
         style="stop-color:#e5bec3;stop-opacity:1;"
         offset="0"
         id="stop5304-8" />
      <stop
         style="stop-color:#e5bec3;stop-opacity:0;"
         offset="1"
         id="stop5306-1" />
    </linearGradient>
    <radialGradient
       r="34.597725"
       fy="696.28339"
       fx="136.11806"
       cy="696.28339"
       cx="136.11806"
       gradientTransform="matrix(1,0,0,1.0510948,0,-35.576485)"
       gradientUnits="userSpaceOnUse"
       id="radialGradient5327"
       xlink:href="#linearGradient5302-9"
       inkscape:collect="always" />
  </defs>
  <sodipodi:namedview
     id="base"
     pagecolor="#ffffff"
     bordercolor="#666666"
     borderopacity="1.0"
     inkscape:pageopacity="0.0"
     inkscape:pageshadow="2"
     inkscape:zoom="0.7"
     inkscape:cx="291.39074"
     inkscape:cy="359.94611"
     inkscape:document-units="px"
     inkscape:current-layer="layer1"
     showgrid="false"
     inkscape:window-width="1366"
     inkscape:window-height="744"
     inkscape:window-x="0"
     inkscape:window-y="24"
     inkscape:window-maximized="1" />
  <metadata
     id="metadata7">
    <rdf:RDF>
      <cc:Work
         rdf:about="">
        <dc:format>image/svg+xml</dc:format>
        <dc:type
           rdf:resource="http://purl.org/dc/dcmitype/StillImage" />
        <dc:title></dc:title>
      </cc:Work>
    </rdf:RDF>
  </metadata>
  <g
     inkscape:label="Layer 1"
     inkscape:groupmode="layer"
     id="layer1">
    <path
       style="fill:#828282;stroke:#000000;stroke-width:2;stroke-linecap:butt;stroke-linejoin:miter;stroke-opacity:1;fill-opacity:1;stroke-miterlimit:4;stroke-dasharray:none"
       d="m 310.11683,491.72752 c 76.77159,-7.07107 103.03556,38.3858 103.03556,38.3858 0,0 27.27412,-7.07107 33.33504,1.01015 6.06091,8.08122 4.04061,45.45686 -4.04062,45.45686 -8.08122,0 19.1929,56.56855 -12.12183,78.7919 -31.31472,22.22336 -9.09137,15.15229 -9.09137,15.15229 0,0 9.09137,-3.03045 22.22335,7.57615 10.91723,8.81776 30.30458,-24.74874 18.18275,-31.81981 -12.12183,-7.07107 -1.01015,-45.45687 6.06092,-36.36549 7.07107,9.09137 26.26396,25.25381 20.20305,44.44671 -6.06092,19.1929 -16.16244,33.33503 -28.28427,36.36549 -12.12183,3.03046 8.08122,10.10152 4.04061,19.1929 -4.36114,9.81257 12.62691,-11.61675 23.73859,-4.54569 11.11168,7.07107 9.59644,20.70813 3.53553,22.72844 -6.06092,2.0203 -20.20305,15.15228 -27.27412,13.13198 -7.07107,-2.02031 -11.3564,19.00317 -21.21321,21.2132 -8.78794,1.97037 7.55793,8.42599 1.01016,20.20305 -5.05369,9.08975 -15.15229,4.04061 -23.23351,-1.01015 -8.08122,-5.05076 -0.801,-15.39706 -5.05076,-13.13198 -7.66845,4.0872 -38.3858,3.03046 -50.50763,-1.01016 -12.12183,-4.04061 -44.44671,-29.29442 -48.48732,-37.37564 -4.04061,-8.08122 -9.59645,-4.04061 -29.79951,-8.58629 -15.58235,-3.50602 -18.316,-6.49358 -15.15228,-20.20306 1.51522,-6.56599 12.62691,-10.6066 12.62691,-10.6066 0,0 -60.60916,-18.18274 -62.62946,-73.74113 -2.02031,-55.55839 12.8552,-77.88783 21.2132,-84.85282 9.09137,-7.57614 15.15229,-18.18274 14.14214,-29.29442 -1.01016,-11.11168 24.24366,-26.76905 27.27412,-27.7792 3.03046,-1.01015 26.26396,16.66752 26.26396,16.66752 z"
       id="path2996"
       inkscape:connector-curvature="0"
       sodipodi:nodetypes="ccssscssssssssssssssssscssssc" />
    <path
       style="fill:none;stroke:#000000;stroke-width:2;stroke-linecap:butt;stroke-linejoin:miter;stroke-opacity:1;stroke-miterlimit:4;stroke-dasharray:none"
       d="m 283.60032,690.22249 c 10.6066,24.4962 28.53681,35.60788 28.53681,35.60788"
       id="path2998"
       inkscape:connector-curvature="0"
       sodipodi:nodetypes="cc" />
    <path
       style="fill:none;stroke:#000000;stroke-width:2;stroke-linecap:butt;stroke-linejoin:miter;stroke-opacity:1;stroke-miterlimit:4;stroke-dasharray:none"
       d="m 416.43539,768.25677 c 14.87947,0.51183 23.38906,-4.59753 23.2335,-4.54568"
       id="path3000"
       inkscape:connector-curvature="0"
       sodipodi:nodetypes="cc" />
    <path
       style="fill:none;stroke:#000000;stroke-width:2;stroke-linecap:butt;stroke-linejoin:miter;stroke-opacity:1;stroke-miterlimit:4;stroke-dasharray:none"
       d="m 369.71583,692.2428 c -4.29315,-29.04188 5.05076,-38.89087 5.05076,-38.89087 0,0 6.06092,-2.52538 9.09138,1.51523 3.03046,4.04061 15.40482,24.24365 15.40482,24.24365"
       id="path3004"
       inkscape:connector-curvature="0"
       sodipodi:nodetypes="ccsc" />
    <path
       style="fill:none;stroke:#000000;stroke-width:1px;stroke-linecap:butt;stroke-linejoin:miter;stroke-opacity:1"
       d="m 412.89985,530.36585 c 25.00128,27.02158 28.03174,46.21448 28.03174,46.21448"
       id="path3006"
       inkscape:connector-curvature="0" />
    <path
       style="fill:none;stroke:#000000;stroke-width:1px;stroke-linecap:butt;stroke-linejoin:miter;stroke-opacity:1"
       d="m 309.61176,491.98006 c -47.22464,9.84898 -55.05332,23.99112 -55.05332,23.99112"
       id="path3008"
       inkscape:connector-curvature="0" />
    <path
       style="fill:#e5bec3;stroke:#000000;stroke-width:2;stroke-linecap:butt;stroke-linejoin:miter;stroke-opacity:1;fill-opacity:1;stroke-miterlimit:4;stroke-dasharray:none"
       d="m 311.12699,553.8519 c 9.09136,17.17259 20.70812,1.01015 20.70812,1.01015 0,0 -2.99929,19.16455 6.06092,15.65737 15.65736,-6.06092 -1.01016,19.1929 -13.13199,35.35534 -12.12183,16.16244 -38.38579,19.1929 -32.32488,-8.08122 6.06092,-27.27412 18.68783,-43.94164 18.68783,-43.94164 z"
       id="path3010"
       inkscape:connector-curvature="0"
       sodipodi:nodetypes="ccsssc" />
    <path
       style="fill:none;stroke:#000000;stroke-width:2;stroke-linecap:butt;stroke-linejoin:miter;stroke-opacity:1;stroke-miterlimit:4;stroke-dasharray:none"
       d="m 264.15489,528.09301 c 29.29443,-14.64721 30.30458,8.58629 30.30458,8.58629"
       id="path5280"
       inkscape:connector-curvature="0" />
    <path
       style="fill:none;stroke:#000000;stroke-width:2;stroke-linecap:butt;stroke-linejoin:miter;stroke-opacity:1;stroke-miterlimit:4;stroke-dasharray:none"
       d="m 384.39892,575.68865 c 31.36318,-9.43692 28.3964,13.62852 28.3964,13.62852"
       id="path5280-7"
       inkscape:connector-curvature="0" />
    <path
       sodipodi:type="arc"
       style="fill:url(#radialGradient5310);fill-opacity:1;stroke:none"
       id="path5300"
       sodipodi:cx="136.11806"
       sodipodi:cy="696.28339"
       sodipodi:rx="34.597725"
       sodipodi:ry="36.36549"
       d="m 170.71578,696.28339 a 34.597725,36.36549 0 1 1 -69.19545,0 34.597725,36.36549 0 1 1 69.19545,0 z"
       transform="matrix(0.65693431,0,0,0.61111109,164.12767,131.37583)" />
    <path
       sodipodi:type="arc"
       style="fill:url(#radialGradient5327);fill-opacity:1;stroke:none"
       id="path5300-0"
       sodipodi:cx="136.11806"
       sodipodi:cy="696.28339"
       sodipodi:rx="34.597725"
       sodipodi:ry="36.36549"
       d="m 170.71578,696.28339 a 34.597725,36.36549 0 1 1 -69.19545,0 34.597725,36.36549 0 1 1 69.19545,0 z"
       transform="matrix(0.65693431,0,0,0.61111109,309.08455,198.04593)" />
  </g>
</svg>
