<?xml version="1.0" encoding="UTF-8" standalone="no"?>
<!-- Created with Inkscape (http://www.inkscape.org/) -->

<svg
   xmlns:osb="http://www.openswatchbook.org/uri/2009/osb"
   xmlns:dc="http://purl.org/dc/elements/1.1/"
   xmlns:cc="http://creativecommons.org/ns#"
   xmlns:rdf="http://www.w3.org/1999/02/22-rdf-syntax-ns#"
   xmlns:svg="http://www.w3.org/2000/svg"
   xmlns="http://www.w3.org/2000/svg"
   xmlns:xlink="http://www.w3.org/1999/xlink"
   xmlns:sodipodi="http://sodipodi.sourceforge.net/DTD/sodipodi-0.dtd"
   xmlns:inkscape="http://www.inkscape.org/namespaces/inkscape"
   width="744.09448819"
   height="1052.3622047"
   id="svg2"
   version="1.1"
   inkscape:version="0.48.4 r9939"
   sodipodi:docname="Nowy dokument 1">
  <defs
     id="defs4">
    <linearGradient
       id="linearGradient3838">
      <stop
         style="stop-color:#ffb6c1;stop-opacity:1;"
         offset="0"
         id="stop3840" />
      <stop
         style="stop-color:#ffb6c1;stop-opacity:0.39215687;"
         offset="1"
         id="stop3842" />
    </linearGradient>
    <linearGradient
       id="linearGradient3822">
      <stop
         style="stop-color:#715d35;stop-opacity:1;"
         offset="0"
         id="stop3824" />
      <stop
         style="stop-color:#715d3f;stop-opacity:0;"
         offset="1"
         id="stop3826" />
    </linearGradient>
    <linearGradient
       id="linearGradient3816"
       osb:paint="solid">
      <stop
         style="stop-color:#000000;stop-opacity:1;"
         offset="0"
         id="stop3818" />
    </linearGradient>
    <linearGradient
       id="linearGradient3810"
       osb:paint="solid">
      <stop
         style="stop-color:#000000;stop-opacity:1;"
         offset="0"
         id="stop3812" />
    </linearGradient>
    <linearGradient
       id="linearGradient3774"
       osb:paint="solid">
      <stop
         style="stop-color:#000000;stop-opacity:1;"
         offset="0"
         id="stop3776" />
    </linearGradient>
    <linearGradient
       inkscape:collect="always"
       xlink:href="#linearGradient3774"
       id="linearGradient3778"
       x1="237.59626"
       y1="558.23596"
       x2="570.53149"
       y2="558.23596"
       gradientUnits="userSpaceOnUse" />
    <linearGradient
       inkscape:collect="always"
       xlink:href="#linearGradient3810"
       id="linearGradient3814"
       x1="337.39602"
       y1="580.50039"
       x2="380.98705"
       y2="580.50039"
       gradientUnits="userSpaceOnUse" />
    <linearGradient
       inkscape:collect="always"
       xlink:href="#linearGradient3816"
       id="linearGradient3820"
       x1="454.14286"
       y1="714.86565"
       x2="492.91561"
       y2="714.86565"
       gradientUnits="userSpaceOnUse" />
    <radialGradient
       inkscape:collect="always"
       xlink:href="#linearGradient3838"
       id="radialGradient3846"
       cx="169.35318"
       cy="601.95477"
       fx="169.35318"
       fy="601.95477"
       r="37.360161"
       gradientUnits="userSpaceOnUse" />
    <radialGradient
       inkscape:collect="always"
       xlink:href="#linearGradient3838-7"
       id="radialGradient3846-6"
       cx="169.35318"
       cy="601.95477"
       fx="169.35318"
       fy="601.95477"
       r="37.360161"
       gradientUnits="userSpaceOnUse" />
    <linearGradient
       id="linearGradient3838-7">
      <stop
         style="stop-color:#ffb6c1;stop-opacity:1;"
         offset="0"
         id="stop3840-5" />
      <stop
         style="stop-color:#ffb6c1;stop-opacity:0.39215687;"
         offset="1"
         id="stop3842-3" />
    </linearGradient>
    <radialGradient
       r="37.360161"
       fy="601.95477"
       fx="169.35318"
       cy="601.95477"
       cx="169.35318"
       gradientUnits="userSpaceOnUse"
       id="radialGradient3863"
       xlink:href="#linearGradient3838-7"
       inkscape:collect="always" />
  </defs>
  <sodipodi:namedview
     id="base"
     pagecolor="#ffffff"
     bordercolor="#666666"
     borderopacity="1.0"
     inkscape:pageopacity="0.0"
     inkscape:pageshadow="2"
     inkscape:zoom="0.53966242"
     inkscape:cx="408.25526"
     inkscape:cy="427.29891"
     inkscape:document-units="px"
     inkscape:current-layer="layer1"
     showgrid="false"
     inkscape:window-width="1366"
     inkscape:window-height="744"
     inkscape:window-x="0"
     inkscape:window-y="24"
     inkscape:window-maximized="1" />
  <metadata
     id="metadata7">
    <rdf:RDF>
      <cc:Work
         rdf:about="">
        <dc:format>image/svg+xml</dc:format>
        <dc:type
           rdf:resource="http://purl.org/dc/dcmitype/StillImage" />
        <dc:title></dc:title>
      </cc:Work>
    </rdf:RDF>
  </metadata>
  <g
     inkscape:label="Layer 1"
     inkscape:groupmode="layer"
     id="layer1">
    <path
       style="fill:#e3ba6a;fill-opacity:1;stroke:url(#linearGradient3778);stroke-width:2;stroke-linecap:butt;stroke-linejoin:miter;stroke-miterlimit:4;stroke-opacity:1;stroke-dasharray:none"
       d="m 319.2082,393.74272 c 133.34014,-18.18274 197.9899,64.64977 197.9899,64.64977 0,0 16.12805,-5.3831 32.32488,12.12182 14.6189,15.79956 12.12183,41.41626 -2.02031,33.33504 -9.4462,-5.39783 -22.22335,-9.09137 -22.22335,-9.09137 0,0 19.22744,53.74743 -12.12183,92.93403 -12.12183,15.15229 -12.10242,30.64039 -24.24366,40.4061 -26.30769,21.16039 3.22003,-4.18131 16.16244,16.16244 5.42218,8.52295 32.94712,-5.61022 40.4061,-22.22335 7.12061,-15.85949 22.87056,-8.29841 24.24367,-10e-6 1.16989,7.07019 -0.7143,21.2027 -11.05041,28.81474 -10.28855,7.57701 -29.71284,17.29515 -43.85497,15.27484 -14.14214,-2.0203 -13.785,16.51958 -13.785,16.51958 0,0 4.16026,4.37428 20.14178,6.285 19.45142,2.32557 24.30493,26.03988 10.1628,34.1211 -14.14214,8.08122 -45.39673,-17.64811 -52.52793,-16.16244 -48.48732,10.10153 -69.27991,5.60202 -101.01526,-6.06092 -13.49963,-4.96119 -6.06091,26.26397 -24.24366,26.26397 -18.18275,0 -18.18275,-14.14213 -22.22336,-26.26396 -4.04061,-12.12183 -12.17812,9.6246 -21.2132,14.14213 -6.06092,3.03046 -16.16244,7.07107 -17.17259,-21.2132 -0.58135,-16.27784 7.47391,-32.64012 18.18274,-52.52794 7.07107,-13.13198 27.55943,-15.80401 3.03046,-22.22335 -13.44113,-3.51761 -40.4061,3.03046 -66.67006,-41.41625 -26.26397,-44.44672 11.11167,-113.13709 9.09137,-111.11678 -2.02031,2.0203 34.34518,-46.46702 34.34518,-46.46702 0,0 -22.22335,-6.06092 -16.16244,-22.22336 6.06092,-16.16244 44.44671,-4.04061 44.44671,-4.04061 z"
       id="path2996"
       inkscape:connector-curvature="0"
       sodipodi:nodetypes="ccsscssssssscsssssssssssscsc" />
    <path
       style="fill:none;stroke:#000000;stroke-width:2;stroke-linecap:butt;stroke-linejoin:miter;stroke-opacity:1;stroke-miterlimit:4;stroke-dasharray:none"
       d="m 330.56499,698.69676 c -4.1124,-19.82488 8.73423,-27.22335 8.73423,-27.22335 0,0 -5.76505,-1.83649 -5.76505,-10.92786"
       id="path2998"
       inkscape:connector-curvature="0"
       sodipodi:nodetypes="ccc" />
    <path
       style="fill:#e3ba6a;stroke:url(#linearGradient3820);stroke-width:2;stroke-linecap:butt;stroke-linejoin:miter;stroke-opacity:1;stroke-miterlimit:4;stroke-dasharray:none;fill-opacity:1"
       d="m 454.64286,710.93361 c 6.07143,12.5 16.07143,18.92857 16.07143,18.92857 0,0 15.35714,3.21429 19.64286,-3.92857 4.28571,-7.14285 0.97793,-9.79479 -1.78572,-14.28572 C 485.71429,707.00503 475,699.1479 475,699.1479 z"
       id="path3000"
       inkscape:connector-curvature="0"
       sodipodi:nodetypes="ccsscc" />
    <path
       style="fill:none;stroke:#000000;stroke-width:2;stroke-linecap:butt;stroke-linejoin:miter;stroke-miterlimit:4;stroke-opacity:1;stroke-dasharray:none"
       d="m 504.11231,643.04798 c 5.71429,6.07143 6.49587,15.23163 6.49587,15.23163 0,0 -1.62139,8.81213 -3.76425,9.52642"
       id="path3002"
       inkscape:connector-curvature="0"
       sodipodi:nodetypes="ccc" />
    <path
       style="fill:none;stroke:#000000;stroke-width:2;stroke-linecap:butt;stroke-linejoin:miter;stroke-miterlimit:4;stroke-opacity:1;stroke-dasharray:none"
       d="m 479.05409,636.45509 c -27.14287,15.71428 -52.62552,7.69281 -52.62552,7.69281"
       id="path3004"
       inkscape:connector-curvature="0"
       sodipodi:nodetypes="cc" />
    <path
       style="fill:#715d35;stroke:#000000;stroke-width:1px;stroke-linecap:butt;stroke-linejoin:miter;stroke-opacity:1;fill-opacity:1"
       d="m 380.71429,392.71933 c -20,15 -30,31.78571 -30,31.78571 0,0 -7.14286,17.85714 3.57142,15 10.71429,-2.85714 19.19911,-16.64288 26.78572,-26.42857 7.87012,-10.15139 13.21428,-14.64286 18.21428,-16.78572 5,-2.14285 -18.57142,-3.57142 -18.57142,-3.57142 z"
       id="path3780"
       inkscape:connector-curvature="0"
       sodipodi:nodetypes="ccsssc" />
    <path
       style="fill:#715d35;stroke:#000000;stroke-width:1px;stroke-linecap:butt;stroke-linejoin:miter;stroke-opacity:1;fill-opacity:1"
       d="m 411.78571,398.07647 c -30,23.21428 -36.07142,52.14285 -36.07142,52.14285 0,0 -1.78572,12.14286 1.78571,14.28572 3.57143,2.14286 13.17907,5.3436 25.35714,-12.14286 13.92857,-20 11.35325,-15.43584 22.50001,-28.92857 4.68378,-5.66955 18.77356,-14.10138 15.35714,-16.78571 -5.00001,-3.92858 -28.92858,-8.57143 -28.92858,-8.57143 z"
       id="path3782"
       inkscape:connector-curvature="0"
       sodipodi:nodetypes="ccssssc" />
    <path
       style="fill:#715d35;stroke:#000000;stroke-width:1px;stroke-linecap:butt;stroke-linejoin:miter;stroke-opacity:1;fill-opacity:1"
       d="m 452.85714,412.36218 c -14.64285,8.92857 -21.2003,17.89772 -27.49999,27.85714 -6.2997,9.95943 -9.98349,20.43284 -3.57143,27.14286 6.8245,7.14163 16.1708,-6.68027 24.64285,-24.28571 7.83104,-16.27338 20.35715,-20.71429 21.07143,-23.57143 0.71429,-2.85714 -14.64286,-7.14286 -14.64286,-7.14286 z"
       id="path3784"
       inkscape:connector-curvature="0"
       sodipodi:nodetypes="czsssc" />
    <path
       sodipodi:type="arc"
       style="fill:#000000;fill-opacity:1;stroke:#000000;stroke-width:2;stroke-miterlimit:4;stroke-opacity:1;stroke-dasharray:none;stroke-dashoffset:0"
       id="path3788"
       sodipodi:cx="301.42856"
       sodipodi:cy="529.32648"
       sodipodi:rx="6.7857141"
       sodipodi:ry="7.3214288"
       d="m 308.21427,529.32648 a 6.7857141,7.3214288 0 1 1 -13.57143,0 6.7857141,7.3214288 0 1 1 13.57143,0 z" />
    <path
       transform="translate(142.73461,48.862029)"
       sodipodi:type="arc"
       style="fill:#000000;fill-opacity:1;stroke:#000000;stroke-width:2;stroke-miterlimit:4;stroke-opacity:1;stroke-dasharray:none;stroke-dashoffset:0"
       id="path3788-3"
       sodipodi:cx="301.42856"
       sodipodi:cy="529.32648"
       sodipodi:rx="6.7857141"
       sodipodi:ry="7.3214288"
       d="m 308.21427,529.32648 a 6.7857141,7.3214288 0 1 1 -13.57143,0 6.7857141,7.3214288 0 1 1 13.57143,0 z" />
    <path
       style="fill:none;stroke:url(#linearGradient3814);stroke-width:2;stroke-linecap:butt;stroke-linejoin:miter;stroke-opacity:1;stroke-miterlimit:4;stroke-dasharray:none"
       d="m 337.89602,574.56003 c 14.92278,-8.5863 19.31567,5.55584 20.20305,5.55584 0,0 11.00738,-5.58917 17.67767,0.50508 6.04404,5.52207 4.54569,8.58629 4.54569,8.58629"
       id="path3808"
       inkscape:connector-curvature="0"
       sodipodi:nodetypes="ccsc" />
    <path
       style="fill:none;stroke:#000000;stroke-width:2;stroke-linecap:butt;stroke-linejoin:miter;stroke-miterlimit:4;stroke-opacity:1;stroke-dasharray:none"
       d="m 290.92261,420.02244 c 12.27619,2.31626 24.08913,-1.62139 24.08913,-1.62139"
       id="path3832"
       inkscape:connector-curvature="0"
       sodipodi:nodetypes="cc" />
    <path
       style="fill:#715d35;stroke:#000000;stroke-width:1px;stroke-linecap:butt;stroke-linejoin:miter;stroke-opacity:1;fill-opacity:1"
       d="m 542.932,627.09633 c 0.92651,17.14035 18.99336,20.84637 18.99336,20.84637 l -11.58132,8.33854 c 0,0 -12.50782,5.55903 -17.60359,-10.65481 -5.09578,-16.21384 -2.31627,-7.41204 -2.31627,-7.41204 z"
       id="path3834"
       inkscape:connector-curvature="0" />
    <path
       sodipodi:type="arc"
       style="fill:url(#radialGradient3846);fill-opacity:1;stroke:none"
       id="path3836"
       sodipodi:cx="169.35318"
       sodipodi:cy="601.95477"
       sodipodi:rx="36.360161"
       sodipodi:ry="36.360161"
       d="m 205.71334,601.95477 a 36.360161,36.360161 0 1 1 -72.72032,0 36.360161,36.360161 0 1 1 72.72032,0 z"
       transform="matrix(0.55320488,0,0,0.52617785,175.57473,234.11873)" />
    <path
       sodipodi:type="arc"
       style="fill:url(#radialGradient3863);fill-opacity:1;stroke:none"
       id="path3836-5"
       sodipodi:cx="169.35318"
       sodipodi:cy="601.95477"
       sodipodi:rx="36.360161"
       sodipodi:ry="36.360161"
       d="m 205.71334,601.95477 a 36.360161,36.360161 0 1 1 -72.72032,0 36.360161,36.360161 0 1 1 72.72032,0 z"
       transform="matrix(0.55320488,0,0,0.52617785,357.04798,297.33955)"
       inkscape:transform-center-x="194.576" />
  </g>
</svg>
