<svg width="97" height="150" viewBox="0 0 97 150" fill="none" xmlns="http://www.w3.org/2000/svg">
<path d="M83.079 144.027L71.5481 147.657L71.0092 146.331L69.3477 142.265L64.0172 129.177L74.8824 122.712C74.8824 122.712 75.0367 123.58 75.3244 124.921C76.0636 128.416 77.6591 135.123 79.5641 138.305L79.665 138.475C84.3103 138.725 83.079 144.027 83.079 144.027" fill="#D6D534"/>
<path d="M83.0793 144.027L71.5484 147.657L71.1733 146.741L71.0096 146.331L71.0833 145.352C71.3341 144.155 72.0605 143.113 72.9081 142.216C74.2793 140.767 76.9044 139.068 79.5645 138.305L79.6653 138.475C80.1159 138.501 80.5016 138.573 80.8592 138.688C84.0753 139.703 83.0793 144.027 83.0793 144.027" fill="#BDBC2E"/>
<path d="M74.8824 122.712C74.8824 122.712 75.0366 123.58 75.3243 124.921L74.3149 125.428C71.9776 126.954 70.2325 129.365 69.3533 132.017C68.2604 135.307 68.4132 138.907 69.3477 142.265L64.0172 129.177L74.8824 122.712" fill="#BDBC2E"/>
<path d="M27.2334 150L39.3185 149.703L39.3994 148.275L39.6556 143.889L40.4691 129.781L28.0963 127.179C28.0963 127.179 28.2311 128.05 28.3839 129.413C28.8289 132.959 29.485 139.821 28.712 143.448L28.6716 143.641C24.3571 145.381 27.2334 150 27.2334 150" fill="#D6D534"/>
<path d="M27.233 150L39.3181 149.703L39.381 148.715L39.399 148.275L39.0125 147.372C38.3923 146.321 37.3676 145.569 36.2755 144.995C34.5048 144.068 31.4756 143.31 28.7116 143.448L28.6712 143.641C28.2532 143.812 27.8982 144.005 27.6105 144.23C24.8915 146.231 27.233 150 27.233 150" fill="#BDBC2E"/>
<path d="M28.0964 127.179C28.0964 127.179 28.2313 128.05 28.3841 129.413L29.5076 129.565C32.2177 130.254 34.6491 131.97 36.3344 134.195C38.4288 136.954 39.4535 140.41 39.6557 143.889L40.4692 129.781L28.0964 127.179" fill="#BDBC2E"/>
<path d="M90.0633 87.6737C90.0633 90.1281 89.8835 92.542 89.524 94.8875C88.4004 102.55 85.4971 109.571 81.2904 115.454C73.6502 126.123 61.7134 132.981 48.2845 132.981C31.9703 132.981 17.8178 122.81 10.9505 108.007C8.11461 101.903 6.51465 94.9963 6.51465 87.6737C6.51465 75.9621 10.6045 65.3062 17.3144 57.2659C23.4086 49.9672 31.6647 44.8348 40.9858 43.046C43.3498 42.5921 45.7902 42.3539 48.2845 42.3539C52.6754 42.3539 56.9045 43.0955 60.8685 44.4573C68.9402 47.2167 75.9422 52.5604 81.0792 59.5984C86.36 66.8522 89.6498 75.8763 90.0273 85.7408C90.0498 86.3709 90.0633 87.0225 90.0633 87.6737" fill="#D6D534"/>
<path d="M81.0793 59.5985C77.9198 62.5512 74.3783 64.9647 70.6615 66.9242C60.7291 72.1685 49.2868 74.1874 38.5769 71.4818C35.2601 70.6445 32.0422 69.3277 29.0221 67.5893C24.4694 64.9827 20.6222 61.4861 17.3145 57.2615C23.4087 49.9673 31.6647 44.8348 40.9858 43.055C46.5947 43.3427 52.1945 43.7742 57.8034 44.2146C58.8146 44.2955 59.8483 44.3719 60.8685 44.4573C68.9402 47.2168 75.9468 52.5605 81.0793 59.5985Z" fill="#BDBC2E"/>
<path d="M48.2843 132.981C47.0933 132.981 45.9113 132.927 44.7473 132.818C43.2507 132.685 41.7811 132.46 40.3339 132.158C35.988 131.245 31.8802 129.606 28.123 127.359C22.6759 124.091 17.9659 119.543 14.3525 114.092C13.0807 112.172 11.9436 110.136 10.9548 108.007C11.5121 103.988 12.5054 100.033 13.7952 96.2129C16.0109 96.1688 18.2131 95.7284 20.2715 94.861C21.8085 94.2098 23.4804 93.3406 25.0624 93.3406C25.6062 93.3406 26.141 93.4444 26.6579 93.697C27.1612 93.9307 27.5972 94.2902 28.1185 94.4925C28.4196 94.6134 28.7342 94.6677 29.0443 94.6677C30.3117 94.6677 31.5881 93.7585 32.2308 92.5824C32.9678 91.2516 33.0937 89.6786 33.1566 88.1371C33.3229 88.1546 33.4846 88.1721 33.6464 88.1915C33.0757 86.8553 31.8038 86.0918 30.5544 85.6477C29.9162 85.423 29.2735 85.2563 28.6219 85.1264C26.9635 84.8154 25.2466 84.7664 23.5478 84.6806C22.2085 84.6082 20.8557 84.5102 19.5434 84.2397C20.5411 82.9053 21.6692 81.7062 22.9546 80.704C27.1702 77.4174 32.5184 76.7118 37.6149 76.1203C42.0508 75.6021 46.5271 75.0898 50.9809 75.0898C53.5786 75.0898 56.1718 75.2651 58.7425 75.7145C64.8008 76.7661 70.8276 79.4996 75.1421 84.2994C74.3691 84.3889 73.5916 84.4383 72.8186 84.4783C71.3085 84.5646 69.7849 84.6172 68.2883 84.8558C67.4524 84.9772 66.63 85.1668 65.8165 85.4545C64.5671 85.9075 63.2952 86.6711 62.7244 87.9933C62.8593 87.9789 62.9941 87.9668 63.1289 87.9529C63.1918 89.48 63.3221 91.0494 64.0502 92.3698C64.7064 93.5478 66.0053 94.4606 67.2861 94.4606C67.5962 94.4606 67.9063 94.4062 68.2029 94.2902C68.7288 94.0781 69.1692 93.7181 69.6861 93.4844C70.2029 93.2336 70.7422 93.1298 71.295 93.1298C72.886 93.1298 74.5668 93.9936 76.1173 94.6484C77.6993 95.3104 79.3623 95.723 81.0476 95.8987C81.9599 99.5661 82.2925 103.453 82.1801 107.255C82.0902 110.029 81.7262 112.752 81.2903 115.445C74.7151 124.636 64.9491 130.999 53.7943 132.59C51.9921 132.846 50.1539 132.981 48.2843 132.981" fill="#E5E47D"/>
<path d="M48.9362 114.155C48.9362 115.189 48.1857 116.028 47.2554 116.028C46.3341 116.028 45.5925 115.189 45.5925 114.155C45.5925 113.115 46.3341 112.276 47.2554 112.276C48.1857 112.276 48.9362 113.115 48.9362 114.155Z" fill="#BDBC2E"/>
<path d="M95.6497 82.923C94.2609 87.4577 90.8812 91.1044 86.8633 92.7578C82.8455 94.4063 78.2883 94.1097 74.3558 92.2311C73.403 91.7871 72.4682 91.2374 71.4345 91.1534C70.4098 91.0532 69.2458 91.5714 68.8952 92.6581L68.5447 93.5884C68.0908 94.0976 67.2414 93.5938 67.102 92.8913C66.9672 92.1911 67.2863 91.494 67.5919 90.8689C66.8279 91.4307 65.974 91.8185 65.0886 92.0383C65.0122 91.2886 65.2144 90.5282 65.5965 89.926L65.1965 90.1422C64.6931 90.3264 64.0504 90.1507 63.8347 89.6118C63.6235 89.0851 63.9021 88.4514 64.329 88.1319C64.756 87.8141 65.2863 87.7422 65.7942 87.6824C64.774 87.7827 63.7493 87.895 62.7246 87.9934C63.2954 86.6712 64.5673 85.9077 65.8167 85.4546C66.6301 85.167 67.4526 84.9773 68.2885 84.856C69.7851 84.6173 71.3087 84.5648 72.8187 84.4785C75.1782 84.3522 77.5827 84.1414 79.7399 83.0637C81.8927 81.9842 83.7758 79.8772 84.1263 77.2616C84.4724 74.6176 83.25 72.0437 81.8298 69.9125C80.4006 67.7872 78.7107 65.8007 77.8658 63.3109C77.3535 61.8053 77.2456 60.0346 77.7085 58.502C78.2388 56.7582 78.8725 56.4121 80.3242 56.9919C83.3084 58.1694 86.1533 59.6615 88.6836 61.8233C89.2678 62.3132 89.8296 62.839 90.3599 63.3963C91.1329 64.1918 91.861 65.0592 92.5126 65.976C95.8519 70.6761 97.3935 77.2247 95.6497 82.923" fill="#BDBC2E"/>
<path d="M95.6497 82.923C94.2609 87.4577 90.8812 91.1044 86.8633 92.7578C82.8455 94.4063 78.2883 94.1097 74.3558 92.2311C73.403 91.7871 72.4682 91.2374 71.4345 91.1534C70.4098 91.0532 69.2458 91.5714 68.8952 92.6581L68.5447 93.5884C68.0908 94.0976 67.2414 93.5938 67.102 92.8913C66.9672 92.1911 67.2863 91.494 67.5919 90.8689C66.8279 91.4307 65.974 91.8185 65.0886 92.0383C65.0122 91.2886 65.2144 90.5282 65.5965 89.926L65.1965 90.1422C64.6931 90.3264 64.0504 90.1507 63.8347 89.6118C63.6235 89.0851 63.9021 88.4514 64.329 88.1319C64.756 87.8141 65.2863 87.7422 65.7942 87.6824C64.774 87.7827 63.7493 87.895 62.7246 87.9934C63.2954 86.6712 64.5673 85.9077 65.8167 85.4546C66.6301 85.167 67.4526 84.9773 68.2885 84.856L68.2301 84.9773C67.0661 87.6105 69.3447 88.9728 71.5963 89.7278C74.7693 90.788 78.1399 91.2374 81.3893 90.6001C84.6476 89.97 87.7937 88.1952 89.9015 85.3459C92.0183 82.4929 93.0026 78.7222 93.0115 75.018C93.0115 71.3013 92.0812 67.6568 90.7105 64.2816L90.3599 63.3963C91.1329 64.1918 91.861 65.0592 92.5126 65.976C95.8519 70.6761 97.3935 77.2247 95.6497 82.923" fill="#B0AF2B"/>
<path d="M86.4228 76.7752C86.3643 77.5298 86.2879 78.376 86.7328 78.9414C87.1418 79.4682 87.8879 79.5261 88.4542 79.247C89.016 78.9554 89.4384 78.4026 89.7935 77.8318C91.299 75.3775 91.8698 72.2315 91.353 69.3192C90.8226 66.3939 89.2047 63.7467 86.962 62.1513C84.1666 60.1558 80.2611 61.5895 82.9127 65.2209C85.3216 68.5286 86.7329 72.4162 86.4228 76.7752Z" fill="#D6D534"/>
<path d="M70.3471 89.2293C68.7786 88.4918 67.5471 87.3597 68.019 85.5705C68.1449 85.5476 68.2617 85.5301 68.3921 85.5301C68.5629 85.5301 68.7561 85.562 69.0213 85.6514V85.6478C69.5606 86.3305 70.1044 87.0487 70.3246 87.9264C70.428 88.3444 70.4415 88.8113 70.3471 89.2293Z" fill="#D0CF6B"/>
<path d="M32.5456 89.7959C32.3209 90.3438 31.6647 90.5141 31.1703 90.3352L30.7524 90.1137C31.1569 90.7123 31.3546 91.4813 31.2827 92.2278C30.3883 92.0152 29.5389 91.6148 28.7839 91.0674C29.085 91.6867 29.3996 92.3891 29.2647 93.0898C29.1254 93.7815 28.276 94.2902 27.8311 93.7815L27.485 92.8561C27.1255 91.7676 25.9614 91.2462 24.9367 91.3375C23.9031 91.4305 22.9638 91.9802 22.0245 92.4296C18.0785 94.3028 13.5258 94.5958 9.50342 92.9545C5.49003 91.297 2.10582 87.6612 0.721586 83.1161C-1.0132 77.4173 0.514845 70.8692 3.86308 66.1736C4.97317 64.6096 6.26753 63.2163 7.69221 62.0164L8.46077 61.3737C10.7933 59.5535 13.3685 58.2322 16.0426 57.176C17.4943 56.6097 18.1369 56.9423 18.6673 58.6951C19.1257 60.2321 19.0178 62.0074 18.51 63.5085C17.6605 65.9848 15.9617 67.9758 14.5505 70.1056C13.1258 72.2368 11.8944 74.8125 12.2449 77.4457C12.591 80.0703 14.4741 82.1876 16.6313 83.2653C18.7796 84.3399 21.1885 84.5556 23.548 84.6806C25.2469 84.7664 26.9637 84.8154 28.6221 85.1264C29.2738 85.2563 29.9164 85.423 30.5546 85.6477C31.804 86.0917 33.0759 86.8553 33.6467 88.1915C32.6804 88.0881 31.7276 87.9789 30.7659 87.8949C31.2198 87.9528 31.6647 88.0512 32.0422 88.3213C32.4692 88.6445 32.7523 89.2872 32.5456 89.7959" fill="#BDBC2E"/>
<path d="M10.8832 77.3562C10.9461 78.1059 11.0225 78.9553 10.5685 79.5171C10.1596 80.042 9.41803 80.0964 8.85175 79.8173C8.28996 79.5346 7.86302 78.9782 7.51246 78.4025C6.01137 75.9621 5.43607 72.8076 5.9619 69.8894C6.48773 66.9735 8.10118 64.3309 10.3438 62.7265C13.1348 60.74 17.0448 62.1646 14.3977 65.796C11.9842 69.1083 10.5686 72.9954 10.8832 77.3562Z" fill="#D6D534"/>
<path d="M25.8625 89.921C25.503 89.3786 25.4221 88.5957 25.5929 87.9265C25.8221 87.0487 26.3703 86.3305 26.9096 85.6479L26.8961 85.6515C27.0624 85.5162 27.2377 85.4672 27.4355 85.4672C27.6782 85.4672 27.9568 85.544 28.2759 85.6164C27.9613 86.1553 27.804 86.7944 27.5703 87.3683C27.1793 88.3674 26.5861 89.2204 25.8625 89.921" fill="#D0CF6B"/>
<path d="M27.031 90.563C26.7704 90.563 26.5097 90.5019 26.2805 90.3473C26.1142 90.2404 25.9749 90.0929 25.8625 89.9208C26.5861 89.2202 27.1793 88.3671 27.5703 87.3681C27.804 86.7941 27.9614 86.1551 28.276 85.6162C28.3524 85.6337 28.4288 85.6513 28.5097 85.6652C29.1748 85.809 29.9568 86.0566 30.1186 86.7942C30.24 87.4085 29.8984 88.0018 29.5658 88.5092C29.1658 89.1217 28.7613 89.7559 28.1951 90.1649C27.8535 90.4107 27.4355 90.563 27.031 90.563" fill="#C7C669"/>
<path d="M36.5363 67.2882C43.7271 68.97 51.2415 68.9646 58.5403 67.85C66.3873 66.641 74.5039 63.8501 79.4296 57.612C80.0094 56.8794 80.5712 55.9941 80.4229 55.0638C80.1532 53.311 77.8207 52.911 76.041 52.947C66.239 53.1132 56.4414 53.2885 46.6394 53.4548C42.1451 53.5357 37.6419 53.6166 33.1611 53.9402C29.1117 54.2234 22.7658 54.0616 19.1255 56.0076C17.0042 57.1536 18.0738 57.8592 19.7816 59.2659C21.3681 60.5648 23.0849 61.7153 24.8692 62.7355C28.496 64.8208 32.4555 66.3264 36.5363 67.2882" fill="#8F8E23"/>
<path d="M90.6967 36.1969C90.6967 53.2122 71.1151 67.0096 46.9584 67.0096C22.8016 67.0096 3.22009 53.2122 3.22009 36.1969C3.22009 19.1771 22.8016 5.37963 46.9584 5.37963C71.1151 5.37963 90.6967 19.1771 90.6967 36.1969Z" fill="#D6D534"/>
<path d="M42.3567 27.806C45.5206 35.199 44.3162 51.4099 39.404 53.5267C33.9344 55.8682 21.9751 45.3202 18.8202 37.9226C15.6607 30.525 18.3708 22.26 24.8695 19.4691C31.3682 16.6691 39.2017 20.4084 42.3567 27.806" fill="#1A3140"/>
<path d="M77.4345 37.5946C74.4547 45.0731 62.1854 55.6796 57.2237 53.6886C51.7047 51.4639 50.6755 35.5228 53.6552 28.0443C56.6349 20.5658 64.3741 16.6513 70.9357 19.2849C77.5064 21.9186 80.4142 30.1251 77.4345 37.5946Z" fill="#1A3140"/>
<path d="M55.7988 57.1851C56.6707 57.5941 56.9987 59.185 55.7223 60.74C52.3921 65.0231 45.0664 65.0231 41.7272 60.74C40.1137 58.6817 41.0755 56.8974 42.4463 56.9963C43.6328 56.9828 44.6619 57.3109 45.3316 57.7828L45.6327 58.039L45.6641 58.0704C46.3518 58.812 47.3675 59.2839 48.4102 59.3468H49.0394C50.0865 59.2839 51.1022 58.821 51.7898 58.0749L51.8213 58.0435C52.482 57.3963 53.6325 57.0053 55.0213 56.9963L55.7988 57.1851" fill="#1A3140"/>
<path d="M47.9745 50.7403L47.3049 51.4099L46.6353 50.7403L47.3049 50.0616L47.9745 50.7403Z" fill="#1A3140"/>
<path d="M50.1274 50.7403L49.4487 51.4099L48.7881 50.7403L49.4487 50.0616L50.1274 50.7403Z" fill="#1A3140"/>
<path d="M31.9928 30.5161C31.9928 33.334 29.7142 35.6216 26.9098 35.6216C24.1053 35.6216 21.8223 33.334 21.8223 30.5161C21.8223 27.6937 24.1053 25.415 26.9098 25.415C29.7142 25.415 31.9928 27.6937 31.9928 30.5161Z" fill="white"/>
<path d="M33.5297 36.2958C33.5297 36.9834 32.9724 37.5452 32.2803 37.5452C31.5927 37.5452 31.0354 36.9834 31.0354 36.2958C31.0354 35.6037 31.5927 35.0419 32.2803 35.0419C32.9724 35.0419 33.5297 35.6037 33.5297 36.2958Z" fill="white"/>
<path d="M65.3718 30.5161C65.3718 33.334 63.0977 35.6216 60.2933 35.6216C57.4888 35.6216 55.2102 33.334 55.2102 30.5161C55.2102 27.6937 57.4888 25.415 60.2933 25.415C63.0977 25.415 65.3718 27.6937 65.3718 30.5161Z" fill="white"/>
<path d="M66.9085 36.2958C66.9085 36.9834 66.3512 37.5452 65.6636 37.5452C64.9759 37.5452 64.4187 36.9834 64.4187 36.2958C64.4187 35.6037 64.9759 35.0419 65.6636 35.0419C66.3512 35.0419 66.9085 35.6037 66.9085 36.2958Z" fill="white"/>
<path d="M68.7336 57.6705C68.7336 59.6929 67.1021 61.3243 65.0887 61.3243C63.0708 61.3243 61.4438 59.6929 61.4438 57.6705C61.4438 55.657 63.0708 54.0121 65.0887 54.0121C67.1021 54.0121 68.7336 55.657 68.7336 57.6705Z" fill="#FE6953"/>
<path d="M37.3454 58.4928C37.3454 60.5242 35.7095 62.1556 33.696 62.1556C31.6916 62.1556 30.0557 60.5242 30.0557 58.4928C30.0557 56.4794 31.6916 54.839 33.696 54.839C35.7095 54.839 37.3454 56.4794 37.3454 58.4928" fill="#FE6953"/>
<path d="M82.805 -4.16405e-05C80.3421 -4.16405e-05 78.3467 2.00439 78.3467 4.48074C78.3467 5.67622 78.823 6.77282 79.5916 7.5728L71.7131 19.213L73.6187 20.5118L81.5511 8.77729C81.9556 8.88516 82.3735 8.95702 82.805 8.95702C85.2678 8.95702 87.2678 6.9436 87.2678 4.48074C87.2678 2.00439 85.2678 -4.16405e-05 82.805 -4.16405e-05" fill="#D6D534"/>
<path d="M11.1347 -4.16405e-05C13.5976 -4.16405e-05 15.6021 2.00439 15.6021 4.48074C15.6021 5.67622 15.1302 6.77282 14.3616 7.5728L22.2266 19.213L20.3211 20.5118L12.3932 8.77729C11.9932 8.88516 11.5707 8.95702 11.1347 8.95702C8.67636 8.95702 6.67639 6.9436 6.67639 4.48074C6.67639 2.00439 8.67636 -4.16405e-05 11.1347 -4.16405e-05" fill="#D6D534"/>
<path d="M47.4214 21.3342C42.9901 21.3342 38.5632 19.7432 35.1341 16.9163C33.7903 15.7972 32.5049 14.2557 32.6937 12.5254C32.842 11.2535 33.7813 10.1794 34.8959 9.55919C36.0105 8.93448 37.2869 8.68277 38.5542 8.46255C42.4013 7.76594 46.3518 7.19069 50.2843 7.19069C52.2348 7.19069 54.1764 7.32999 56.0999 7.67156C57.9875 8.01312 61.8481 8.44457 62.693 10.4805C63.6233 12.7051 61.3222 15.5635 59.7897 16.8399C56.3696 19.7072 51.9337 21.3207 47.4754 21.3342C47.4574 21.3342 47.4394 21.3342 47.4214 21.3342" fill="#E5E47D"/>
<path d="M83.3983 7.12775C82.2567 7.12775 81.1107 6.39071 80.7377 5.2941C80.2792 3.95031 81.0433 2.3144 82.3691 1.81554L82.5983 1.74811C82.8095 1.68969 83.0297 1.65819 83.2499 1.65819C84.4274 1.65819 85.6049 2.46271 85.942 3.61325C86.3465 4.96602 85.4971 6.57495 84.1578 7.01089C83.9106 7.09179 83.6545 7.12775 83.3983 7.12775" fill="#E2E16F"/>
<path d="M11.4674 7.12775C10.3303 7.12775 9.17982 6.39071 8.7978 5.2941C8.33939 3.95031 9.10342 2.3144 10.4337 1.81554L10.6674 1.74811C10.8786 1.68969 11.0989 1.65819 11.3191 1.65819C12.4966 1.65819 13.6741 2.46271 14.0112 3.61325C14.4156 4.96602 13.5662 6.57495 12.2224 7.01089C11.9797 7.09179 11.7236 7.12775 11.4674 7.12775" fill="#E2E16F"/>
</svg>
