<?xml version="1.0" encoding="UTF-8" standalone="no"?>
<!-- Created with Inkscape (http://www.inkscape.org/) -->

<svg
   xmlns:dc="http://purl.org/dc/elements/1.1/"
   xmlns:cc="http://creativecommons.org/ns#"
   xmlns:rdf="http://www.w3.org/1999/02/22-rdf-syntax-ns#"
   xmlns:svg="http://www.w3.org/2000/svg"
   xmlns="http://www.w3.org/2000/svg"
   xmlns:xlink="http://www.w3.org/1999/xlink"
   xmlns:sodipodi="http://sodipodi.sourceforge.net/DTD/sodipodi-0.dtd"
   xmlns:inkscape="http://www.inkscape.org/namespaces/inkscape"
   width="42.27058mm"
   height="42.031792mm"
   viewBox="0 0 42.27058 42.031792"
   version="1.1"
   id="svg8"
   inkscape:version="0.92.3 (2405546, 2018-03-11)"
   sodipodi:docname="earth.svg">
  <defs
     id="defs2" />
  <sodipodi:namedview
     id="base"
     pagecolor="#ffffff"
     bordercolor="#666666"
     borderopacity="1.0"
     inkscape:pageopacity="0.0"
     inkscape:pageshadow="2"
     inkscape:zoom="0.35"
     inkscape:cx="-454.50966"
     inkscape:cy="-29.021931"
     inkscape:document-units="mm"
     inkscape:current-layer="layer1"
     showgrid="false"
     fit-margin-top="0"
     fit-margin-left="0"
     fit-margin-right="0"
     fit-margin-bottom="0"
     inkscape:window-width="1366"
     inkscape:window-height="745"
     inkscape:window-x="-8"
     inkscape:window-y="-8"
     inkscape:window-maximized="1" />
  <metadata
     id="metadata5">
    <rdf:RDF>
      <cc:Work
         rdf:about="">
        <dc:format>image/svg+xml</dc:format>
        <dc:type
           rdf:resource="http://purl.org/dc/dcmitype/StillImage" />
        <dc:title></dc:title>
      </cc:Work>
    </rdf:RDF>
  </metadata>
  <g
     inkscape:label="Layer 1"
     inkscape:groupmode="layer"
     id="layer1"
     transform="translate(-67.339013,-99.122821)">
    <image
       sodipodi:absref="E:\strony\me\src\img\earth.png"
       y="98.940468"
       x="67.279762"
       id="image823"
       xlink:href="file:///E:/strony/me/src/img/earth.png"
       preserveAspectRatio="none"
       height="42.333332"
       width="42.333332" />
    <g
       id="g826">
      <path
         style="fill:#85d8ef;stroke-width:0.28222221"
         d="m 84.939818,140.99411 c -9.576855,-1.73697 -16.884177,-9.80396 -17.555234,-19.38026 -0.311195,-4.4409 0.992414,-9.70498 3.268483,-13.19843 1.425671,-2.1882 4.658324,-5.30323 6.853029,-6.60366 0.87133,-0.5163 2.832107,-1.3298 4.357284,-1.80779 2.51058,-0.786812 3.133664,-0.870103 6.583048,-0.879993 3.660806,-0.0105 3.929819,0.02973 6.869842,1.027253 3.695209,1.25375 6.34501,2.93487 8.45612,5.36485 4.18109,4.81262 5.57439,8.13331 5.7769,13.76818 0.10695,2.97613 0.0307,3.93476 -0.47044,5.91661 -0.8253,3.26361 -1.90611,5.43505 -3.86481,7.7647 -3.48621,4.14645 -6.71381,6.28364 -11.546501,7.64569 -1.757253,0.49526 -6.871134,0.71959 -8.727721,0.38285 z"
         id="path840"
         inkscape:connector-curvature="0" />
      <path
         style="fill:#7ad4e5;stroke-width:0.28222221"
         d="m 80.120873,136.95331 c -0.521087,-0.31035 -1.09808,-0.98888 -1.125841,-1.32395 -0.0064,-0.0776 -0.120909,-0.31349 -0.254396,-0.52416 -0.133488,-0.21067 -0.296066,-1.15711 -0.361285,-2.1032 -0.06522,-0.94609 -0.232542,-1.85749 -0.37183,-2.02532 -0.149857,-0.18056 -0.14725,-0.47411 0.0064,-0.71901 0.1428,-0.22763 0.188543,-0.64221 0.101651,-0.9213 -0.08689,-0.27909 -0.01433,-0.68053 0.161258,-0.8921 0.237189,-0.28579 0.237304,-0.4353 4.51e-4,-0.58169 -0.175337,-0.10836 -0.246315,-0.48581 -0.157729,-0.83876 0.128807,-0.5132 0.0062,-0.69829 -0.612132,-0.92413 -0.425259,-0.15531 -1.050385,-0.28864 -1.38917,-0.29628 -0.8499,-0.0192 -2.00446,-0.825 -2.233283,-1.55875 -0.104585,-0.33536 -0.303394,-0.68282 -0.441798,-0.77213 -0.138403,-0.0893 -0.329707,-0.8215 -0.425118,-1.6271 -0.139628,-1.17894 -0.07457,-1.57402 0.333422,-2.02485 0.278794,-0.30806 0.645965,-0.56098 0.815935,-0.56204 0.16997,-10e-4 0.608213,-0.44126 0.973873,-0.97823 0.36566,-0.53697 0.911504,-1.05459 1.212988,-1.15028 0.60405,-0.19172 1.367728,0.29728 1.367728,0.87578 0,0.73031 1.649848,1.60428 2.765734,1.46508 1.028688,-0.12832 3.160932,0.48971 3.160932,0.91619 0,0.12027 0.270495,0.2894 0.6011,0.37586 0.407159,0.10647 0.545539,0.30198 0.428896,0.60594 -0.11587,0.30196 0.05679,0.55309 0.52779,0.7677 0.384995,0.17541 0.699992,0.42555 0.699992,0.55585 0,0.13031 0.494412,0.23693 1.098694,0.23693 0.741519,0 1.154385,0.14512 1.27,0.44641 0.317654,0.82779 0.147555,2.2285 -0.391331,3.22247 -0.294539,0.54328 -0.664948,1.26999 -0.823129,1.6149 -0.158182,0.34492 -0.594195,0.70407 -0.968918,0.79812 -0.566317,0.14213 -0.706103,0.39093 -0.828184,1.47402 -0.126907,1.12592 -0.340577,1.47776 -1.57199,2.58855 -1.099175,0.99151 -1.470783,1.54372 -1.624776,2.41441 -0.109811,0.62089 -0.402066,1.2836 -0.649455,1.4727 -0.544488,0.41617 -0.585317,0.41593 -1.296466,-0.008 z m 24.521507,-5.66565 c -0.73438,-0.73514 -0.85759,-1.04492 -0.75102,-1.88823 0.0962,-0.76143 -0.0517,-1.27286 -0.60317,-2.0855 -0.40186,-0.59217 -0.73252,-1.3447 -0.73481,-1.67229 -0.002,-0.32759 -0.18991,-0.91312 -0.41695,-1.30117 -1.03146,-1.76303 -1.59333,-3.20748 -1.45438,-3.73886 0.22979,-0.87872 -0.12425,-2.21658 -0.63408,-2.39607 -0.249574,-0.0879 -0.665451,-0.34108 -0.924175,-0.56269 -0.367135,-0.31446 -0.601831,-0.33259 -1.068996,-0.0826 -0.329218,0.1762 -0.837097,0.24465 -1.128615,0.15213 -0.291516,-0.0925 -0.602581,-0.0508 -0.691253,0.0926 -0.2697,0.43639 -1.773871,0.21142 -2.404935,-0.35969 -0.326715,-0.29567 -0.814424,-0.55472 -1.083798,-0.57566 -0.895985,-0.0697 -2.02855,-1.04255 -2.260859,-1.94212 -0.126155,-0.48851 -0.223769,-1.8407 -0.21692,-3.00487 0.01138,-1.93472 0.06371,-2.12398 0.608787,-2.20178 0.327984,-0.0468 0.736929,-0.39369 0.908766,-0.77084 0.30225,-0.66336 0.388002,-0.68116 2.631241,-0.54604 2.239494,0.13489 3.342548,0.57844 3.342548,1.34407 0,0.52328 0.987527,1.02775 2.029454,1.03673 0.572925,0.005 1.127715,0.14818 1.232865,0.31832 0.11248,0.182 0.55503,0.23865 1.07499,0.13762 0.48609,-0.0945 1.3918,-0.24287 2.01269,-0.32981 0.62089,-0.0869 1.46655,-0.3981 1.87924,-0.69147 0.89661,-0.63735 1.04192,-0.51383 2.02886,1.72468 2.07612,4.70894 2.12505,11.0073 0.12481,16.06519 -0.68719,1.73763 -2.14694,4.25348 -2.43434,4.19553 -0.1031,-0.0208 -0.58278,-0.43355 -1.06595,-0.91723 z M 72.308231,117.34077 c -1.503081,-1.18701 -2.178143,-2.00982 -2.859357,-3.48518 -0.78582,-1.70191 -0.627109,-2.41422 1.185253,-5.31957 2.554829,-4.09557 9.647379,-9.186666 10.615635,-7.62 0.09593,0.15523 0.473844,0.28223 0.839804,0.28223 0.365959,0 0.709119,0.13121 0.762576,0.29158 0.05346,0.16037 0.730791,0.32839 1.505185,0.37337 1.051424,0.0611 1.431098,0.20165 1.499239,0.55508 0.05019,0.26032 0.208937,0.4733 0.352778,0.4733 0.418738,0 0.301662,1.65194 -0.167862,2.36852 -0.292636,0.44662 -0.629697,0.61875 -1.058333,0.54046 -0.470782,-0.086 -0.717656,0.0802 -0.981721,0.661 -0.194028,0.42674 -0.352778,0.94106 -0.352778,1.14295 0,0.20189 -0.188795,0.36707 -0.419546,0.36707 -0.23075,0 -0.611057,0.45835 -0.845128,1.01856 -0.308742,0.73893 -0.549398,0.97105 -0.876571,0.8455 -0.301593,-0.11573 -0.499985,0.0143 -0.598899,0.39255 -0.09471,0.36217 -0.384808,0.56561 -0.806526,0.56561 -0.362238,0 -0.761109,0.18315 -0.886379,0.40699 -0.149713,0.26752 -0.952383,0.4716 -2.342356,0.59553 -1.163027,0.10369 -2.320146,0.29708 -2.571376,0.42974 -0.251229,0.13267 -0.511579,0.18642 -0.578555,0.11944 -0.06698,-0.067 -0.121774,0.34389 -0.121774,0.91304 0,0.62019 0.203542,1.23836 0.508,1.54282 0.832326,0.83232 0.575171,3.68293 -0.324556,3.59774 -0.08537,-0.008 -0.749911,-0.48433 -1.476753,-1.05833 z m 28.414859,-10.23564 c -0.46566,-0.13943 -1.069539,-0.18325 -1.341943,-0.0974 -0.288665,0.091 -0.560631,-0.0142 -0.651941,-0.25215 -0.194948,-0.50804 -3.02253,-0.86311 -4.215,-0.5293 -1.014039,0.28386 -3.288186,-0.21703 -3.470652,-0.76443 -0.06896,-0.20689 0.155903,-0.93937 0.499696,-1.62775 l 0.625079,-1.2516 1.455161,0.0564 c 1.16843,0.0453 1.671459,-0.0911 2.552877,-0.69213 0.603744,-0.41169 1.314304,-0.74852 1.579022,-0.74852 0.928627,0 5.931041,3.59853 5.931041,4.26654 0,0.26733 -1.72803,1.93785 -1.97556,1.90981 -0.0776,-0.009 -0.52211,-0.13005 -0.98778,-0.26947 z"
         id="path838"
         inkscape:connector-curvature="0" />
      <path
         style="fill:#6aced6;stroke-width:0.28222221"
         d="m 80.203358,136.8732 c -1.482499,-0.78123 -2.108489,-3.62446 -1.907628,-8.66439 0.07459,-1.87158 -0.359339,-2.43289 -1.892648,-2.44826 -0.952734,-0.01 -2.632209,-1.18674 -2.632209,-1.84499 0,-0.2061 -0.125256,-0.41706 -0.278346,-0.4688 -0.153089,-0.0517 -0.360392,-0.69397 -0.460672,-1.42718 -0.203904,-1.49085 0.440758,-2.93395 1.183359,-2.64899 0.221279,0.0849 0.402326,-0.007 0.402326,-0.20473 0,-0.19751 0.43091,-0.77677 0.957578,-1.28723 0.822045,-0.79676 1.041742,-0.88308 1.552222,-0.60988 0.327054,0.17503 0.594644,0.49563 0.594644,0.71243 0,0.78847 1.632653,1.61616 3.16453,1.60429 0.945079,-0.007 1.702245,0.16369 2.176285,0.49152 0.399829,0.27651 0.957262,0.58601 1.238739,0.68778 0.281477,0.10177 0.430559,0.31646 0.331294,0.47707 -0.09926,0.16062 0.201443,0.6488 0.668242,1.08486 0.643353,0.60098 1.052223,0.76296 1.689716,0.66939 1.233923,-0.1811 1.587373,0.62036 1.166869,2.64591 -0.177734,0.85614 -0.502971,1.62563 -0.722748,1.70996 -0.219776,0.0843 -0.399594,0.32118 -0.399594,0.52632 0,0.55729 -0.863879,1.31375 -1.306389,1.14394 -0.366977,-0.14082 -0.518607,0.37195 -0.451213,1.52587 0.03865,0.66179 -0.961933,2.0496 -2.035677,2.82349 -0.758786,0.54689 -1.020173,0.97145 -1.162314,1.88794 -0.100859,0.65032 -0.392362,1.37004 -0.647783,1.59938 -0.404442,0.36315 -0.563067,0.365 -1.228583,0.0143 z m 25.003772,-5.29399 c -0.32777,-0.33359 -0.80652,-0.73352 -1.06387,-0.88874 -0.38733,-0.23362 -0.41897,-0.44987 -0.18374,-1.25563 0.23725,-0.81265 0.19713,-1.069 -0.24291,-1.55222 -0.28991,-0.31835 -0.68358,-1.08682 -0.87484,-1.70771 -0.19125,-0.62089 -0.73427,-1.87955 -1.20669,-2.79703 -0.61885,-1.20183 -0.84587,-2.0142 -0.81213,-2.90613 0.0587,-1.55316 -0.21652,-2.06174 -1.479499,-2.7335 -0.807712,-0.42961 -1.086826,-0.46636 -1.422993,-0.18737 -0.230005,0.19089 -0.536679,0.27384 -0.681493,0.18434 -0.144817,-0.0895 -0.842049,-0.0546 -1.549408,0.0775 -1.194292,0.22312 -1.34098,0.183 -2.054698,-0.56196 -0.514942,-0.53748 -0.874228,-0.71456 -1.08869,-0.53657 -0.478225,0.39689 -1.784327,-0.94632 -1.98301,-2.03934 -0.21702,-1.19391 -0.323846,-4.73206 -0.141176,-4.67582 0.34353,0.10576 1.411112,-0.67396 1.411112,-1.03062 0,-0.57847 0.902758,-0.7683 2.232675,-0.46949 0.64279,0.14443 1.419173,0.1971 1.725296,0.11704 0.627245,-0.16403 1.964019,0.5971 1.977562,1.12597 0.01476,0.57606 1.264551,1.30022 2.198187,1.27367 0.482805,-0.0137 1.064615,0.13006 1.292905,0.31952 0.27766,0.23044 0.58455,0.25737 0.927,0.0814 0.28156,-0.14471 1.07183,-0.34875 1.75615,-0.45341 0.68433,-0.10467 1.6145,-0.40783 2.06707,-0.67369 0.78767,-0.46273 0.84003,-0.45999 1.22503,0.0642 0.60251,0.82031 1.53024,3.43508 2.00867,5.66132 0.58407,2.7179 0.35686,7.5024 -0.4825,10.16 -0.62595,1.9819 -1.88025,4.67532 -2.58244,5.54541 -0.34516,0.42768 -0.42392,0.41624 -0.97157,-0.14111 z M 72.641984,117.4897 c -0.388055,-0.36145 -0.9216,-0.73953 -1.185655,-0.84017 -0.601017,-0.22907 -2.138664,-2.87357 -2.367214,-4.07122 -0.13081,-0.68547 0.04114,-1.29481 0.730224,-2.58766 1.862544,-3.49449 4.996968,-6.63786 8.458934,-8.48306 1.810807,-0.96515 2.760572,-1.10186 3.016765,-0.43424 0.09556,0.24902 0.351896,0.36925 0.591358,0.27736 0.232477,-0.0892 0.605493,-0.0105 0.828924,0.17495 0.223431,0.18543 1.001084,0.36092 1.728118,0.38999 0.912823,0.0365 1.321879,0.17383 1.321879,0.44383 0,0.21504 0.15875,0.49255 0.352778,0.61668 0.4606,0.29467 0.437005,1.61526 -0.04009,2.24375 -0.206203,0.27164 -0.722054,0.49389 -1.146334,0.49389 -0.53407,0 -0.816835,0.17367 -0.919026,0.56445 -0.08118,0.31044 -0.245682,0.56444 -0.365553,0.56444 -0.119872,0 -0.20031,0.15875 -0.178751,0.35278 0.02156,0.19403 -0.079,0.37275 -0.223472,0.39717 -0.144468,0.0244 -0.496752,0.50066 -0.782853,1.05833 -0.286101,0.55767 -0.703182,1.01394 -0.926846,1.01394 -0.223664,0 -0.542598,0.254 -0.708743,0.56445 -0.166145,0.31044 -0.509863,0.56444 -0.763818,0.56444 -0.253955,0 -0.662237,0.17855 -0.907293,0.39679 -0.245055,0.21823 -1.271055,0.47759 -2.28,0.57637 -3.314864,0.32451 -3.318586,0.32627 -3.33586,1.57791 -0.009,0.64911 0.142369,1.19918 0.364625,1.32539 0.224647,0.12758 0.41926,0.8502 0.476143,1.76799 0.08528,1.37602 0.03213,1.5611 -0.468241,1.63043 -0.310444,0.043 -0.881944,-0.21752 -1.27,-0.57898 z m 26.106864,-10.91189 c -0.301554,-0.29852 -1.190241,-0.41058 -3.3572,-0.42333 -1.620895,-0.01 -3.033579,-0.10385 -3.139299,-0.20957 -0.105718,-0.10572 -0.369229,-0.12429 -0.585578,-0.0413 -0.664248,0.2549 -0.796098,-0.74053 -0.205408,-1.55077 0.303028,-0.41565 0.638528,-0.9907 0.745555,-1.27788 0.160729,-0.43128 0.427549,-0.50269 1.533163,-0.4103 1.119281,0.0935 1.518885,-0.0174 2.439247,-0.67729 0.605372,-0.43404 1.324982,-0.78915 1.599133,-0.78915 0.601068,0 4.361379,2.47656 5.328489,3.50937 l 0.69052,0.73743 -0.91589,0.83654 c -0.79039,0.72191 -1.10819,0.82733 -2.31925,0.76937 -0.771853,-0.0369 -1.587918,-0.24986 -1.813482,-0.47315 z"
         id="path836"
         inkscape:connector-curvature="0" />
      <path
         style="fill:#52c5af;stroke-width:0.28222221"
         d="m 80.059292,136.75277 c -0.827574,-0.33303 -1.490641,-1.98617 -1.490641,-3.71644 0,-0.76735 -0.132874,-1.64347 -0.295274,-1.94692 -0.1624,-0.30344 -0.19732,-0.70784 -0.0776,-0.89867 0.119721,-0.19081 0.181956,-0.5642 0.1383,-0.82974 -0.04366,-0.26555 0.05923,-0.7418 0.22864,-1.05834 0.206855,-0.38651 0.212064,-0.57553 0.01586,-0.57553 -0.160683,0 -0.292152,-0.30289 -0.292152,-0.67309 0,-0.79339 -1.092043,-1.61528 -1.87438,-1.41069 -0.644812,0.16862 -2.500064,-1.016 -2.500064,-1.59635 0,-0.22665 -0.179145,-0.5523 -0.3981,-0.72367 -0.491415,-0.3846 -0.502808,-2.78186 -0.01601,-3.36842 0.188163,-0.22672 0.580563,-0.41222 0.872001,-0.41222 0.324875,0 0.529888,-0.19935 0.529888,-0.51525 0,-0.68054 1.153442,-1.74253 1.892594,-1.74253 0.392558,0 0.645717,0.23708 0.766332,0.71764 0.09906,0.3947 0.398581,0.79819 0.665595,0.89664 0.267013,0.0984 0.565401,0.29795 0.663083,0.44334 0.09768,0.1454 0.859682,0.27249 1.693333,0.28244 1.714549,0.0204 3.772131,0.97223 3.775645,1.74651 0.0012,0.2591 0.255176,0.6091 0.564444,0.77779 0.309269,0.16868 0.669846,0.48739 0.801283,0.70824 0.150514,0.25291 0.481743,0.34062 0.894796,0.23695 0.90912,-0.22817 1.46754,0.043 1.658927,0.80552 0.191875,0.7645 -0.573777,3.54493 -0.976173,3.54493 -0.153051,0 -0.395289,0.30777 -0.538306,0.68394 -0.150612,0.39613 -0.533634,0.72272 -0.910237,0.77611 -0.538819,0.0764 -0.663591,0.28556 -0.728343,1.22106 -0.08823,1.27464 -0.570866,2.39889 -1.02984,2.39889 -0.168873,0 -0.718913,0.44878 -1.22231,0.99728 -0.800269,0.87197 -1.090832,1.64254 -0.938787,2.48965 0.0635,0.35376 -0.558939,1.0315 -0.92826,1.01074 -0.175021,-0.01 -0.599932,-0.13125 -0.944246,-0.26981 z m 24.828438,-5.53919 c -0.77101,-0.75339 -0.8876,-1.03328 -0.7393,-1.77477 0.11851,-0.5926 0.0368,-1.03925 -0.25005,-1.36656 -0.68425,-0.7808 -1.34084,-2.23718 -1.34084,-2.97415 0,-0.37483 -0.22225,-0.98529 -0.49389,-1.35658 -0.98933,-1.35225 -1.19944,-1.96281 -1.19944,-3.48544 0,-1.48596 -0.0459,-1.58244 -1.078412,-2.26571 -1.047722,-0.69334 -1.138397,-0.70433 -3.186351,-0.38594 -2.08243,0.32375 -2.117466,0.31889 -2.895087,-0.40179 -0.43293,-0.40122 -0.961129,-0.66274 -1.173775,-0.58114 -0.212645,0.0816 -0.736259,-0.17583 -1.163586,-0.57207 -0.722144,-0.66961 -0.785261,-0.91028 -0.89465,-3.41137 -0.101689,-2.32504 -0.05644,-2.69093 0.332799,-2.69093 0.247769,0 0.662012,-0.32282 0.920539,-0.71738 0.448291,-0.68418 0.57233,-0.71267 2.67966,-0.61539 1.644085,0.0759 2.356112,0.23458 2.782014,0.62002 0.314819,0.28491 0.5724,0.64308 0.5724,0.79594 0,0.50094 0.969639,1.02758 1.90883,1.03673 0.506579,0.005 1.163919,0.16065 1.460759,0.34602 0.41833,0.26126 0.70606,0.26126 1.27945,0 0.40686,-0.18537 1.16114,-0.33705 1.67618,-0.33705 0.52335,0 1.26812,-0.2609 1.68835,-0.59145 0.41355,-0.3253 0.92084,-0.52663 1.1273,-0.44741 0.20647,0.0792 0.70345,0.96354 1.10442,1.96513 2.26239,5.65135 2.07942,12.01608 -0.49668,17.27707 -1.44193,2.94475 -1.52428,3.00553 -2.62064,1.93422 z M 73.206428,117.9096 c 0,-0.12209 -0.613806,-0.68023 -1.364014,-1.24031 -1.34285,-1.00253 -2.869319,-3.49742 -2.869319,-4.68966 0,-0.92672 2.518585,-4.79516 4.297038,-6.60007 3.39386,-3.44436 7.437466,-5.63351 7.948044,-4.30297 0.107649,0.28053 0.362666,0.38162 0.695905,0.27585 0.304372,-0.0966 0.676248,0.0141 0.882613,0.26277 0.219965,0.26504 0.830051,0.4297 1.592068,0.4297 0.867851,0 1.235443,0.11698 1.235443,0.39314 0,0.21623 0.1905,0.46624 0.423333,0.55559 1.060787,0.40706 0.125555,2.57905 -1.110506,2.57905 -0.33372,0 -0.701899,0.27141 -0.861417,0.635 -0.153224,0.34925 -0.371488,0.635 -0.485031,0.635 -0.113543,0 -0.13334,0.1905 -0.04399,0.42333 0.104146,0.2714 -0.0055,0.42334 -0.30548,0.42334 -0.268015,0 -0.644257,0.42201 -0.880649,0.98777 -0.275307,0.65891 -0.599387,0.98778 -0.973377,0.98778 -0.310213,0 -0.560657,0.1891 -0.560657,0.42334 0,0.23283 -0.244928,0.42333 -0.544285,0.42333 -0.299358,0 -0.724031,0.17974 -0.94372,0.39943 -0.219689,0.21969 -1.02251,0.48242 -1.784047,0.58385 -0.761538,0.10142 -2.037,0.31967 -2.83436,0.485 l -1.449746,0.30058 0.154747,1.16168 c 0.08511,0.63893 0.309869,1.28868 0.499463,1.4439 0.470217,0.38498 0.709284,2.552 0.324038,2.93725 -0.356338,0.35633 -1.04209,0.41315 -1.04209,0.0863 z m 27.377902,-11.05949 c -0.23155,-0.14639 -0.693941,-0.19765 -1.027547,-0.11392 -0.333607,0.0837 -0.691405,0.015 -0.795111,-0.15285 -0.103705,-0.1678 -0.530312,-0.30704 -0.948012,-0.30942 -0.4177,-0.002 -0.923141,-0.10817 -1.123202,-0.2351 -0.200062,-0.12693 -1.135242,-0.11401 -2.078175,0.0287 -1.183611,0.17915 -1.809355,0.16456 -2.021029,-0.0471 -0.168632,-0.16863 -0.598704,-0.3066 -0.955715,-0.3066 -0.783274,0 -0.832174,-0.53195 -0.132706,-1.44361 0.284023,-0.37018 0.604204,-0.91268 0.711513,-1.20555 0.167078,-0.456 0.393452,-0.509 1.575756,-0.36898 1.094686,0.12965 1.504102,0.0564 1.97669,-0.35342 0.327821,-0.28432 0.966456,-0.67038 1.419186,-0.8579 0.749974,-0.31065 0.96886,-0.24998 2.462352,0.68255 0.90156,0.56292 2.21071,1.52063 2.90921,2.12822 l 1.27,1.10473 -0.98778,0.85106 c -1.04133,0.89722 -1.5643,1.03616 -2.25543,0.59921 z"
         id="path834"
         inkscape:connector-curvature="0" />
      <path
         style="fill:#2ab693;stroke-width:0.28222221"
         d="m 80.038459,136.59826 c -0.853682,-0.59794 -1.3581,-1.92526 -1.437427,-3.78242 -0.03626,-0.84893 -0.178116,-1.67869 -0.315234,-1.84391 -0.144806,-0.17448 -0.140475,-0.47387 0.01033,-0.71426 0.142799,-0.22763 0.188542,-0.64221 0.10165,-0.9213 -0.08689,-0.27909 0.0031,-0.70152 0.199962,-0.93873 0.289514,-0.34885 0.288198,-0.47441 -0.0069,-0.65678 -0.22035,-0.13619 -0.291301,-0.45715 -0.179158,-0.81048 0.146634,-0.46201 -7.34e-4,-0.6814 -0.700827,-1.04344 -0.487577,-0.25213 -1.044972,-0.39761 -1.238659,-0.32329 -0.786758,0.30191 -2.042362,-0.68447 -2.653794,-2.08476 -0.982344,-2.24976 -0.736699,-3.9362 0.573341,-3.9362 0.2794,0 0.508,-0.16674 0.508,-0.37053 0,-0.606 1.609917,-1.97965 2.099818,-1.79165 0.2421,0.0929 0.440182,0.34832 0.440182,0.5676 0,0.21929 0.456501,0.74689 1.014448,1.17245 0.864963,0.65974 1.193807,0.74918 2.231631,0.60693 0.999684,-0.13702 1.400602,-0.0424 2.243641,0.52974 0.564551,0.38311 1.153384,0.69657 1.308518,0.69657 0.155133,0 0.244743,0.17692 0.199133,0.39316 -0.145654,0.69054 1.404376,1.86462 2.461684,1.86462 1.188068,0 1.599158,0.63678 1.29156,2.00063 -0.273666,1.21339 -0.805524,2.2327 -1.16499,2.2327 -0.149761,0 -0.272292,0.25718 -0.272292,0.5715 0,0.40922 -0.240412,0.61958 -0.846667,0.74083 -0.789781,0.15796 -0.846667,0.25442 -0.846667,1.43562 0,1.17156 -0.113996,1.3707 -1.523849,2.66202 -1.126444,1.03174 -1.574635,1.66751 -1.718588,2.43788 -0.190252,1.01814 -0.592105,1.74771 -0.962656,1.74771 -0.101678,0 -0.468972,-0.199 -0.816209,-0.44221 z m 25.315291,-5.10952 c -0.21853,-0.30427 -0.60859,-0.63191 -0.8668,-0.72808 -0.37113,-0.13823 -0.43693,-0.41751 -0.31412,-1.33318 0.12306,-0.91742 0.0352,-1.28806 -0.4225,-1.78211 -0.31783,-0.34309 -0.72659,-1.18381 -0.90834,-1.86828 -0.18175,-0.68446 -0.716,-1.92762 -1.18722,-2.76257 -0.59757,-1.05884 -0.81114,-1.74958 -0.70596,-2.28329 0.2697,-1.36856 -0.0856,-2.26225 -1.148684,-2.8895 -0.735423,-0.43391 -1.271408,-0.54683 -2.015036,-0.42452 -2.975592,0.48943 -3.197883,0.4725 -4.0098,-0.30537 -0.440735,-0.42225 -0.961216,-0.67723 -1.197407,-0.58659 -0.515218,0.19771 -1.863043,-1.00384 -1.902825,-1.69631 -0.250383,-4.35829 -0.2139,-4.88181 0.340205,-4.88181 0.308614,0 0.686396,-0.30438 0.865405,-0.69726 0.307746,-0.67543 0.388538,-0.693 2.57972,-0.56102 2.322814,0.13991 3.015508,0.42033 3.019352,1.22229 0.0025,0.55289 1.219223,1.16488 2.31567,1.16488 0.43683,0 1.0414,0.15436 1.3435,0.34302 0.43108,0.26922 0.75337,0.26922 1.49787,0 0.52174,-0.18866 1.32059,-0.34584 1.77524,-0.34929 0.45465,-0.003 1.14413,-0.25463 1.53219,-0.55817 0.38805,-0.30354 0.78346,-0.55472 0.87868,-0.55817 0.28716,-0.0104 1.61357,3.15439 2.1343,5.09243 0.66227,2.46482 0.66221,7.65144 -1.1e-4,10.14129 -0.49013,1.84251 -2.02937,5.32255 -2.79546,6.3202 -0.40216,0.52371 -0.41866,0.52333 -0.80787,-0.0186 z M 72.387047,117.12451 c -1.522008,-1.19551 -2.346545,-2.28462 -2.974536,-3.92899 l -0.479405,-1.2553 1.069365,-2.05488 c 1.536513,-2.95254 5.401554,-6.77489 8.370028,-8.27759 2.054191,-1.03986 2.22758,-1.08175 2.571113,-0.62117 0.202606,0.27164 0.614725,0.49389 0.915818,0.49389 0.301093,0 0.67616,0.12871 0.83348,0.28604 0.157321,0.15732 0.881221,0.31194 1.608667,0.3436 0.782191,0.034 1.322629,0.19134 1.322629,0.38496 0,0.18007 0.1905,0.4855 0.423333,0.67873 0.557858,0.46298 0.534989,1.04324 -0.07055,1.79021 -0.303559,0.37445 -0.738424,0.5744 -1.128434,0.51883 -0.465787,-0.0664 -0.707866,0.10245 -0.910237,0.63473 -0.151631,0.39881 -0.40185,0.72512 -0.556042,0.72512 -0.154193,0 -0.213537,0.17411 -0.131877,0.38691 0.08166,0.21281 -0.05123,0.46355 -0.295315,0.55722 -0.244084,0.0937 -0.566605,0.49333 -0.716714,0.88814 -0.150109,0.39482 -0.592703,0.83943 -0.983542,0.98803 -0.390839,0.14859 -0.710617,0.40032 -0.710617,0.55938 0,0.15907 -0.23845,0.28921 -0.529888,0.28921 -0.291438,0 -0.681326,0.18247 -0.866417,0.40549 -0.185091,0.22302 -1.057892,0.48291 -1.939557,0.57753 -0.881664,0.0946 -2.128995,0.30579 -2.771846,0.46927 l -1.16882,0.29725 0.156525,1.16698 c 0.08609,0.64184 0.332638,1.3431 0.547886,1.55835 0.445872,0.44587 0.397065,2.91207 -0.0601,3.03704 -0.155222,0.0424 -0.841444,-0.36211 -1.524937,-0.89898 z M 100.72309,106.8229 c -0.46566,-0.13942 -1.053873,-0.18822 -1.30713,-0.10844 -0.267522,0.0843 -0.535037,-0.0493 -0.638429,-0.31871 -0.117391,-0.30592 -0.378582,-0.4113 -0.767382,-0.30963 -0.324183,0.0848 -0.879041,0.0222 -1.233018,-0.1391 -0.439945,-0.20045 -1.067071,-0.20292 -1.981911,-0.008 -0.890474,0.18992 -1.633615,0.19165 -2.220777,0.005 -0.485353,-0.15416 -1.040438,-0.32831 -1.233523,-0.38702 -0.272324,-0.0828 -0.277988,-0.26712 -0.02525,-0.82181 0.179194,-0.39329 0.432422,-0.71507 0.562728,-0.71507 0.130307,0 0.236922,-0.254 0.236922,-0.56445 0,-0.34119 0.195346,-0.57298 0.493889,-0.58603 0.271639,-0.0119 0.743566,-0.0682 1.048727,-0.12509 0.30516,-0.0569 0.699957,0.0169 0.877325,0.16415 0.212449,0.17632 0.552772,0.0882 0.997383,-0.25834 0.371193,-0.2893 1.061946,-0.72442 1.535007,-0.96694 0.824828,-0.42286 0.919799,-0.40649 2.315441,0.39928 0.800428,0.46213 2.101148,1.42088 2.890478,2.13056 l 1.43515,1.29032 -0.64614,0.44068 c -0.35539,0.24237 -0.74771,0.60709 -0.87184,0.81049 -0.25434,0.41676 -0.29574,0.41867 -1.46765,0.0678 z"
         id="path832"
         inkscape:connector-curvature="0" />
      <path
         style="fill:#18b084;stroke-width:0.28222221"
         d="m 80.003538,136.44922 c -0.513755,-0.31243 -0.85738,-0.64478 -0.76361,-0.73855 0.09377,-0.0938 0.0567,-0.30918 -0.08239,-0.47868 -0.492634,-0.60039 -0.880566,-5.91159 -0.493683,-6.75904 0.142451,-0.31204 0.123425,-0.64007 -0.04701,-0.8105 -0.157472,-0.15748 -0.212914,-0.47759 -0.123204,-0.71137 0.219087,-0.57094 -0.984694,-1.46749 -1.981036,-1.47545 -0.432322,-0.003 -1.104033,-0.21463 -1.49269,-0.46929 -0.833801,-0.54633 -1.813492,-2.55115 -1.813492,-3.71109 0,-0.81325 0.730402,-1.75256 1.362778,-1.75256 0.181806,0 0.330556,-0.16674 0.330556,-0.37053 0,-0.63069 1.552335,-1.92364 2.070714,-1.72472 0.258107,0.0991 0.469286,0.35053 0.469286,0.55886 0,0.20833 0.428536,0.70564 0.952304,1.10513 0.770805,0.58792 1.230052,0.71653 2.409619,0.67478 1.10662,-0.0392 1.65573,0.0951 2.281824,0.55801 0.453479,0.33527 0.944761,0.60958 1.091736,0.60958 0.146976,0 0.204008,0.24176 0.126738,0.53724 -0.09695,0.37073 0.04254,0.59533 0.450055,0.72467 0.324799,0.10308 0.717589,0.42481 0.872866,0.71495 0.220509,0.41202 0.492104,0.49348 1.240468,0.37204 0.807516,-0.13104 0.988733,-0.0591 1.152708,0.45752 0.220131,0.69357 -0.347761,3.40247 -0.71329,3.40247 -0.131271,0 -0.409432,0.34925 -0.618137,0.77611 -0.222533,0.45514 -0.570248,0.74384 -0.840785,0.69807 -0.592312,-0.1002 -0.819694,0.28398 -0.841853,1.42236 -0.01762,0.90539 -0.724195,2.46568 -1.116573,2.46568 -0.654864,0 -1.920224,1.65962 -2.093921,2.74634 -0.260174,1.62776 -0.639685,1.87751 -1.789983,1.17797 z m 24.921172,-5.43261 c -0.77505,-0.53679 -0.86228,-0.73075 -0.74139,-1.64859 0.10207,-0.77492 -0.0139,-1.23208 -0.45475,-1.79252 -0.32546,-0.41376 -0.67858,-1.21566 -0.78469,-1.782 -0.10612,-0.56633 -0.60256,-1.7917 -1.10321,-2.72303 -0.88803,-1.65199 -1.12484,-3.4494 -0.57225,-4.34351 0.10645,-0.17224 0.0565,-0.31316 -0.11094,-0.31316 -0.16747,0 -0.80528,-0.31614 -1.417366,-0.70253 -0.911984,-0.57571 -1.246392,-0.65176 -1.852518,-0.42131 -0.406806,0.15467 -0.831248,0.2246 -0.943209,0.1554 -0.111957,-0.0692 -0.69644,-0.0146 -1.298849,0.12122 -0.993642,0.22411 -1.173448,0.17061 -1.937516,-0.5764 -0.600316,-0.58692 -0.940848,-0.74159 -1.185574,-0.53849 -0.593677,0.49271 -1.813929,-1.25936 -1.842605,-2.64565 -0.0134,-0.64779 -0.06076,-1.78104 -0.105256,-2.51835 -0.06911,-1.1453 -0.0049,-1.34056 0.44119,-1.34056 0.287146,0 0.724767,-0.30933 0.972492,-0.68741 0.42678,-0.65135 0.556669,-0.679 2.475951,-0.52712 2.011591,0.15918 3.013319,0.62438 3.013319,1.39939 0,0.20877 0.1905,0.37959 0.423333,0.37959 0.232833,0 0.423333,0.127 0.423333,0.28222 0,0.15522 0.500505,0.28222 1.112233,0.28222 0.611732,0 1.198232,0.13915 1.303332,0.30921 0.11471,0.1856 0.60084,0.24266 1.2161,0.14273 0.56375,-0.0916 1.533,-0.23991 2.15389,-0.32966 0.62089,-0.0898 1.48812,-0.41917 1.92719,-0.73203 0.43906,-0.31286 0.84756,-0.51958 0.90777,-0.45936 0.33823,0.33823 1.53501,3.46202 1.97739,5.16134 0.68514,2.6318 0.69044,7.21029 0.0114,9.87777 -0.51757,2.03328 -2.5645,6.65299 -2.92683,6.60559 -0.11198,-0.0147 -0.59888,-0.30041 -1.08199,-0.635 z M 72.647919,117.12674 c -0.38479,-0.37867 -0.81529,-0.68849 -0.956664,-0.68849 -0.493042,0 -1.938811,-2.35857 -2.421973,-3.95112 -0.255791,-0.8431 0.350132,-2.18556 2.101797,-4.65666 1.975572,-2.78697 5.577263,-5.77569 8.33863,-6.91949 0.800879,-0.33173 0.951741,-0.32017 1.256231,0.0962 0.190326,0.26029 0.592397,0.47325 0.89349,0.47325 0.301093,0 0.678932,0.13149 0.839641,0.2922 0.16071,0.16071 0.883726,0.31946 1.606704,0.35277 1.039805,0.0479 1.314915,0.16379 1.316468,0.55447 0.0011,0.27164 0.128963,0.49389 0.284185,0.49389 0.396984,0 0.35257,1.5101 -0.05644,1.91911 -0.186267,0.18627 -0.616161,0.33867 -0.95532,0.33867 -0.661882,0 -1.708158,1.28737 -1.571255,1.93332 0.04528,0.21364 -0.05414,0.29772 -0.226242,0.19136 -0.179351,-0.11085 -0.476404,0.21566 -0.714381,0.78522 -0.263645,0.63099 -0.659842,1.03834 -1.122975,1.15458 -0.393582,0.0988 -0.715605,0.36769 -0.715605,0.59756 0,0.22988 -0.21225,0.41796 -0.471666,0.41796 -0.259417,0 -0.672167,0.17724 -0.917223,0.39386 -0.245055,0.21662 -1.207555,0.47273 -2.138889,0.56912 -3.907131,0.4044 -3.782757,0.3489 -3.741994,1.66971 0.0201,0.65141 0.265163,1.47796 0.548609,1.85037 0.692594,0.90997 0.705238,2.86138 0.01839,2.83766 -0.271639,-0.009 -0.808718,-0.32688 -1.193509,-0.70556 z m 28.231911,-10.3335 c -0.37376,-0.13827 -0.891679,-0.21546 -1.150911,-0.17154 -0.259236,0.0439 -0.663271,-0.0795 -0.897862,-0.27414 -0.408491,-0.33902 -2.820182,-0.51052 -5.121185,-0.36419 -0.597605,0.038 -1.216331,-0.0607 -1.374945,-0.21929 -0.158615,-0.15862 -0.463415,-0.22123 -0.677334,-0.13914 -0.562891,0.216 -0.47901,-0.34363 0.246057,-1.64163 0.625992,-1.12064 0.653714,-1.13467 1.954139,-0.98897 0.972874,0.109 1.412407,0.0354 1.674454,-0.28033 0.195422,-0.23547 0.82333,-0.66689 1.395349,-0.95872 l 1.040037,-0.53058 1.942177,1.27389 c 1.866814,1.22445 3.494404,2.58229 3.494394,2.91522 -1e-5,0.0874 -0.41508,0.49006 -0.9224,0.89484 -0.73518,0.58661 -1.0603,0.68495 -1.60197,0.48458 z"
         id="path830"
         inkscape:connector-curvature="0" />
      <path
         style="fill:#02a96e;stroke-width:0.28222221"
         d="m 80.240807,136.57616 c -0.627027,-0.17281 -1.389934,-2.05116 -1.389934,-3.42215 0,-0.63624 -0.127909,-1.49322 -0.284241,-1.90441 -0.156333,-0.41119 -0.191253,-0.8957 -0.0776,-1.07671 0.113653,-0.181 0.170924,-0.54635 0.127268,-0.81189 -0.04366,-0.26555 0.05511,-0.73409 0.219474,-1.04121 0.198149,-0.37025 0.203494,-0.61733 0.01586,-0.7333 -0.155641,-0.0962 -0.282984,-0.45389 -0.282984,-0.7949 0,-0.6508 -1.247574,-1.4007 -2.415339,-1.45182 -0.898087,-0.0393 -2.171228,-0.97162 -1.985997,-1.45433 0.08717,-0.22715 -0.02378,-0.48295 -0.246545,-0.56843 -0.222767,-0.0855 -0.490715,-0.7268 -0.595438,-1.42515 -0.205571,-1.37085 0.255688,-2.19866 1.228595,-2.20492 0.287535,-0.002 0.523576,-0.26088 0.576393,-0.63252 0.126885,-0.89279 1.423154,-1.8715 1.926006,-1.45417 0.210889,0.17502 0.383436,0.48452 0.383436,0.68778 0,0.70834 1.597392,1.546 3.014276,1.58066 1.390937,0.034 2.91239,0.48945 2.91239,0.87178 0,0.11733 0.204088,0.21333 0.453528,0.21333 0.286919,0 0.39393,0.15531 0.291295,0.42277 -0.101656,0.26492 0.124172,0.60487 0.604806,0.91045 0.421871,0.26822 0.863977,0.64121 0.982457,0.82888 0.134147,0.21247 0.57564,0.28274 1.170212,0.18625 0.791741,-0.12848 0.986378,-0.0554 1.13975,0.42781 0.403474,1.27124 -1.174297,4.80732 -2.155948,4.83189 -0.651634,0.0163 -0.916885,0.51359 -0.980417,1.83801 -0.04578,0.95441 -0.262336,1.30999 -1.460942,2.39889 -1.340268,1.21758 -1.785934,2.00042 -1.850306,3.25016 -0.0291,0.565 -0.500248,0.75318 -1.320055,0.52725 z m 24.912703,-5.54234 c -0.79684,-0.55551 -0.88081,-0.74082 -0.74964,-1.6545 0.0971,-0.67671 0.0122,-1.16449 -0.24827,-1.42492 -0.6181,-0.6181 -1.31531,-2.10851 -1.32098,-2.82381 -0.003,-0.35695 -0.39484,-1.22051 -0.87115,-1.91901 -0.78172,-1.14638 -0.85557,-1.4401 -0.75865,-3.01737 0.10073,-1.63935 0.063,-1.76944 -0.61052,-2.10449 -0.39483,-0.19642 -0.935006,-0.53641 -1.200391,-0.75553 -0.32162,-0.26555 -0.7451,-0.32992 -1.269999,-0.19303 -0.433116,0.11295 -1.397497,0.25631 -2.143072,0.31857 -1.117577,0.0933 -1.518364,-0.011 -2.282647,-0.59391 -0.509881,-0.3889 -1.000096,-0.63406 -1.089367,-0.54479 -0.08927,0.0893 -0.48463,-0.0489 -0.878575,-0.307 -0.743196,-0.48696 -0.93701,-1.21557 -1.132364,-4.25693 -0.087,-1.35447 -0.04673,-1.45275 0.71261,-1.73937 0.442652,-0.16708 0.804822,-0.49173 0.804822,-0.72144 0,-0.61747 0.767795,-0.80326 1.975555,-0.47804 0.587644,0.15823 1.273525,0.209 1.524178,0.11282 0.546656,-0.20978 1.862489,0.58943 1.862489,1.13122 0,0.58533 1.30405,1.31308 2.226897,1.24276 0.451724,-0.0344 1.019554,0.10194 1.261844,0.30302 0.32853,0.27266 0.67649,0.29341 1.36867,0.0816 0.51048,-0.15617 1.43614,-0.36753 2.05703,-0.4697 0.62089,-0.10216 1.42566,-0.37701 1.78838,-0.61076 0.36272,-0.23375 0.69636,-0.38311 0.74142,-0.3319 0.44762,0.50866 1.42183,2.95546 1.86204,4.67665 0.62045,2.42598 0.72899,6.59297 0.2413,9.26407 -0.33333,1.82561 -1.36248,4.60372 -2.34856,6.33975 l -0.62571,1.10158 z M 72.190897,116.73535 c -1.49483,-1.14714 -2.93558,-3.51489 -2.93558,-4.82437 0,-0.85676 1.872806,-3.96927 3.484315,-5.79077 1.567688,-1.77197 3.762335,-3.48035 5.94343,-4.62655 l 1.666634,-0.87585 0.640807,0.60201 c 0.352444,0.3311 0.776986,0.51784 0.943427,0.41498 0.16644,-0.10287 0.5851,0.0108 0.930355,0.25265 0.345254,0.24183 0.980477,0.43968 1.411606,0.43968 0.885477,0 1.917291,0.87952 1.903784,1.62278 -0.01341,0.73786 -0.707473,1.51392 -1.188777,1.32923 -0.232541,-0.0892 -0.597927,0.0311 -0.811969,0.26753 -0.882523,0.97459 -1.574045,2.04703 -1.973075,3.05991 -0.191181,0.48528 -0.516819,0.77611 -0.869011,0.77611 -0.309792,0 -0.622769,0.22757 -0.695504,0.50571 -0.07274,0.27814 -0.392556,0.52532 -0.710714,0.54928 -0.318158,0.024 -0.786508,0.21873 -1.040777,0.43281 -0.25427,0.21408 -0.779809,0.4056 -1.167864,0.42559 -1.459061,0.0752 -4.519626,0.6871 -4.672322,0.93416 -0.08732,0.14129 -0.0607,0.41557 0.05916,0.6095 0.119858,0.19394 0.182438,0.69092 0.139066,1.1044 -0.04554,0.43419 0.09563,0.85156 0.334164,0.98795 0.476387,0.27239 0.758175,2.67756 0.329936,2.81613 -0.155222,0.0502 -0.929711,-0.40556 -1.721087,-1.01287 z m 28.391083,-10.17276 c -0.23283,-0.1493 -0.661435,-0.19727 -0.952454,-0.10659 -0.292467,0.0911 -0.629816,0.002 -0.754256,-0.1994 -0.158778,-0.25691 -1.101378,-0.37315 -3.198204,-0.39438 -1.635191,-0.0166 -3.063192,-0.12023 -3.173338,-0.23038 -0.110144,-0.11014 -0.433096,-0.20026 -0.717671,-0.20026 -0.666033,0 -0.653746,-0.315 0.04704,-1.2059 0.310444,-0.39467 0.564444,-0.87398 0.564444,-1.06515 0,-0.2492 0.38267,-0.30225 1.35203,-0.18744 1.173924,0.13903 1.514118,0.0513 2.582469,-0.66625 0.676741,-0.4545 1.391189,-0.82637 1.587658,-0.82637 0.453684,0 4.339502,2.58923 5.028652,3.35072 0.50718,0.56043 0.50069,0.58924 -0.28877,1.28348 -0.86708,0.76249 -1.40588,0.87865 -2.0776,0.44792 z"
         id="path828"
         inkscape:connector-curvature="0" />
    </g>
  </g>
</svg>
