<?xml version="1.0" encoding="UTF-8" standalone="no"?>
<!-- Created with Inkscape (http://www.inkscape.org/) -->

<svg
   xmlns:dc="http://purl.org/dc/elements/1.1/"
   xmlns:cc="http://creativecommons.org/ns#"
   xmlns:rdf="http://www.w3.org/1999/02/22-rdf-syntax-ns#"
   xmlns:svg="http://www.w3.org/2000/svg"
   xmlns="http://www.w3.org/2000/svg"
   xmlns:xlink="http://www.w3.org/1999/xlink"
   xmlns:sodipodi="http://sodipodi.sourceforge.net/DTD/sodipodi-0.dtd"
   xmlns:inkscape="http://www.inkscape.org/namespaces/inkscape"
   width="35.196697mm"
   height="35.240349mm"
   viewBox="0 0 35.196697 35.240349"
   version="1.1"
   id="svg8"
   inkscape:version="0.92.3 (2405546, 2018-03-11)"
   sodipodi:docname="moon.svg">
  <defs
     id="defs2" />
  <sodipodi:namedview
     id="base"
     pagecolor="#ffffff"
     bordercolor="#666666"
     borderopacity="1.0"
     inkscape:pageopacity="0.0"
     inkscape:pageshadow="2"
     inkscape:zoom="0.35"
     inkscape:cx="-427.8457"
     inkscape:cy="69.575405"
     inkscape:document-units="mm"
     inkscape:current-layer="layer1"
     showgrid="false"
     fit-margin-top="0"
     fit-margin-left="0"
     fit-margin-right="0"
     fit-margin-bottom="0"
     inkscape:window-width="1366"
     inkscape:window-height="745"
     inkscape:window-x="-8"
     inkscape:window-y="-8"
     inkscape:window-maximized="1" />
  <metadata
     id="metadata5">
    <rdf:RDF>
      <cc:Work
         rdf:about="">
        <dc:format>image/svg+xml</dc:format>
        <dc:type
           rdf:resource="http://purl.org/dc/dcmitype/StillImage" />
        <dc:title></dc:title>
      </cc:Work>
    </rdf:RDF>
  </metadata>
  <g
     inkscape:label="Layer 1"
     inkscape:groupmode="layer"
     id="layer1"
     transform="translate(-60.284174,-132.00148)">
    <image
       sodipodi:absref="E:\strony\me\src\img\moon .png"
       y="131.95039"
       x="60.224205"
       id="image823"
       xlink:href="file:///E:/strony/me/src/img/moon%20.png"
       preserveAspectRatio="none"
       height="35.277775"
       width="35.277775" />
    <g
       id="g826">
      <path
         style="fill:#ede0db;stroke-width:0.35277775"
         d="m 73.316608,166.67058 c -7.272289,-1.95576 -12.420241,-8.30772 -12.985837,-16.02297 -0.366824,-5.00381 1.439484,-9.70811 5.159346,-13.43684 4.67293,-4.68407 10.583849,-6.2486 17.129899,-4.53403 3.361501,0.88046 5.338016,1.99548 7.731258,4.36146 6.852672,6.77462 6.837411,18.13466 -0.03359,25.00567 -4.410595,4.41059 -11.067928,6.22234 -17.001073,4.62671 z"
         id="path840"
         inkscape:connector-curvature="0" />
      <path
         style="fill:#e7dad5;stroke-width:0.35277775"
         d="m 74.119679,166.70309 c -2.564352,-0.55783 -4.589687,-1.52898 -7.104502,-3.40662 -2.371824,-1.77088 -2.419471,-2.39964 -0.0616,-0.81291 3.857539,2.59593 9.807541,3.3812 14.541224,1.91911 7.622533,-2.35436 12.685574,-9.78411 12.138071,-17.812 -0.105862,-1.55223 -0.457024,-3.57367 -0.780359,-4.49209 l -0.587883,-1.66987 -1.264279,0.96431 c -1.056871,0.80612 -1.616027,0.96431 -3.408406,0.96431 -2.462018,0 -4.042141,-0.86714 -5.032698,-2.76184 -0.76968,-1.47221 -0.716593,-4.10802 0.110953,-5.50895 0.765767,-1.29634 1.429374,-1.2556 4.012339,0.2463 4.334969,2.52063 7.607266,7.34747 8.480793,12.50968 1.516632,8.96275 -4.677514,17.96023 -13.677277,19.86732 -2.888761,0.61214 -4.528248,0.61064 -7.366373,-0.007 z m 0.877041,-7.72104 c -0.460787,-0.22967 -1.042688,-0.8449 -1.293114,-1.36718 -0.382836,-0.79842 -0.367775,-1.11888 0.09461,-2.01303 1.022068,-1.97647 3.812448,-1.71553 4.565925,0.42697 0.685892,1.95033 -1.512129,3.878 -3.367421,2.95324 z m -6.588071,-0.29111 c -0.634954,-0.63495 -0.51031,-1.62196 0.256666,-2.03243 0.861638,-0.46114 1.699362,-0.1477 1.98155,0.7414 0.418296,1.31793 -1.249379,2.27987 -2.238216,1.29103 z m 19.949582,-2.77992 c -0.952289,-0.55466 -0.79792,-2.30662 0.264583,-3.00279 0.816988,-0.53532 0.946901,-0.53532 1.763889,0 1.048554,0.68703 1.156836,1.96737 0.236805,2.79998 -0.733909,0.66418 -1.374661,0.72155 -2.265277,0.20281 z m -16.522172,-6.53405 c -0.313447,-0.37768 -0.327212,-0.63011 -0.04951,-0.90782 0.487131,-0.48713 1.490428,-0.12218 1.490428,0.54215 0,0.73511 -0.936972,0.97289 -1.440923,0.36567 z m 14.663163,-0.15168 c -0.137004,-0.22167 -0.0831,-0.56904 0.119784,-0.77193 0.474098,-0.47409 1.579435,-0.0606 1.38655,0.51874 -0.196358,0.58974 -1.194637,0.75753 -1.506334,0.25319 z m -8.660671,-1.95864 c -0.618767,-0.74557 -0.0014,-1.73432 1.082875,-1.73432 1.084286,0 1.701642,0.98875 1.082875,1.73432 -0.255041,0.30731 -0.742335,0.55874 -1.082875,0.55874 -0.34054,0 -0.827834,-0.25143 -1.082875,-0.55874 z m 7.080096,-1.91071 c 0,-0.47037 0.235186,-0.70555 0.705556,-0.70555 0.47037,0 0.705555,0.23518 0.705555,0.70555 0,0.47037 -0.235185,0.70556 -0.705555,0.70556 -0.47037,0 -0.705556,-0.23519 -0.705556,-0.70556 z m -16.804852,-2.64347 c -0.122191,-0.31842 -0.05301,-0.74811 0.153743,-0.95486 0.537495,-0.53749 1.555894,-0.0462 1.415493,0.6828 -0.156387,0.81205 -1.286816,1.00804 -1.569236,0.27206 z m 5.018158,-1.26415 c -0.997625,-1.18561 -1.13459,-2.07328 -0.502903,-3.25932 0.623643,-1.17093 1.40255,-1.62893 2.791299,-1.64128 2.704829,-0.0241 4.007951,3.39204 1.96446,5.14978 -1.422346,1.22345 -3.096248,1.12537 -4.252856,-0.24918 z"
         id="path838"
         inkscape:connector-curvature="0" />
      <path
         style="fill:#e0d2cd;stroke-width:0.35277775"
         d="m 72.181053,166.03776 c -2.045822,-0.72219 -5.606849,-2.78139 -5.606849,-3.24221 0,-0.091 0.796187,0.23808 1.769304,0.73119 7.49595,3.79849 16.848172,1.65574 21.919856,-5.02219 3.711425,-4.88686 4.715549,-11.62098 2.542586,-17.05174 l -0.57253,-1.4309 -0.923359,0.88069 c -1.881171,1.79423 -4.033,2.07338 -6.386961,0.82858 -1.842846,-0.97452 -2.827158,-2.65945 -2.825356,-4.8364 0.0012,-1.41338 1.013551,-3.88606 1.591056,-3.88606 0.105399,0 1.106252,0.4617 2.224118,1.026 5.809728,2.93274 9.236284,8.7033 9.236284,15.55456 0,4.97618 -1.322564,8.32868 -4.693072,11.89623 -3.595763,3.80597 -7.348349,5.39479 -12.712662,5.38244 -2.469665,-0.006 -3.781366,-0.20146 -5.562415,-0.83019 z m -3.657121,-7.4936 c -0.313563,-0.31356 -0.513891,-0.73878 -0.445174,-0.94493 0.207228,-0.62169 1.184639,-1.08093 1.798885,-0.84522 0.738486,0.28338 0.752557,1.86468 0.0191,2.14613 -0.748065,0.28706 -0.723362,0.29347 -1.372809,-0.35598 z m 5.654998,-0.21393 c -1.244591,-1.77691 -0.183166,-3.91966 1.941625,-3.91966 0.588819,0 1.327604,0.25703 1.641744,0.57117 0.762058,0.76206 0.724875,2.54247 -0.07147,3.42243 -0.896218,0.99031 -2.794457,0.95034 -3.511894,-0.0739 z m 14.34599,-2.58735 c -0.431228,-0.30204 -0.78405,-0.9176 -0.78405,-1.36791 0,-1.88462 2.706986,-2.23111 3.337787,-0.42724 0.302723,0.86568 0.23624,1.10093 -0.473561,1.67569 -0.998948,0.8089 -1.088521,0.81405 -2.080176,0.11946 z m -16.59806,-6.73893 c 0.148678,-0.77202 1.173733,-0.88124 1.173733,-0.12506 0,0.28839 -0.292229,0.58061 -0.649398,0.6494 -0.471451,0.0908 -0.615128,-0.0529 -0.524335,-0.52434 z m 14.755676,-0.12023 c 0,-0.39197 0.235186,-0.70555 0.529167,-0.70555 0.293981,0 0.529167,0.31358 0.529167,0.70555 0,0.39198 -0.235186,0.70556 -0.529167,0.70556 -0.293981,0 -0.529167,-0.31358 -0.529167,-0.70556 z m -8.781905,-1.69375 c -0.471473,-0.88095 0.270284,-1.96236 1.220501,-1.77936 1.033073,0.19895 0.958415,2.19907 -0.08764,2.34799 -0.478266,0.0681 -0.907369,-0.14729 -1.132858,-0.56863 z m 7.085175,-1.74583 c 0.06539,-0.33955 0.35267,-0.61736 0.638397,-0.61736 0.285727,0 0.573006,0.27781 0.638397,0.61736 0.08342,0.43316 -0.107061,0.61736 -0.638397,0.61736 -0.531336,0 -0.721815,-0.1842 -0.638397,-0.61736 z m -16.60468,-2.68218 c -0.428822,-0.5167 -0.185419,-0.93379 0.54493,-0.93379 0.525533,0 0.643954,0.90941 0.157565,1.21002 -0.172043,0.10632 -0.488166,-0.018 -0.702495,-0.27623 z m 5.098162,-1.05219 c -1.283527,-1.28353 -1.273093,-3.42366 0.02166,-4.44211 1.988151,-1.56388 4.714924,-0.28442 4.714924,2.21233 0,1.59562 -0.93171,2.67391 -2.531721,2.93003 -1.080596,0.17297 -1.448476,0.0561 -2.204861,-0.70025 z"
         id="path836"
         inkscape:connector-curvature="0" />
      <path
         style="fill:#d9ccc8;stroke-width:0.35277775"
         d="m 74.349057,158.3422 c -1.433006,-1.53815 -0.497025,-3.81403 1.568563,-3.81403 1.512255,0 2.29825,0.78599 2.29825,2.29825 0,2.09343 -2.438207,3.04921 -3.866813,1.51578 z m -5.873895,-0.0851 c -0.35125,-0.91535 0.141069,-1.67188 1.007882,-1.5488 0.583047,0.0828 0.795327,0.34834 0.795327,0.99489 0,0.64654 -0.21228,0.91208 -0.795327,0.99488 -0.477054,0.0677 -0.880388,-0.10873 -1.007882,-0.44097 z m 19.611354,-3.03668 c -0.774651,-1.44745 0.474497,-2.8032 2.105752,-2.28546 1.659693,0.52676 1.092728,3.00434 -0.68751,3.00434 -0.678842,0 -1.165537,-0.2467 -1.418242,-0.71888 z m -15.98546,-5.86631 c -0.405918,-0.40592 -0.256907,-0.82315 0.293981,-0.82315 0.291042,0 0.529167,0.23813 0.529167,0.52917 0,0.55089 -0.41723,0.6999 -0.823148,0.29398 z m 14.757869,-0.11759 c -0.287692,-0.4655 0.134129,-1.12609 0.553543,-0.86688 0.428489,0.26482 0.425705,1.21966 -0.0036,1.21966 -0.182577,0 -0.430071,-0.15875 -0.549987,-0.35278 z m -8.55486,-1.64475 c -0.61803,-0.24938 -0.551543,-1.76511 0.08819,-2.0106 0.852537,-0.32715 1.5875,0.14023 1.5875,1.00952 0,0.62084 -0.760416,1.40162 -1.17538,1.20687 -0.03264,-0.0153 -0.25778,-0.10792 -0.500314,-0.20579 z m 6.857117,-1.75809 c -0.460057,-0.46005 -0.240415,-0.83049 0.492419,-0.83049 0.410543,0 0.673316,0.18491 0.595312,0.41892 -0.171842,0.51553 -0.760892,0.73841 -1.087731,0.41157 z m -16.823089,-3.47633 c 0,-0.29104 0.238125,-0.52916 0.529167,-0.52916 0.291042,0 0.529166,0.23812 0.529166,0.52916 0,0.29105 -0.238124,0.52917 -0.529166,0.52917 -0.291042,0 -0.529167,-0.23812 -0.529167,-0.52917 z m 5.997222,-0.0703 c -1.368083,-0.49387 -2.145625,-2.58134 -1.54475,-4.14719 0.619037,-1.61319 3.87773,-1.8919 4.908795,-0.41985 1.631257,2.32894 -0.720289,5.52141 -3.364045,4.56704 z m 11.507364,-0.1182 c -2.065271,-0.61837 -3.746254,-2.98857 -3.746254,-5.28224 0,-1.03512 1.197457,-3.87784 1.633484,-3.87784 0.651556,0 4.496513,2.37652 6.065404,3.74895 2.624074,2.29547 2.82092,2.7897 1.613201,4.05028 -1.430745,1.49338 -3.463368,1.99036 -5.565835,1.36085 z"
         id="path834"
         inkscape:connector-curvature="0" />
      <path
         style="fill:#cfc1bd;stroke-width:0.35277775"
         d="m 74.36092,158.18476 c -0.402138,-0.51124 -0.73116,-1.12483 -0.73116,-1.36354 0,-0.92087 1.460335,-2.29305 2.440372,-2.29305 1.954325,0 2.865524,2.45521 1.440183,3.88055 -0.984547,0.98455 -2.270727,0.89308 -3.149395,-0.22396 z m -5.90575,0.0202 c -0.117457,-0.30609 0.04628,-0.81636 0.36385,-1.13393 0.53469,-0.53469 0.620123,-0.53469 1.154813,0 0.721248,0.72125 0.390198,1.69045 -0.577407,1.69045 -0.400234,0 -0.823799,-0.25044 -0.941256,-0.55652 z m 19.873663,-2.50089 c -0.129352,-0.12935 -0.235186,-0.68838 -0.235186,-1.24228 0,-1.25186 1.402786,-2.08361 2.282608,-1.35343 0.711963,0.59088 0.699652,2.34122 -0.0184,2.61676 -0.736799,0.28274 -1.735592,0.27238 -2.029017,-0.0211 z M 72.091465,149.3445 c -0.397293,-0.39729 -0.241967,-0.81356 0.303572,-0.81356 0.291042,0 0.529167,0.14939 0.529167,0.33196 0,0.44485 -0.550894,0.76345 -0.832739,0.4816 z m 14.816666,0 c -0.397293,-0.39729 -0.241967,-0.81356 0.303572,-0.81356 0.291042,0 0.529167,0.14939 0.529167,0.33196 0,0.44485 -0.550894,0.76345 -0.832739,0.4816 z m -8.917069,-2.40003 c -0.121911,-0.31769 -0.05869,-0.74058 0.140494,-0.93977 0.575064,-0.57506 1.671814,-0.18749 1.671814,0.5908 0,0.89735 -1.491656,1.18458 -1.812308,0.34897 z m 7.486015,-1.1884 c -0.151967,-0.24589 -0.181031,-0.54234 -0.06459,-0.65878 0.315723,-0.31572 0.659966,0.14862 0.48944,0.6602 -0.119495,0.35849 -0.202589,0.35821 -0.424851,-10e-4 z m -17.138984,-3.39874 c 0,-0.32338 0.170656,-0.53107 0.379236,-0.46155 0.20858,0.0695 0.379236,0.27723 0.379236,0.46155 0,0.18433 -0.170656,0.39203 -0.379236,0.46155 -0.20858,0.0695 -0.379236,-0.13817 -0.379236,-0.46155 z m 6.123163,-0.1767 c -0.96154,-0.38385 -1.88983,-1.69852 -1.88983,-2.67644 0,-0.41573 0.329022,-1.17416 0.73116,-1.68539 1.032899,-1.31312 3.149225,-1.31312 4.182124,0 0.947458,1.2045 0.926679,2.34385 -0.06259,3.43202 -0.941518,1.03565 -1.923361,1.34398 -2.960864,0.92981 z m 11.394083,-0.16149 c -1.829259,-0.65222 -2.864111,-1.69597 -3.376226,-3.40526 -0.676585,-2.25824 0.285335,-5.25238 1.687418,-5.25238 1.361655,0 8.160449,5.29337 8.160449,6.35352 0,0.55897 -2.157893,2.0914 -3.450538,2.4504 -1.574695,0.43734 -1.354343,0.44801 -3.021103,-0.14628 z"
         id="path832"
         inkscape:connector-curvature="0" />
      <path
         style="fill:#cbbdb8;stroke-width:0.35277775"
         d="m 74.688093,158.40872 c -0.958744,-0.95874 -0.919306,-2.6325 0.0785,-3.33138 1.106454,-0.77499 2.258101,-0.68172 2.900112,0.23488 0.806866,1.15196 0.67169,2.24336 -0.380349,3.0709 -1.161981,0.91401 -1.704502,0.91936 -2.598258,0.0256 z m -5.984397,-0.16093 c -0.52498,-0.63257 -0.191117,-1.25018 0.675807,-1.25018 0.789287,0 1.166315,0.82616 0.624356,1.36812 -0.523287,0.52329 -0.787909,0.49928 -1.300163,-0.11794 z m 19.746531,-2.8331 c -0.254322,-0.30644 -0.340602,-0.90216 -0.20748,-1.43256 0.194087,-0.7733 0.396145,-0.89171 1.36231,-0.79833 0.875501,0.0846 1.160734,0.29524 1.249698,0.92281 0.220119,1.55275 -1.448231,2.46035 -2.404528,1.30808 z m -16.231579,-6.53097 c 0,-0.19403 0.15875,-0.35278 0.352778,-0.35278 0.194028,0 0.352778,0.15875 0.352778,0.35278 0,0.19403 -0.15875,0.35278 -0.352778,0.35278 -0.194028,0 -0.352778,-0.15875 -0.352778,-0.35278 z m 14.816666,-0.0208 c 0,-0.20548 0.15875,-0.27548 0.352778,-0.15557 0.194028,0.11992 0.352778,0.28804 0.352778,0.3736 0,0.0856 -0.15875,0.15557 -0.352778,0.15557 -0.194028,0 -0.352778,-0.16812 -0.352778,-0.3736 z m -8.906123,-1.83126 c -0.262689,-0.71433 0.09793,-1.32292 0.78389,-1.32292 0.685961,0 1.058096,0.60859 0.808924,1.32292 -0.0846,0.24253 -0.441106,0.44097 -0.792234,0.44097 -0.351128,0 -0.711389,-0.19844 -0.80058,-0.44097 z m 7.142234,-1.6757 c 0,-0.19402 0.15875,-0.35277 0.352778,-0.35277 0.194028,0 0.352778,0.15875 0.352778,0.35277 0,0.19403 -0.15875,0.35278 -0.352778,0.35278 -0.194028,0 -0.352778,-0.15875 -0.352778,-0.35278 z m -16.738321,-2.79209 c -0.113586,-0.18378 -0.05615,-0.42709 0.127636,-0.54067 0.183786,-0.11359 0.42709,-0.0562 0.540676,0.12763 0.113586,0.18379 0.05615,0.42709 -0.127637,0.54068 -0.183785,0.11359 -0.427089,0.0562 -0.540675,-0.12764 z m 4.730988,-1.52943 c -1.207548,-1.95529 -0.0534,-4.14514 2.184674,-4.14514 1.298431,0 2.767104,1.40431 2.767104,2.64583 0,1.34905 -1.464368,2.64583 -2.987761,2.64583 -1.036529,0 -1.379643,-0.20029 -1.964017,-1.14652 z m 11.246694,0.27864 c -1.404421,-0.95432 -2.061583,-2.38684 -2.061583,-4.49394 0,-1.45112 0.830947,-3.45762 1.431898,-3.45762 0.958306,0 4.075011,1.98939 6.133492,3.91499 2.148533,2.00985 2.268611,2.20185 1.797616,2.87429 -1.526762,2.17976 -4.992241,2.73141 -7.301423,1.16228 z"
         id="path830"
         inkscape:connector-curvature="0" />
      <path
         style="fill:#b9acab;stroke-width:0.35277775"
         d="m 76.162356,157.69429 c 0.840006,-0.84001 1.018716,-1.26044 0.839421,-1.97481 -0.305659,-1.21784 0.56232,-0.95135 1.007996,0.30948 0.463127,1.3102 -0.521471,2.73254 -1.891565,2.73254 h -1.023064 z m 12.521345,-1.98811 c -0.128202,-0.1282 0.116294,-0.40728 0.543326,-0.62018 0.427031,-0.2129 0.879549,-0.78269 1.005595,-1.26621 l 0.229175,-0.87912 0.26643,0.97472 c 0.16994,0.62171 0.108757,1.1647 -0.168937,1.4993 -0.450053,0.54228 -1.466786,0.7003 -1.875589,0.29149 z M 75.217259,141.5815 c 1.570468,-0.84761 1.978247,-1.52836 1.806932,-3.01653 -0.183215,-1.59152 -0.05425,-1.65065 0.64614,-0.29624 0.416987,0.80636 0.448819,1.26216 0.148341,2.12411 -0.43847,1.2578 -1.244714,1.7942 -2.666415,1.77398 l -0.993331,-0.0141 z m 9.877777,-0.0503 c -0.582083,-0.35588 -1.296458,-0.93545 -1.5875,-1.28792 -0.508367,-0.61566 -0.484789,-0.61791 0.599843,-0.0572 2.072589,1.0715 5.418444,0.44548 6.594723,-1.23389 0.425851,-0.60799 0.509135,-0.61695 0.937474,-0.10083 0.590853,0.71193 0.180432,1.44158 -1.426338,2.53576 -1.439232,0.98009 -3.649057,1.04229 -5.118202,0.14405 z"
         id="path828"
         inkscape:connector-curvature="0" />
    </g>
  </g>
</svg>
