<?xml version="1.0" standalone="no"?><svg xmlns="http://www.w3.org/2000/svg" viewBox="0 0 1440 320"><path fill="#0099ff" fill-opacity="1" d="M0,0L16,16C32,32,64,64,96,80C128,96,160,96,192,90.7C224,85,256,75,288,96C320,117,352,171,384,170.7C416,171,448,117,480,112C512,107,544,149,576,154.7C608,160,640,128,672,149.3C704,171,736,245,768,245.3C800,245,832,171,864,122.7C896,75,928,53,960,80C992,107,1024,181,1056,213.3C1088,245,1120,235,1152,224C1184,213,1216,203,1248,208C1280,213,1312,235,1344,250.7C1376,267,1408,277,1424,282.7L1440,288L1440,320L1424,320C1408,320,1376,320,1344,320C1312,320,1280,320,1248,320C1216,320,1184,320,1152,320C1120,320,1088,320,1056,320C1024,320,992,320,960,320C928,320,896,320,864,320C832,320,800,320,768,320C736,320,704,320,672,320C640,320,608,320,576,320C544,320,512,320,480,320C448,320,416,320,384,320C352,320,320,320,288,320C256,320,224,320,192,320C160,320,128,320,96,320C64,320,32,320,16,320L0,320Z"></path></svg>