<svg width="506" height="305" viewBox="0 0 506 305" fill="none" xmlns="http://www.w3.org/2000/svg">
<path d="M340.878 183.633C340.878 232.717 301.086 272.509 252.002 272.509C202.917 272.509 163.126 232.717 163.126 183.633C163.126 134.549 202.917 94.757 252.002 94.757C301.086 94.757 340.878 134.549 340.878 183.633Z" fill="#FFD371"/>
<path d="M340.882 183.634C340.882 232.714 301.081 272.514 252.002 272.514C221.989 272.514 195.442 257.634 179.362 234.847C193.842 245.087 211.509 251.087 230.575 251.087C279.655 251.087 319.455 211.287 319.455 162.207C319.455 143.14 313.455 125.474 303.229 111.007C326.015 127.1 340.882 153.634 340.882 183.634Z" fill="#FFC552"/>
<path d="M235.655 91.0334C235.724 90.8041 235.811 90.5708 235.915 90.3334C236.623 88.7308 238.572 88.1041 240.319 87.9748C247.076 87.4774 253.724 86.9401 260.495 87.0054C262.22 87.0214 264.093 87.4228 265.187 88.7561C266.083 89.8468 266.279 91.3828 266.033 92.7734C265.699 94.6574 264.743 96.7948 263.58 98.3214C263.139 98.9014 262.624 99.4561 261.957 99.7481C261.392 99.9948 260.761 100.033 260.145 100.064C255.984 100.277 251.815 100.312 247.651 100.169C243.591 100.031 233.857 96.9654 235.655 91.0334Z" fill="#FFD371"/>
<path d="M162.394 161.225C161.82 161.223 161.218 161.227 160.708 161.493C160.012 161.854 159.633 162.614 159.314 163.331C156.573 169.511 154.929 176.543 156.801 183.041C157.284 184.719 158.034 186.386 159.348 187.535C160.662 188.686 162.64 189.205 164.208 188.437C166.458 187.335 166.89 184.382 167.124 181.887C167.593 176.867 168.424 171.882 169.606 166.979C171.108 160.763 167.192 161.235 162.394 161.225Z" fill="#FFD371"/>
<path d="M340.763 154.992C341.182 154.775 341.635 154.551 342.105 154.611C342.687 154.687 343.121 155.175 343.458 155.658C345.735 158.914 346.107 163.091 346.405 167.054C346.611 169.803 346.818 172.551 347.025 175.299C347.149 176.946 347.265 178.651 346.707 180.206C346.15 181.76 344.726 183.131 343.074 183.078C340.817 183.007 339.483 180.568 338.726 178.44C337.011 173.631 335.985 168.715 335.251 163.675C334.553 158.88 336.479 157.211 340.763 154.992Z" fill="#FFD371"/>
<path d="M253.405 131.063C226.252 127.045 207.708 155.239 207.051 179.138C206.835 187.037 208.343 195.633 214.151 200.991C219.628 206.043 227.903 207.082 235.175 205.453C249.892 202.158 263.232 192.098 269.579 178.159C275.065 166.11 276.056 148.265 266.549 137.829C263.108 134.051 258.432 131.807 253.405 131.063Z" fill="#FFEDA1"/>
<path d="M306.64 196.891C304.294 197.151 301.894 197.849 300.188 199.476C298.962 200.643 298.185 202.197 297.557 203.768C296.596 206.173 295.924 208.743 296.048 211.331C296.309 216.808 300.533 221.859 305.878 223.084C311.224 224.309 317.225 221.604 319.848 216.788C325.316 206.745 318.042 195.625 306.64 196.891Z" fill="#FFB32C"/>
<path d="M321.549 211.834C320.521 205.247 314.589 200.127 306.642 201.007C304.295 201.26 301.895 201.967 300.187 203.594C298.962 204.754 298.187 206.314 297.562 207.874C296.949 209.434 296.442 211.06 296.202 212.714C296.122 212.26 296.069 211.794 296.042 211.327C295.922 208.74 296.602 206.167 297.562 203.767C298.187 202.194 298.962 200.647 300.187 199.474C301.895 197.847 304.295 197.154 306.642 196.887C316.175 195.834 322.829 203.434 321.549 211.834Z" fill="#FFA20D"/>
<path d="M213.477 212.096C211.473 212.319 209.421 212.916 207.96 214.307C206.913 215.304 206.249 216.634 205.712 217.976C204.889 220.034 204.314 222.231 204.42 224.443C204.644 229.127 208.254 233.446 212.826 234.494C217.397 235.54 222.529 233.228 224.772 229.11C229.446 220.522 223.228 211.014 213.477 212.096Z" fill="#FFB32C"/>
<path d="M226.162 225.261C225.122 219.807 220.122 215.634 213.482 216.367C211.468 216.594 209.415 217.181 207.962 218.581C206.908 219.581 206.242 220.899 205.708 222.247C205.242 223.434 204.842 224.674 204.615 225.941C204.508 225.447 204.442 224.954 204.415 224.447C204.308 222.233 204.895 220.034 205.708 217.981C206.242 216.634 206.908 215.301 207.962 214.314C209.415 212.914 211.468 212.314 213.482 212.101C221.775 211.181 227.522 217.941 226.162 225.261Z" fill="#FFA20D"/>
<path d="M178.174 170.4C176.924 170.539 175.644 170.911 174.734 171.779C174.082 172.4 173.667 173.229 173.332 174.067C172.819 175.348 172.46 176.719 172.527 178.097C172.667 181.019 174.918 183.711 177.768 184.364C180.618 185.017 183.818 183.576 185.215 181.008C188.13 175.653 184.254 169.725 178.174 170.4Z" fill="#FFB32C"/>
<path d="M270.013 119.404C269.029 119.514 268.023 119.807 267.305 120.49C266.792 120.979 266.465 121.631 266.203 122.291C265.799 123.299 265.516 124.378 265.568 125.464C265.677 127.763 267.451 129.882 269.695 130.396C271.936 130.911 274.456 129.775 275.556 127.754C277.851 123.54 274.799 118.874 270.013 119.404Z" fill="#FFB32C"/>
<path d="M186.082 178.611C185.442 175.211 182.322 172.611 178.175 173.064C176.922 173.211 175.642 173.584 174.735 174.451C174.082 175.064 173.669 175.891 173.335 176.731C173.042 177.464 172.789 178.238 172.642 179.011C172.575 178.718 172.535 178.411 172.522 178.104C172.455 176.718 172.815 175.344 173.335 174.064C173.669 173.224 174.082 172.398 174.735 171.784C175.642 170.918 176.922 170.544 178.175 170.398C183.349 169.824 186.935 174.038 186.082 178.611Z" fill="#FFA20D"/>
<path d="M275.536 244.361C274.693 244.454 273.832 244.705 273.218 245.289C272.778 245.709 272.498 246.268 272.273 246.832C271.928 247.696 271.685 248.618 271.73 249.548C271.824 251.516 273.341 253.33 275.262 253.77C277.181 254.21 279.338 253.238 280.281 251.508C282.244 247.901 279.632 243.906 275.536 244.361Z" fill="#FFB32C"/>
<path d="M280.864 249.893C280.433 247.601 278.33 245.851 275.536 246.156C274.692 246.255 273.829 246.507 273.218 247.089C272.778 247.504 272.5 248.06 272.276 248.627C272.077 249.121 271.906 249.643 271.808 250.163C271.762 249.965 271.736 249.757 271.726 249.552C271.681 248.617 271.925 247.692 272.276 246.829C272.5 246.263 272.778 245.707 273.218 245.293C273.829 244.709 274.692 244.459 275.536 244.36C279.021 243.973 281.438 246.811 280.864 249.893Z" fill="#FFA20D"/>
<path d="M276.175 126.158C275.562 123.624 273.162 121.731 270.015 122.078C269.028 122.184 268.028 122.478 267.31 123.158C266.788 123.651 266.468 124.304 266.203 124.958C266.002 125.451 265.842 125.958 265.722 126.478C265.643 126.144 265.575 125.811 265.562 125.464C265.522 124.384 265.802 123.304 266.203 122.291C266.468 121.638 266.788 120.984 267.31 120.491C268.028 119.811 269.028 119.518 270.015 119.411C274.203 118.944 277.055 122.451 276.175 126.158Z" fill="#FFA20D"/>
<path d="M311.205 130.093C309.955 130.232 308.677 130.604 307.765 131.472C307.113 132.093 306.698 132.923 306.363 133.76C305.85 135.041 305.491 136.412 305.558 137.791C305.697 140.712 307.95 143.404 310.798 144.057C313.649 144.711 316.847 143.269 318.246 140.701C321.162 135.347 317.285 129.419 311.205 130.093Z" fill="#FFB32C"/>
<path d="M319.095 138.341C318.429 134.967 315.322 132.394 311.202 132.861C309.949 132.994 308.681 133.367 307.762 134.234C307.109 134.861 306.694 135.687 306.361 136.527C306.081 137.247 305.829 138.007 305.694 138.767C305.615 138.447 305.574 138.127 305.562 137.794C305.495 136.407 305.854 135.047 306.361 133.754C306.694 132.927 307.109 132.087 307.762 131.474C308.681 130.607 309.949 130.234 311.202 130.087C316.401 129.514 319.989 133.754 319.095 138.341Z" fill="#FFA20D"/>
<path d="M198.95 124.104C196.952 126.284 195.186 128.814 194.648 131.396C194.266 133.246 194.542 134.985 194.966 136.606C195.616 139.09 196.638 141.44 198.407 143.124C202.15 146.688 209.275 146.576 214.991 142.862C220.707 139.149 224.516 132.16 223.858 126.592C222.482 114.984 208.663 113.5 198.95 124.104Z" fill="#FFB32C"/>
<path d="M223.612 125.171C218.937 119.533 208.765 120.401 201.13 128.726C199.136 130.903 197.364 133.433 196.825 136.014C196.446 137.873 196.722 139.615 197.144 141.229C197.198 141.439 197.258 141.662 197.325 141.866C196.192 140.366 195.472 138.523 194.969 136.609C194.541 134.982 194.266 133.241 194.65 131.394C195.188 128.813 196.96 126.283 198.956 124.106C208.256 113.935 221.32 114.889 223.612 125.171Z" fill="#FFA20D"/>
<path d="M294.391 152.543C290.806 156.394 287.48 160.46 284.378 164.71C281.844 168.178 287.626 171.507 290.135 168.074C292.903 164.284 295.907 160.691 299.104 157.258C302.027 154.12 297.322 149.395 294.391 152.543Z" fill="#E29417"/>
<path d="M214.39 156.574C210.805 160.425 207.481 164.492 204.377 168.74C201.844 172.209 207.626 175.538 210.134 172.105C212.902 168.316 215.906 164.722 219.105 161.289C222.026 158.152 217.322 153.426 214.39 156.574Z" fill="#E29417"/>
<path d="M237.416 175.011C238.328 173.665 242.238 168.363 244.036 170.004L247.411 173.081C247.886 173.516 248.638 173.443 249.007 172.916C250.136 171.312 251.495 169.871 253.031 168.651C253.214 168.505 253.431 168.355 253.66 168.401C253.851 168.44 253.987 168.604 254.106 168.759L256.938 172.417C257.387 172.997 258.26 172.963 258.683 172.363C259.642 170.999 260.675 169.687 261.776 168.435C262.223 167.927 263.02 167.975 263.442 168.504C264.692 170.075 265.751 171.797 266.587 173.621" stroke="#E29417" stroke-width="2.66667" stroke-miterlimit="10" stroke-linecap="round"/>
<path d="M284.037 157.635C287.888 161.22 291.955 164.546 296.203 167.648C299.672 170.182 303.001 164.4 299.568 161.891C295.779 159.123 292.185 156.119 288.752 152.922C285.616 149.999 280.891 154.703 284.037 157.635Z" fill="#E29417"/>
<path d="M204.038 161.666C207.887 165.252 211.955 168.576 216.203 171.68C219.671 174.213 223.002 168.432 219.567 165.922C215.779 163.154 212.185 160.15 208.751 156.952C205.615 154.03 200.89 158.734 204.038 161.666Z" fill="#E29417"/>
<path d="M71.0613 155.58L40.832 205.927H70.384L71.0613 155.58ZM76.7013 266.32C72.64 261.2 70.6107 252.256 70.6107 239.492H28.876C19.0987 239.492 11.8427 237.051 7.10534 232.164C2.36934 227.281 0 220.977 0 213.255C0 205.063 2.03067 197.655 6.09067 191.036C14.36 177.485 26.3947 158.576 42.1867 134.307C50.004 122.333 60.7587 116.343 74.4453 116.343C77.3 116.343 80.684 116.384 84.5973 116.461C88.5053 116.543 91.6653 116.579 94.072 116.579C105.049 116.579 112.493 118.511 116.405 122.371C120.315 126.233 122.271 132.969 122.271 142.58V204.981C126.632 205.453 130.055 206.363 132.536 207.7C135.016 209.041 136.744 210.891 137.725 213.255C138.7 215.617 139.191 218.773 139.191 222.709C139.191 228.7 137.911 232.836 135.355 235.119C132.796 237.404 128.436 238.781 122.271 239.255C122.271 251.705 120.089 260.609 115.728 265.964C111.365 271.324 104.823 274 96.1027 274C87.2267 274 80.7613 271.441 76.7013 266.32" fill="white"/>
<path d="M437.061 157.58L406.832 207.927H436.384L437.061 157.58ZM442.701 268.32C438.64 263.2 436.611 254.256 436.611 241.492H394.876C385.099 241.492 377.843 239.051 373.105 234.164C368.369 229.281 366 222.977 366 215.255C366 207.063 368.031 199.655 372.091 193.036C380.36 179.485 392.395 160.576 408.187 136.307C416.004 124.333 426.759 118.343 440.445 118.343C443.3 118.343 446.684 118.384 450.597 118.461C454.505 118.543 457.665 118.579 460.072 118.579C471.049 118.579 478.493 120.511 482.405 124.371C486.315 128.233 488.271 134.969 488.271 144.58V206.981C492.632 207.453 496.055 208.363 498.536 209.7C501.016 211.041 502.744 212.891 503.725 215.255C504.7 217.617 505.191 220.773 505.191 224.709C505.191 230.7 503.911 234.836 501.355 237.119C498.796 239.404 494.436 240.781 488.271 241.255C488.271 253.705 486.089 262.609 481.728 267.964C477.365 273.324 470.823 276 462.103 276C453.227 276 446.761 273.441 442.701 268.32" fill="white"/>
<path d="M105.925 19.6426C111.222 15.9426 118.409 12.5319 126.625 10.0933C135.536 7.44928 144.056 6.42394 150.79 6.88661" stroke="#E00E6E" stroke-width="2.66667" stroke-miterlimit="10"/>
<path d="M158.261 26.6797C158.261 41.161 146.521 52.9024 132.038 52.9024C117.557 52.9024 105.817 41.161 105.817 26.6797C105.817 12.1984 117.557 0.458372 132.038 0.458372C146.521 0.458372 158.261 12.1984 158.261 26.6797Z" fill="#FC5185"/>
<path d="M141.492 7.28127C141.492 8.86927 138.842 10.1586 135.573 10.1586C132.305 10.1586 129.656 8.86927 129.656 7.28127C129.656 5.69193 132.305 4.40393 135.573 4.40393C138.842 4.40393 141.492 5.69193 141.492 7.28127Z" fill="#E00E6E"/>
<path d="M139.19 43.4902C139.19 45.9636 135.989 47.9702 132.039 47.9702C128.089 47.9702 124.887 45.9636 124.887 43.4902C124.887 41.0156 128.089 39.0102 132.039 39.0102C135.989 39.0102 139.19 41.0156 139.19 43.4902Z" fill="#E00E6E"/>
<path d="M111.406 29.4382C109.893 28.9528 109.477 26.0355 110.476 22.9235C111.474 19.8115 113.51 17.6822 115.024 18.1675C116.537 18.6528 116.953 21.5702 115.954 24.6822C114.956 27.7942 112.918 29.9235 111.406 29.4382Z" fill="#E00E6E"/>
<path d="M143.822 30.5221C140.952 29.6008 139.434 26.3315 140.433 23.2181C141.433 20.1061 144.569 18.3301 147.44 19.2515C150.31 20.1728 151.828 23.4435 150.829 26.5555C149.83 29.6675 146.693 31.4435 143.822 30.5221Z" fill="#E00E6E"/>
<path d="M126.247 25.8639C124.636 25.3466 123.784 23.5119 124.345 21.7652C124.905 20.0186 126.665 19.0212 128.276 19.5386C129.888 20.0559 130.74 21.8906 130.179 23.6372C129.617 25.3839 127.857 26.3812 126.247 25.8639Z" fill="#E00E6E"/>
<path d="M150.79 6.88677C158.249 7.39743 163.516 9.73343 164.697 13.7121C166.944 21.2828 153.541 31.9388 134.762 37.5121C115.982 43.0841 98.9371 41.4654 96.6904 33.8934C95.4277 29.6348 99.1144 24.4001 105.925 19.6428" stroke="#E00E6E" stroke-width="2.66667" stroke-miterlimit="10"/>
<path d="M404 61.7787C404 72.1493 395.493 80.556 385 80.556C374.507 80.556 366 72.1493 366 61.7787C366 51.408 374.507 43 385 43C395.493 43 404 51.408 404 61.7787Z" fill="#43DDE6"/>
<path d="M388.69 49.1394C388.69 50.65 386.621 51.8754 384.069 51.8754C381.515 51.8754 379.446 50.65 379.446 49.1394C379.446 47.6287 381.515 46.4047 384.069 46.4047C386.621 46.4047 388.69 47.6287 388.69 49.1394Z" fill="#139FE5"/>
<path d="M398.099 65.4603C396.334 65.6456 394.684 63.7376 394.419 61.199C394.152 58.6603 395.368 56.4523 397.134 56.267C398.902 56.0816 400.548 57.9896 400.815 60.5283C401.08 63.067 399.866 65.275 398.099 65.4603Z" fill="#139FE5"/>
<path d="M383.741 76.7922C381.202 77.0589 378.929 75.2162 378.661 72.6789C378.394 70.1389 380.237 67.8656 382.776 67.5989C385.314 67.3322 387.589 69.1749 387.854 71.7136C388.121 74.2522 386.278 76.5256 383.741 76.7922Z" fill="#139FE5"/>
<path d="M372.119 64.6881C370.728 64.8334 369.385 62.8948 369.119 60.3561C368.852 57.8174 369.763 55.6401 371.153 55.4948C372.544 55.3494 373.887 57.2894 374.153 59.8268C374.42 62.3654 373.509 64.5428 372.119 64.6881Z" fill="#139FE5"/>
<path d="M423.754 70.5677C422.36 77.0768 404.068 78.6797 382.896 74.1479C361.725 69.6161 345.691 60.6657 347.084 54.1566C348.106 49.3814 358.224 47.2467 371.9 48.2375C371.311 48.7991 370.757 49.3982 370.243 50.031C370.358 50.0368 370.474 50.043 370.59 50.0493C359.562 49.4436 351.619 51.1659 350.814 54.9282C349.642 60.4007 364.015 68.1168 382.917 72.1628C401.819 76.2087 418.092 75.0523 419.263 69.5799C420.065 65.8349 413.586 61.0391 403.359 57.0879C403.135 56.2501 402.856 55.435 402.525 54.647C415.98 59.3871 424.802 65.6688 423.754 70.5677Z" fill="#139FE5"/>
<circle cx="95.5" cy="89.5" r="2.5" fill="#43DDE6"/>
<circle cx="151" cy="300" r="5" fill="#FC5185"/>
<circle cx="363.5" cy="110.5" r="2.5" fill="#FC5185"/>
<circle cx="251" cy="23" r="2" fill="#43DDE6"/>
<circle cx="383.5" cy="276.5" r="3.5" fill="#43DDE6"/>
</svg>
