<?xml version="1.0" encoding="UTF-8" standalone="no"?>
<!-- Created with Inkscape (http://www.inkscape.org/) -->

<svg
   xmlns:dc="http://purl.org/dc/elements/1.1/"
   xmlns:cc="http://creativecommons.org/ns#"
   xmlns:rdf="http://www.w3.org/1999/02/22-rdf-syntax-ns#"
   xmlns:svg="http://www.w3.org/2000/svg"
   xmlns="http://www.w3.org/2000/svg"
   xmlns:xlink="http://www.w3.org/1999/xlink"
   xmlns:sodipodi="http://sodipodi.sourceforge.net/DTD/sodipodi-0.dtd"
   xmlns:inkscape="http://www.inkscape.org/namespaces/inkscape"
   width="16.404167mm"
   height="26.45833mm"
   viewBox="0 0 16.404167 26.45833"
   version="1.1"
   id="svg8"
   inkscape:version="0.92.3 (2405546, 2018-03-11)"
   sodipodi:docname="astronaut.svg">
  <defs
     id="defs2" />
  <sodipodi:namedview
     id="base"
     pagecolor="#ffffff"
     bordercolor="#666666"
     borderopacity="1.0"
     inkscape:pageopacity="0.0"
     inkscape:pageshadow="2"
     inkscape:zoom="0.35"
     inkscape:cx="-497.57142"
     inkscape:cy="-24.285707"
     inkscape:document-units="mm"
     inkscape:current-layer="layer1"
     showgrid="false"
     fit-margin-top="0"
     fit-margin-left="0"
     fit-margin-right="0"
     fit-margin-bottom="0"
     inkscape:window-width="1366"
     inkscape:window-height="745"
     inkscape:window-x="-8"
     inkscape:window-y="-8"
     inkscape:window-maximized="1" />
  <metadata
     id="metadata5">
    <rdf:RDF>
      <cc:Work
         rdf:about="">
        <dc:format>image/svg+xml</dc:format>
        <dc:type
           rdf:resource="http://purl.org/dc/dcmitype/StillImage" />
        <dc:title></dc:title>
      </cc:Work>
    </rdf:RDF>
  </metadata>
  <g
     inkscape:label="Layer 1"
     inkscape:groupmode="layer"
     id="layer1"
     transform="translate(-78.732437,-115.94941)">
    <image
       sodipodi:absref="E:\strony\me\src\img\astronaut.png"
       y="115.94941"
       x="78.732437"
       id="image823"
       xlink:href="file:///E:/strony/me/src/img/astronaut.png"
       preserveAspectRatio="none"
       height="26.458334"
       width="16.404167" />
    <g
       id="g826">
      <path
         style="fill:#e3e2e2;stroke-width:0.26458335"
         d="m 79.262593,142.20931 c 0.0023,-0.46069 1.085901,-1.9235 1.835276,-2.47754 1.037024,-0.76671 1.160824,-2.20893 0.214256,-2.49598 -0.327422,-0.0993 -0.874516,-0.43474 -1.215765,-0.74544 -1.132247,-1.03087 -1.363923,-1.82948 -1.363923,-4.70156 0,-3.17577 0.520236,-4.61574 1.997425,-5.5287 0.874167,-0.54026 0.888742,-0.57672 0.479921,-1.20066 -0.231893,-0.35392 -0.481701,-1.39191 -0.555128,-2.30665 -0.225035,-2.80346 1.306616,-5.39581 3.804729,-6.43959 1.119955,-0.46795 3.830318,-0.46795 4.950273,0 2.498113,1.04378 4.029764,3.63613 3.804729,6.43959 -0.07343,0.91474 -0.323235,1.95273 -0.555128,2.30665 -0.408821,0.62394 -0.394246,0.6604 0.479921,1.20066 1.477189,0.91296 1.997425,2.35293 1.997425,5.5287 0,2.87208 -0.231676,3.67069 -1.363923,4.70156 -0.341249,0.3107 -0.888343,0.64615 -1.215765,0.74544 -0.946568,0.28705 -0.822768,1.72927 0.214256,2.49598 0.749375,0.55404 1.83298,2.01685 1.835276,2.47754 5.44e-4,0.10914 -3.451823,0.19843 -7.671927,0.19843 -4.220105,0 -7.672472,-0.0893 -7.671928,-0.19843 z m 14.551094,-12.50157 c 0,-0.14552 -0.416718,-0.26458 -0.926041,-0.26458 -0.509323,0 -0.926042,0.11906 -0.926042,0.26458 0,0.14552 0.416719,0.26459 0.926042,0.26459 0.509323,0 0.926041,-0.11907 0.926041,-0.26459 z"
         id="path840"
         inkscape:connector-curvature="0" />
      <path
         style="fill:#d3d3d3;stroke-width:0.26458335"
         d="m 79.526187,141.89888 c 0,-0.63001 1.165401,-2.05132 1.863704,-2.27295 0.390443,-0.12392 0.51737,-0.40355 0.516831,-1.13862 -6.23e-4,-0.84905 -0.125469,-1.04241 -0.97075,-1.50352 -1.706378,-0.93085 -2.059488,-1.68266 -2.160665,-4.60027 -0.110946,-3.19933 0.216088,-4.50038 1.390389,-5.53143 0.493192,-0.43303 1.04305,-0.8361 1.221907,-0.89572 0.243154,-0.0811 0.212678,-0.32598 -0.120803,-0.97086 -2.118097,-4.09595 0.980517,-9.0361 5.667721,-9.0361 4.687203,0 7.785817,4.94015 5.66772,9.0361 -0.333481,0.64488 -0.363957,0.88981 -0.120803,0.97086 0.178857,0.0596 0.728715,0.46269 1.221907,0.89572 1.174301,1.03105 1.501335,2.3321 1.390389,5.53143 -0.101177,2.91761 -0.454287,3.66942 -2.160664,4.60027 -0.845282,0.46111 -0.970128,0.65447 -0.970751,1.50352 -5.29e-4,0.73507 0.126388,1.0147 0.516831,1.13862 0.698302,0.22163 1.863704,1.64294 1.863704,2.27295 0,0.48998 -0.274903,0.50886 -7.408333,0.50886 -7.133431,0 -7.408334,-0.0189 -7.408334,-0.50886 z m 6.085417,-0.67497 c 0,-0.26989 -1.598275,-0.93283 -2.248959,-0.93283 -0.650683,0 -2.248958,0.66294 -2.248958,0.93283 0,0.069 1.012031,0.1255 2.248958,0.1255 1.236928,0 2.248959,-0.0565 2.248959,-0.1255 z m 7.14375,0 c 0,-0.26989 -1.598275,-0.93283 -2.248958,-0.93283 -0.650684,0 -2.248959,0.66294 -2.248959,0.93283 0,0.069 1.012031,0.1255 2.248959,0.1255 1.236927,0 2.248958,-0.0565 2.248958,-0.1255 z m -5.810532,-5.43075 c 0.475081,0 0.518865,0.1914 0.518865,2.26816 v 2.26816 l 0.6883,-0.54141 c 0.378564,-0.29778 1.090119,-0.6168 1.581231,-0.70893 l 0.892931,-0.16752 0.07242,-4.4035 0.07241,-4.4035 1.521354,-0.0794 c 1.373029,-0.0716 1.521354,-0.13681 1.521354,-0.66873 0,-0.79853 -0.658708,-1.68204 -1.627619,-2.18308 -0.717205,-0.37089 -0.848535,-0.37226 -1.245467,-0.013 -0.823925,0.74564 -2.808101,1.47737 -4.00608,1.47737 -1.19798,0 -3.182156,-0.73173 -4.006081,-1.47737 -0.396932,-0.35922 -0.528262,-0.35785 -1.245467,0.013 -1.434049,0.74158 -1.627619,1.28741 -1.627619,4.58957 0,2.82801 0.03639,3.03225 0.649432,3.64529 0.357187,0.35719 0.773906,0.64943 0.926041,0.64943 0.176485,0 0.27661,-1.10803 0.27661,-3.06111 0,-3.02314 0.0074,-3.06006 0.595313,-2.97656 0.586744,0.0833 0.596354,0.14793 0.667727,4.48805 l 0.07241,4.4035 0.900893,0.16901 c 0.495491,0.0929 1.177279,0.39329 1.515085,0.66741 l 0.614192,0.49841 0.07645,-2.22665 c 0.06899,-2.00953 0.12704,-2.22664 0.595313,-2.22664 z m 6.219434,-0.38485 c 0.566616,-0.56662 0.649431,-0.88714 0.649431,-2.51354 v -1.86411 h -0.926041 -0.926042 v 2.51354 c 0,1.57216 0.103597,2.51354 0.27661,2.51354 0.152135,0 0.568854,-0.29224 0.926042,-0.64943 z m -3.348472,-8.95716 c 2.247703,-1.48746 2.903534,-4.72933 1.419693,-7.01775 -0.845214,-1.30352 -2.834891,-2.42566 -4.300956,-2.42566 -2.265876,0 -4.985248,2.34137 -5.05512,4.35244 -0.103035,2.96558 0.883042,4.69882 3.241443,5.69752 1.139987,0.48274 3.511978,0.1763 4.69494,-0.60655 z m -5.659389,-1.30485 -1.058333,-0.613 -0.07685,-2.17528 c -0.04227,-1.1964 -0.0255,-2.17528 0.03725,-2.17528 0.06275,0 0.633116,0.23551 1.267471,0.52336 1.511942,0.68606 3.705221,0.68606 5.217163,0 0.634355,-0.28785 1.264248,-0.52336 1.399762,-0.52336 0.138272,0 0.21267,0.94684 0.169544,2.15774 l -0.07685,2.15773 -1.058333,0.55065 c -0.704347,0.36646 -1.677809,0.57736 -2.910417,0.63054 -1.547266,0.0667 -2.026265,-0.021 -2.910417,-0.5331 z"
         id="path838"
         inkscape:connector-curvature="0" />
      <path
         style="fill:#f5b84a;stroke-width:0.26458335"
         d="m 79.526187,142.13002 c 0,-0.62849 0.842293,-1.8377 1.586145,-2.27711 0.658147,-0.38877 0.795105,-0.64001 0.795105,-1.45855 0,-0.8762 -0.109077,-1.04063 -0.957278,-1.44313 -1.639525,-0.77801 -1.951161,-1.61798 -1.951161,-5.25911 0,-2.68137 0.08016,-3.30646 0.515547,-4.02052 0.395699,-0.64897 1.464821,-1.58528 2.042592,-1.78886 0.02562,-0.009 -0.194547,-0.72967 -0.489252,-1.60143 -1.409629,-4.1698 1.516877,-8.32028 5.866636,-8.32028 4.349758,0 7.276264,4.15048 5.866635,8.32028 -0.294705,0.87176 -0.514869,1.5924 -0.489252,1.60143 0.57777,0.20358 1.646893,1.13989 2.042592,1.78886 0.435392,0.71406 0.515547,1.33915 0.515547,4.02052 0,3.64113 -0.311636,4.4811 -1.951161,5.25911 -0.848201,0.4025 -0.957278,0.56693 -0.957278,1.44313 0,0.81854 0.136958,1.06978 0.795105,1.45855 0.743852,0.43941 1.586145,1.64862 1.586145,2.27711 0,0.1873 -2.412172,0.27772 -7.408333,0.27772 -4.996162,0 -7.408334,-0.0904 -7.408334,-0.27772 z m 5.593084,-1.31858 c -0.406943,-0.33902 -1.019126,-0.52036 -1.756626,-0.52036 -0.737499,0 -1.349683,0.18134 -1.756626,0.52036 l -0.624624,0.52037 h 2.38125 2.38125 z m 7.143751,0 c -0.406943,-0.33902 -1.019127,-0.52036 -1.756626,-0.52036 -0.7375,0 -1.349683,0.18134 -1.756626,0.52036 l -0.624624,0.52037 h 2.38125 2.38125 z m -5.317801,-4.7537 c 0.471818,0 0.518466,0.191 0.518466,2.12277 v 2.12277 l 0.684233,-0.44833 c 0.376328,-0.24658 1.120469,-0.51913 1.653646,-0.60566 l 0.969413,-0.15733 0.07239,-4.39392 0.07239,-4.39392 0.985942,-0.16298 c 1.515779,-0.25058 1.911984,-0.20332 1.911984,0.22806 0,0.27718 -0.279282,0.39688 -0.926041,0.39688 h -0.926042 v 2.64583 c 0,2.91568 0.188773,3.19162 1.342942,1.96306 0.597461,-0.63597 0.641433,-0.8795 0.641433,-3.55247 0,-3.11036 -0.293675,-3.90029 -1.759508,-4.7327 -0.589074,-0.33452 -0.747302,-0.30483 -1.694085,0.31788 -2.196822,1.44488 -4.918909,1.44488 -7.115731,0 -0.946783,-0.62271 -1.105011,-0.6524 -1.694085,-0.31788 -1.465833,0.83241 -1.759508,1.62234 -1.759508,4.7327 0,2.67297 0.04397,2.9165 0.641433,3.55247 1.173549,1.24919 1.342942,0.9682 1.342942,-2.22764 0,-2.72216 0.03382,-2.91042 0.522769,-2.91042 0.49692,0 0.526357,0.21893 0.595313,4.42753 l 0.07254,4.42752 0.973484,0.158 c 0.535416,0.0869 1.249791,0.3419 1.5875,0.56668 l 0.614016,0.4087 0.07685,-2.0838 c 0.06885,-1.86693 0.130805,-2.0838 0.595314,-2.0838 z m 1.499357,-8.86505 c 3.4246,-1.017 4.815694,-5.13779 2.713885,-8.03925 -2.085808,-2.87938 -6.362077,-2.87938 -8.447885,0 -2.061644,2.84601 -0.713533,7.00267 2.602275,8.02365 1.574755,0.48489 1.551844,0.48477 3.131725,0.0156 z m -3.065066,-1.70534 c -0.491452,-0.12345 -1.205827,-0.45709 -1.5875,-0.74142 -0.626471,-0.46669 -0.701415,-0.71097 -0.770722,-2.51214 l -0.07677,-1.99517 1.123175,0.5557 c 1.529135,0.75656 4.158442,0.75138 5.711099,-0.0112 l 1.12448,-0.55231 v 2.10753 2.10753 l -1.251662,0.55367 c -1.435317,0.63491 -2.983076,0.81166 -4.272097,0.48785 z"
         id="path836"
         inkscape:connector-curvature="0" />
      <path
         style="fill:#9d9d9d;stroke-width:0.26458335"
         d="m 79.526187,142.13002 c 0,-0.62849 0.842293,-1.8377 1.586145,-2.27711 0.658147,-0.38877 0.795105,-0.64001 0.795105,-1.45855 0,-0.8762 -0.109077,-1.04063 -0.957278,-1.44313 -1.639525,-0.77801 -1.951161,-1.61798 -1.951161,-5.25911 0,-2.68137 0.08016,-3.30646 0.515547,-4.02052 0.395699,-0.64897 1.464821,-1.58528 2.042592,-1.78886 0.02562,-0.009 -0.194547,-0.72967 -0.489252,-1.60143 -1.409629,-4.1698 1.516877,-8.32028 5.866636,-8.32028 4.349758,0 7.276264,4.15048 5.866635,8.32028 -0.294705,0.87176 -0.514869,1.5924 -0.489252,1.60143 0.57777,0.20358 1.646893,1.13989 2.042592,1.78886 0.435392,0.71406 0.515547,1.33915 0.515547,4.02052 0,3.64113 -0.311636,4.4811 -1.951161,5.25911 -0.848201,0.4025 -0.957278,0.56693 -0.957278,1.44313 0,0.81854 0.136958,1.06978 0.795105,1.45855 0.743852,0.43941 1.586145,1.64862 1.586145,2.27711 0,0.1873 -2.412172,0.27772 -7.408333,0.27772 -4.996162,0 -7.408334,-0.0904 -7.408334,-0.27772 z m 5.593084,-1.31858 c -0.406943,-0.33902 -1.019126,-0.52036 -1.756626,-0.52036 -0.737499,0 -1.349683,0.18134 -1.756626,0.52036 l -0.624624,0.52037 h 2.38125 2.38125 z m 7.143751,0 c -0.406943,-0.33902 -1.019127,-0.52036 -1.756626,-0.52036 -0.7375,0 -1.349683,0.18134 -1.756626,0.52036 l -0.624624,0.52037 h 2.38125 2.38125 z m -5.317801,-4.7537 c 0.471818,0 0.518466,0.191 0.518466,2.12277 v 2.12277 l 0.684233,-0.44833 c 0.376328,-0.24658 1.120469,-0.51913 1.653646,-0.60566 l 0.969413,-0.15733 0.07241,-4.39842 0.07241,-4.39843 1.183582,-0.17748 c 0.65097,-0.0976 1.302994,-0.10369 1.448943,-0.0135 0.551737,0.34099 0.2314,0.66194 -0.660681,0.66194 h -0.926042 v 2.64583 c 0,2.91568 0.188773,3.19162 1.342942,1.96306 0.597461,-0.63597 0.641433,-0.8795 0.641433,-3.55247 0,-3.11036 -0.293675,-3.90029 -1.759508,-4.7327 -0.589074,-0.33452 -0.747302,-0.30483 -1.694085,0.31788 -2.196822,1.44488 -4.918909,1.44488 -7.115731,0 -0.946783,-0.62271 -1.105011,-0.6524 -1.694085,-0.31788 -1.465833,0.83241 -1.759508,1.62234 -1.759508,4.7327 0,2.67297 0.04397,2.9165 0.641433,3.55247 1.173549,1.24919 1.342942,0.9682 1.342942,-2.22764 0,-2.72216 0.03382,-2.91042 0.522769,-2.91042 0.49692,0 0.526357,0.21893 0.595313,4.42753 l 0.07254,4.42752 0.973484,0.158 c 0.535416,0.0869 1.249791,0.3419 1.5875,0.56668 l 0.614016,0.4087 0.07685,-2.0838 c 0.06885,-1.86693 0.130805,-2.0838 0.595313,-2.0838 z m 1.499357,-8.86505 c 3.4246,-1.017 4.815694,-5.13779 2.713885,-8.03925 -2.085808,-2.87938 -6.362077,-2.87938 -8.447885,0 -2.061644,2.84601 -0.713533,7.00267 2.602275,8.02365 1.574755,0.48489 1.551844,0.48477 3.131725,0.0156 z m -3.315395,-4.54063 c 0.128733,-0.66377 0.747004,-0.75492 0.747004,-0.11012 0,0.325 -0.170838,0.55122 -0.416275,0.55122 -0.24639,0 -0.381363,-0.18001 -0.330729,-0.4411 z m 2.649457,-0.0219 c 0.04904,-0.25466 0.264502,-0.46302 0.478797,-0.46302 0.214295,0 0.429755,0.20836 0.478798,0.46302 0.06256,0.32487 -0.0803,0.46302 -0.478798,0.46302 -0.398502,0 -0.541361,-0.13815 -0.478797,-0.46302 z"
         id="path834"
         inkscape:connector-curvature="0" />
      <path
         style="fill:#e44a4b;stroke-width:0.26458335"
         d="m 79.915989,141.36309 c 0.221866,-0.42904 0.820236,-1.09802 1.329712,-1.48661 0.728729,-0.55583 0.926319,-0.89273 0.926319,-1.57939 0,-0.74519 -0.144596,-0.94375 -0.988696,-1.35766 -0.543782,-0.26665 -1.258157,-0.88937 -1.5875,-1.38383 -0.532893,-0.80007 -0.598804,-1.22532 -0.598804,-3.86348 0,-2.64531 0.06477,-3.06056 0.601609,-3.85718 0.330885,-0.491 0.963337,-1.1365 1.405449,-1.43444 l 0.803841,-0.54171 -0.486367,-1.05208 c -0.361816,-0.78267 -0.466545,-1.53905 -0.408962,-2.95365 0.06583,-1.61724 0.196664,-2.07124 0.875038,-3.03645 0.438698,-0.62419 1.379926,-1.49489 2.091618,-1.9349 1.100816,-0.68058 1.556916,-0.80001 3.055275,-0.80001 1.498358,0 1.954458,0.11943 3.055274,0.80001 0.711692,0.44001 1.65292,1.31071 2.091618,1.9349 0.678374,0.96521 0.809207,1.41921 0.875038,3.03645 0.05758,1.4146 -0.04715,2.17098 -0.408962,2.95365 l -0.486367,1.05208 0.803841,0.54171 c 0.442112,0.29794 1.074564,0.94344 1.405449,1.43444 0.536841,0.79662 0.601609,1.21187 0.601609,3.85718 0,2.63816 -0.06591,3.06341 -0.598805,3.86348 -0.329342,0.49446 -1.043717,1.11718 -1.5875,1.38383 -0.844099,0.41391 -0.988695,0.61247 -0.988695,1.35766 0,0.68666 0.19759,1.02356 0.926319,1.57939 0.509476,0.38859 1.107847,1.05757 1.329712,1.48661 l 0.403391,0.78007 h -7.421922 -7.421923 z m 5.719239,-0.38209 c -0.89845,-1.08256 -3.099812,-1.16496 -4.304224,-0.16111 l -0.614192,0.51192 2.612084,0.009 c 2.202788,0.007 2.564175,-0.0489 2.306332,-0.35961 z m 6.902809,-0.16111 c -1.204412,-1.00385 -3.405774,-0.92145 -4.304224,0.16111 -0.257843,0.31068 0.103544,0.36703 2.306332,0.35961 l 2.612084,-0.009 z m -5.603516,-4.62985 c 0.31425,0 0.412822,0.45129 0.473477,2.16774 l 0.0766,2.16774 0.952507,-0.64639 c 0.523878,-0.35551 1.293079,-0.64639 1.709334,-0.64639 h 0.756829 v -4.49791 c 0,-3.82176 0.05966,-4.49792 0.396875,-4.49792 0.328595,0 0.396875,0.49803 0.396875,2.8948 0,1.60374 0.115563,2.96623 0.259115,3.05495 0.414609,0.25624 1.289104,-0.34382 1.722521,-1.18195 0.277495,-0.53662 0.399614,-1.57337 0.399614,-3.39262 0,-2.28927 -0.07615,-2.73284 -0.603498,-3.51537 -0.719983,-1.06838 -1.85683,-1.56213 -2.519318,-1.09416 -1.490475,1.05283 -2.095946,1.23947 -4.020934,1.23947 -1.924989,0 -2.53046,-0.18664 -4.020935,-1.23947 -0.662488,-0.46797 -1.799336,0.0258 -2.519318,1.09416 -0.527348,0.78253 -0.603498,1.2261 -0.603498,3.51537 0,1.81925 0.122119,2.856 0.399614,3.39262 0.433417,0.83813 1.307912,1.43819 1.722521,1.18195 0.143552,-0.0887 0.259115,-1.45121 0.259115,-3.05495 0,-2.39677 0.06828,-2.8948 0.396875,-2.8948 0.337215,0 0.396875,0.67616 0.396875,4.49792 v 4.49791 h 0.754623 c 0.415042,0 1.159183,0.27334 1.653646,0.60742 l 0.899023,0.60743 0.132292,-2.12878 c 0.102977,-1.65706 0.220235,-2.12877 0.529167,-2.12877 z m 5.093229,-5.75469 c 0.06063,-0.1819 0.447587,-0.33073 0.859896,-0.33073 0.412309,0 0.799262,0.14883 0.859895,0.33073 0.07483,0.22449 -0.201377,0.33073 -0.859895,0.33073 -0.658519,0 -0.934728,-0.10624 -0.859896,-0.33073 z m -2.085263,-3.82268 c 3.147609,-2.21729 3.030444,-6.92439 -0.222502,-8.93906 -3.539072,-2.19187 -8.077131,0.30921 -8.077131,4.45159 0,2.34591 1.52377,4.53941 3.620817,5.21224 1.33619,0.42872 3.522009,0.0901 4.678816,-0.72477 z m -4.86005,-3.91638 c 0,-0.21829 0.178594,-0.39688 0.396875,-0.39688 0.218281,0 0.396875,0.17859 0.396875,0.39688 0,0.21828 -0.178594,0.39687 -0.396875,0.39687 -0.218281,0 -0.396875,-0.17859 -0.396875,-0.39687 z m 2.645834,0 c 0,-0.22049 0.235185,-0.39688 0.529166,-0.39688 0.293982,0 0.529167,0.17639 0.529167,0.39688 0,0.22048 -0.235185,0.39687 -0.529167,0.39687 -0.293981,0 -0.529166,-0.17639 -0.529166,-0.39687 z"
         id="path832"
         inkscape:connector-curvature="0" />
      <path
         style="fill:#5e5e5e;stroke-width:0.26458335"
         d="m 79.915989,141.36309 c 0.221866,-0.42904 0.820236,-1.09802 1.329712,-1.48661 0.728729,-0.55583 0.926319,-0.89273 0.926319,-1.57939 0,-0.74519 -0.144596,-0.94375 -0.988696,-1.35766 -0.543782,-0.26665 -1.258157,-0.88937 -1.5875,-1.38383 -0.532893,-0.80007 -0.598804,-1.22532 -0.598804,-3.86348 0,-2.64531 0.06477,-3.06056 0.601609,-3.85718 0.330885,-0.491 0.963337,-1.1365 1.405449,-1.43444 l 0.803841,-0.54171 -0.486367,-1.05208 c -0.361816,-0.78267 -0.466545,-1.53905 -0.408962,-2.95365 0.06583,-1.61724 0.196664,-2.07124 0.875038,-3.03645 0.438698,-0.62419 1.379926,-1.49489 2.091618,-1.9349 1.100816,-0.68058 1.556916,-0.80001 3.055275,-0.80001 1.498358,0 1.954458,0.11943 3.055274,0.80001 0.711692,0.44001 1.65292,1.31071 2.091618,1.9349 0.678374,0.96521 0.809207,1.41921 0.875038,3.03645 0.05758,1.4146 -0.04715,2.17098 -0.408962,2.95365 l -0.486367,1.05208 0.803841,0.54171 c 0.442112,0.29794 1.074564,0.94344 1.405449,1.43444 0.536841,0.79662 0.601609,1.21187 0.601609,3.85718 0,2.63816 -0.06591,3.06341 -0.598805,3.86348 -0.329342,0.49446 -1.043717,1.11718 -1.5875,1.38383 -0.844099,0.41391 -0.988695,0.61247 -0.988695,1.35766 0,0.68666 0.19759,1.02356 0.926319,1.57939 0.509476,0.38859 1.107847,1.05757 1.329712,1.48661 l 0.403391,0.78007 h -7.421922 -7.421923 z m 5.719239,-0.38209 c -0.89845,-1.08256 -3.099812,-1.16496 -4.304224,-0.16111 l -0.614192,0.51192 2.612084,0.009 c 2.202788,0.007 2.564175,-0.0489 2.306332,-0.35961 z m 6.902809,-0.16111 c -1.204412,-1.00385 -3.405774,-0.92145 -4.304224,0.16111 -0.257843,0.31068 0.103544,0.36703 2.306332,0.35961 l 2.612084,-0.009 z m -5.603516,-4.62985 c 0.31425,0 0.412822,0.45129 0.473477,2.16774 l 0.0766,2.16774 0.952507,-0.64639 c 0.523878,-0.35551 1.293079,-0.64639 1.709334,-0.64639 h 0.756829 v -4.49791 c 0,-3.82176 0.05966,-4.49792 0.396875,-4.49792 0.328595,0 0.396875,0.49803 0.396875,2.8948 0,1.60374 0.115563,2.96623 0.259115,3.05495 0.414609,0.25624 1.289104,-0.34382 1.722521,-1.18195 0.277495,-0.53662 0.399614,-1.57337 0.399614,-3.39262 0,-2.28927 -0.07615,-2.73284 -0.603498,-3.51537 -0.719983,-1.06838 -1.85683,-1.56213 -2.519318,-1.09416 -1.490475,1.05283 -2.095946,1.23947 -4.020934,1.23947 -1.924989,0 -2.53046,-0.18664 -4.020935,-1.23947 -0.662488,-0.46797 -1.799336,0.0258 -2.519318,1.09416 -0.527348,0.78253 -0.603498,1.2261 -0.603498,3.51537 0,1.81925 0.122119,2.856 0.399614,3.39262 0.433417,0.83813 1.307912,1.43819 1.722521,1.18195 0.143552,-0.0887 0.259115,-1.45121 0.259115,-3.05495 0,-2.39677 0.06828,-2.8948 0.396875,-2.8948 0.337215,0 0.396875,0.67616 0.396875,4.49792 v 4.49791 h 0.754623 c 0.415042,0 1.159183,0.27334 1.653646,0.60742 l 0.899023,0.60743 0.132292,-2.12878 c 0.102977,-1.65706 0.220235,-2.12877 0.529167,-2.12877 z m 3.007966,-9.57737 c 3.147609,-2.21729 3.030444,-6.92439 -0.222502,-8.93906 -3.539072,-2.19187 -8.077131,0.30921 -8.077131,4.45159 0,2.34591 1.52377,4.53941 3.620817,5.21224 1.33619,0.42872 3.522009,0.0901 4.678816,-0.72477 z m -4.86005,-3.91638 c 0,-0.21829 0.178594,-0.39688 0.396875,-0.39688 0.218281,0 0.396875,0.17859 0.396875,0.39688 0,0.21828 -0.178594,0.39687 -0.396875,0.39687 -0.218281,0 -0.396875,-0.17859 -0.396875,-0.39687 z m 2.645834,0 c 0,-0.22049 0.235185,-0.39688 0.529166,-0.39688 0.293982,0 0.529167,0.17639 0.529167,0.39688 0,0.22048 -0.235185,0.39687 -0.529167,0.39687 -0.293981,0 -0.529166,-0.17639 -0.529166,-0.39687 z"
         id="path830"
         inkscape:connector-curvature="0" />
      <path
         style="fill:#333333;stroke-width:0.26458335"
         d="m 79.796654,141.81243 c 0.0083,-0.46486 0.788469,-1.37187 1.647762,-1.91558 0.605783,-0.3833 0.725999,-0.64356 0.718016,-1.55443 -0.0089,-1.01788 -0.08594,-1.13089 -1.106357,-1.62322 -1.589073,-0.76669 -2.059055,-1.83015 -2.059055,-4.65915 0,-1.25739 0.07627,-2.6675 0.169484,-3.13358 0.167343,-0.83671 1.350313,-2.26711 2.315984,-2.80038 0.473765,-0.26163 0.47608,-0.3145 0.04986,-1.13871 -1.102185,-2.13139 -0.75269,-4.93427 0.834294,-6.69088 1.358517,-1.50371 2.628073,-2.08251 4.567875,-2.08251 1.939801,0 3.209357,0.5788 4.567874,2.08251 1.586984,1.75661 1.936479,4.55949 0.834294,6.69088 -0.426216,0.82421 -0.423901,0.87708 0.04986,1.13871 0.965671,0.53327 2.148641,1.96367 2.315984,2.80038 0.09322,0.46608 0.169484,1.87619 0.169484,3.13358 0,2.829 -0.469982,3.89246 -2.059055,4.65915 -1.020414,0.49233 -1.097437,0.60534 -1.106357,1.62322 -0.008,0.91087 0.112233,1.17113 0.718016,1.55443 0.859293,0.54371 1.639493,1.45072 1.647762,1.91558 0.0046,0.25656 -1.596118,0.33073 -7.137866,0.33073 -5.541749,0 -7.142431,-0.0742 -7.137867,-0.33073 z m 6.079533,-0.44382 c 0,-0.57967 -1.427916,-1.34212 -2.513542,-1.34212 -1.085625,0 -2.513541,0.76245 -2.513541,1.34212 0,0.13496 1.131093,0.24538 2.513541,0.24538 1.382448,0 2.513542,-0.11042 2.513542,-0.24538 z m 7.14375,0 c 0,-0.57967 -1.427916,-1.34212 -2.513541,-1.34212 -1.085626,0 -2.513542,0.76245 -2.513542,1.34212 0,0.13496 1.131094,0.24538 2.513542,0.24538 1.382448,0 2.513541,-0.11042 2.513541,-0.24538 z m -6.35,-2.92962 c 0,-1.23472 0.110243,-2.11666 0.264584,-2.11666 0.15434,0 0.264583,0.88194 0.264583,2.11666 0,1.16417 0.05323,2.11667 0.118291,2.11667 0.06506,0 0.678106,-0.29766 1.362324,-0.66146 0.684217,-0.3638 1.523955,-0.66146 1.866083,-0.66146 h 0.622052 v -4.36562 c 0,-2.73403 0.09888,-4.36563 0.264583,-4.36563 0.160354,0 0.264584,1.14653 0.264584,2.91042 0,2.6889 0.03848,2.91042 0.505646,2.91042 0.278106,0 0.813888,-0.36633 1.190625,-0.81405 0.647639,-0.76968 0.684925,-0.97521 0.68399,-3.77032 -0.0011,-3.33698 -0.36092,-4.32338 -1.793459,-4.91676 -0.716138,-0.29663 -0.903983,-0.26186 -1.817229,0.33639 -0.560193,0.36697 -1.584079,0.80736 -2.275303,0.97864 -1.529722,0.37905 -3.254266,0.0266 -4.788844,-0.97864 -0.913246,-0.59825 -1.101091,-0.63302 -1.817229,-0.33639 -1.432539,0.59338 -1.792342,1.57978 -1.793459,4.91676 -9.34e-4,2.79511 0.03635,3.00064 0.683989,3.77032 0.376738,0.44772 0.91252,0.81405 1.190626,0.81405 0.467161,0 0.505646,-0.22152 0.505646,-2.91042 0,-1.76389 0.10423,-2.91042 0.264584,-2.91042 0.165698,0 0.264583,1.6316 0.264583,4.36563 v 4.36562 h 0.619844 c 0.340914,0 1.144586,0.28881 1.785937,0.6418 0.641352,0.35299 1.255391,0.65065 1.364532,0.66146 0.10914,0.0108 0.198437,-0.93284 0.198437,-2.09701 z m 2.455894,-11.20434 c 1.206916,-0.50526 2.753494,-2.32417 3.113743,-3.66204 0.893538,-3.31834 -1.829461,-6.81783 -5.305053,-6.81783 -3.475593,0 -6.198592,3.49949 -5.305054,6.81783 0.351057,1.30373 1.889961,3.14236 3.056095,3.65132 1.040612,0.45418 3.367562,0.4598 4.440269,0.0107 z m -3.874198,-4.32507 c -0.29797,-0.29797 -0.181475,-0.61017 0.227679,-0.61017 0.218281,0 0.396875,0.11204 0.396875,0.24897 0,0.33363 -0.41317,0.57258 -0.624554,0.3612 z m 2.741221,-0.21329 c 0,-0.21829 0.119062,-0.39688 0.264583,-0.39688 0.145521,0 0.264584,0.17859 0.264584,0.39688 0,0.21828 -0.119063,0.39687 -0.264584,0.39687 -0.145521,0 -0.264583,-0.17859 -0.264583,-0.39687 z"
         id="path828"
         inkscape:connector-curvature="0" />
    </g>
  </g>
</svg>
