<svg width="402" height="845" viewBox="0 0 402 845" fill="none" xmlns="http://www.w3.org/2000/svg">
<path d="M169.288 1.32266C180.135 3.54296 189.383 10.6484 194.947 21.7764L194.956 21.7942L194.963 21.8126C199.344 32.6486 194.589 40.7588 189.952 48.6694L189.951 48.671C189.444 49.5354 188.939 50.3973 188.447 51.2601C185.933 55.6707 183.754 60.1112 183.34 65.0868C182.928 70.0413 184.263 75.5897 188.909 82.2129C194.827 90.6495 197.437 98.5603 197.437 105.484C197.437 112.415 194.821 118.325 190.351 122.731C181.42 131.535 165.192 134.264 147.818 127.466C134.03 122.07 122.218 118.221 108.628 117.637C95.0487 117.054 79.6524 119.73 58.71 127.455C51.5158 131.486 44.9578 132.487 39.3753 131.222C33.7839 129.955 29.234 126.427 26.0433 121.523C19.6709 111.729 18.6857 96.4143 25.5502 82.2816C34.0675 64.746 42.1346 55.6149 51.4852 51.4802C60.8245 47.3506 71.338 48.2578 84.5836 50.5071C91.114 51.616 95.9637 50.6871 99.9428 48.4546C103.939 46.2122 107.106 42.6286 110.22 38.3316C111.535 36.5165 112.84 34.5746 114.191 32.5621C119.21 25.0885 124.884 16.6406 134.213 10.0908C146.056 1.7753 158.444 -0.896824 169.288 1.32266Z" fill="#F0F0F0"/>
<path d="M34.0549 699.084C44.6932 695.86 56.2487 697.252 63.6466 699.522C68.9177 701.139 78.6013 704.658 86.9772 710.613C95.3494 716.565 102.5 725.016 102.5 736.5C102.5 743.715 97.8177 748.882 91.2115 750.945C84.8295 752.938 76.6377 752.053 68.9927 747.399C68.8773 754.521 67.3874 759.954 65.0117 764.093C62.5352 768.407 59.1138 771.283 55.3516 773.196C47.8697 777 39.0211 777 33.5346 777H33.4236L33.3508 776.977C27.9187 775.28 20.2686 770.714 14.8822 762.525C9.48492 754.319 6.38485 742.511 10.0121 726.39C13.6543 710.203 23.3778 702.32 34.0549 699.084Z" fill="#F0F0F0"/>
<path fill-rule="evenodd" clip-rule="evenodd" d="M210 116.5C223.2 52.9 280.667 34.5 309 36.5C337.333 38.5 360.1 49.4 380.5 73C400.9 96.6 422 175 364.5 210.5C358.607 216.26 349.521 222.792 339.522 229.979C299.471 258.771 244.778 298.088 322 340.5C382.618 373.793 389.376 432.272 393.72 469.864C393.985 472.157 394.241 474.373 394.5 476.5C396.601 493.776 387.657 522.507 377.158 556.233C357.421 619.633 332.188 700.689 364.5 756.5C406.99 829.892 248.549 837.338 154.247 841.77C138.689 842.501 124.876 843.15 114 844C37.2 850 16 779.5 88 797.5C148.5 812.625 278.4 716 258 648C237.6 580 155.5 508.5 66 556C-41 605.5 0.586212 433.166 72.5 363.5C146.469 291.842 98.5465 242.467 65.9441 208.876C42.1296 184.339 26.4894 168.225 72.5 158C83.0429 155.657 97.6699 156.444 113.503 157.295C153.235 159.432 200.561 161.978 210 116.5ZM337.985 152.622C339.329 147.296 340.812 143.26 342.331 140.326C343.855 137.385 345.395 135.592 346.83 134.696C348.237 133.817 349.547 133.793 350.73 134.4C351.949 135.024 353.095 136.35 354.041 138.294C355.929 142.174 356.91 148.305 356.174 155.288C355.439 162.261 352.996 170.043 348.087 177.218C337.274 193.022 307.061 229.316 272.76 248.061C251.063 259.919 244.999 278.238 245.125 294.879C245.251 311.485 251.535 326.443 254.566 331.748C256.175 334.564 259.706 336.199 264.083 337.434C267.056 338.273 270.514 338.949 274.17 339.664L274.172 339.665L274.173 339.665L274.174 339.665L274.175 339.665C275.922 340.007 277.715 340.358 279.522 340.739C290.779 343.116 302.701 346.712 309.078 356.768C317.465 369.994 325.274 375.269 332.661 380.259L332.664 380.261C334.548 381.534 336.405 382.788 338.237 384.151C347.205 390.824 355.797 400.225 364.524 427.652C371.488 449.541 370.208 472.029 365.763 491.262C361.318 510.498 353.715 526.445 348.079 535.23L348.057 535.264L348.041 535.302C344.629 543.209 338.91 555.52 332.848 566.75C329.816 572.365 326.703 577.703 323.753 582.082C320.793 586.474 318.028 589.854 315.7 591.6C309.863 595.978 299.54 597.615 288.27 594.209C277.022 590.81 264.869 582.393 255.428 566.742C253.102 562.886 252.599 559.63 253.402 556.795C254.209 553.943 256.366 551.415 259.568 549.084C265.987 544.41 276.358 540.7 287.479 536.784L288.27 536.505C299.116 532.688 310.561 528.659 319.452 523.343C328.556 517.899 335.114 511.026 335.5 501.52C335.873 492.31 337.242 484.591 338.793 477.513C339.297 475.212 339.823 472.972 340.339 470.769L340.341 470.76L340.343 470.752L340.344 470.75C341.411 466.199 342.443 461.802 343.181 457.331C345.384 443.984 344.996 429.886 335.457 408.298C331.607 399.583 323.659 391.408 313.853 383.865C304.04 376.314 292.316 369.359 280.852 363.099C275.119 359.968 269.447 357.009 264.108 354.235L262.568 353.435L262.565 353.434C257.804 350.961 253.337 348.641 249.359 346.481C244.952 344.088 241.158 341.899 238.236 339.922C235.294 337.932 233.304 336.202 232.429 334.743L232.397 334.69L232.354 334.646C225.452 327.745 218.259 319.302 214.277 309.376C210.302 299.472 209.517 288.074 215.454 275.209C219.18 267.137 222.7 262.86 226.349 259.863C228.179 258.359 230.052 257.169 232.028 255.978C232.437 255.731 232.851 255.484 233.27 255.234L233.272 255.233C234.869 254.28 236.537 253.285 238.281 252.101C247.142 246.088 257.94 235.241 273.458 199.7C278.312 188.583 283.863 183.514 289.613 181.25C294.917 179.162 300.452 179.429 305.986 179.696L305.989 179.696C306.492 179.72 306.995 179.744 307.498 179.767C313.489 180.035 319.451 180.047 324.753 176.533C330.058 173.016 334.598 166.045 337.985 152.622Z" fill="#F0F0F0"/>
</svg>
