<svg width="86" height="24" viewBox="0 0 86 24" fill="none" xmlns="http://www.w3.org/2000/svg">
<path d="M7.53289 9.03516C8.10711 9.03516 8.63445 9.12891 9.11492 9.31641C9.59539 9.49219 9.94695 9.68555 10.1696 9.89648V11.3555C9.33758 10.7461 8.45867 10.4414 7.53289 10.4414C6.61883 10.4414 5.87469 10.7578 5.30047 11.3906C4.72625 12.0234 4.43914 12.7793 4.43914 13.6582C4.43914 14.5371 4.72625 15.293 5.30047 15.9258C5.87469 16.5469 6.61883 16.8574 7.53289 16.8574C8.45867 16.8574 9.33758 16.5527 10.1696 15.9434V17.4023C9.95867 17.6133 9.61297 17.8125 9.1325 18C8.65203 18.1758 8.11883 18.2637 7.53289 18.2637C6.6657 18.2637 5.87469 18.0527 5.15984 17.6309C4.45672 17.209 3.9118 16.6523 3.52508 15.9609C3.13836 15.2578 2.945 14.4902 2.945 13.6582C2.945 12.3926 3.37859 11.3086 4.24578 10.4062C5.12469 9.49219 6.22039 9.03516 7.53289 9.03516ZM11.5182 10.4062C12.3971 9.49219 13.4928 9.03516 14.8053 9.03516C16.1178 9.03516 17.2077 9.49219 18.0748 10.4062C18.9537 11.3086 19.3932 12.3926 19.3932 13.6582C19.3932 14.9238 18.9537 16.0078 18.0748 16.9102C17.2077 17.8125 16.1178 18.2637 14.8053 18.2637C13.9381 18.2637 13.1471 18.0527 12.4323 17.6309C11.7291 17.209 11.1842 16.6523 10.7975 15.9609C10.4108 15.2578 10.2174 14.4902 10.2174 13.6582C10.2174 12.3926 10.651 11.3086 11.5182 10.4062ZM17.0377 11.3906C16.4635 10.7578 15.7194 10.4414 14.8053 10.4414C13.8912 10.4414 13.1471 10.7578 12.5729 11.3906C11.9987 12.0234 11.7116 12.7793 11.7116 13.6582C11.7116 14.5371 11.9987 15.293 12.5729 15.9258C13.1471 16.5469 13.8912 16.8574 14.8053 16.8574C15.7194 16.8574 16.4635 16.5469 17.0377 15.9258C17.612 15.293 17.8991 14.5371 17.8991 13.6582C17.8991 12.7793 17.612 12.0234 17.0377 11.3906ZM28.0016 5.34375V18H26.5602V16.5059C26.2203 17.0098 25.7867 17.4316 25.2594 17.7715C24.7437 18.0996 24.1695 18.2637 23.5367 18.2637C22.9742 18.2637 22.441 18.1523 21.9371 17.9297C21.4332 17.707 20.9996 17.4023 20.6363 17.0156C20.273 16.6172 19.9801 16.1367 19.7574 15.5742C19.5465 15.0117 19.441 14.4023 19.441 13.7461C19.441 12.3164 19.8395 11.1738 20.6363 10.3184C21.4332 9.46289 22.4469 9.03516 23.6773 9.03516C24.1812 9.03516 24.691 9.1582 25.2066 9.4043C25.734 9.63867 26.1852 9.9668 26.5602 10.3887V5.34375H28.0016ZM23.941 10.4766C23.0387 10.4766 22.3121 10.7988 21.7613 11.4434C21.2105 12.0879 20.9352 12.8555 20.9352 13.7461C20.9352 14.6133 21.1988 15.3516 21.7262 15.9609C22.2535 16.5586 22.9332 16.8574 23.7652 16.8574C24.5738 16.8574 25.2418 16.5469 25.7691 15.9258C26.3082 15.3047 26.5719 14.5254 26.5602 13.5879L26.5426 11.9004C25.7809 10.9512 24.9137 10.4766 23.941 10.4766ZM36.9439 13.3066V14.168H30.1939C30.2994 14.9297 30.6275 15.5684 31.1783 16.084C31.7408 16.5996 32.4322 16.8574 33.2525 16.8574C34.3541 16.8574 35.4087 16.3418 36.4166 15.3105L36.399 16.875C36.1177 17.2148 35.6783 17.5312 35.0806 17.8242C34.4947 18.1172 33.8853 18.2637 33.2525 18.2637C31.94 18.2637 30.8443 17.8125 29.9654 16.9102C29.0982 16.0078 28.6646 14.9238 28.6646 13.6582C28.6646 12.3809 29.063 11.291 29.8599 10.3887C30.6685 9.48633 31.6822 9.03516 32.9009 9.03516C34.2017 9.03516 35.1978 9.43359 35.8892 10.2305C36.5923 11.0156 36.9439 12.041 36.9439 13.3066ZM30.2291 12.9375H35.5201C35.438 12.1289 35.1451 11.5137 34.6412 11.0918C34.149 10.6582 33.5689 10.4414 32.9009 10.4414C32.1978 10.4414 31.606 10.6758 31.1255 11.1445C30.6568 11.6133 30.358 12.2109 30.2291 12.9375ZM40.2261 9.03516C40.7066 9.03516 41.1695 9.10547 41.6148 9.24609C42.0601 9.375 42.3999 9.52734 42.6343 9.70312V11.25C41.9195 10.7109 41.1519 10.4414 40.3316 10.4414C39.8159 10.4414 39.4116 10.5645 39.1187 10.8105C38.8257 11.0449 38.6792 11.3203 38.6792 11.6367C38.6792 12.2109 39.0366 12.6211 39.7515 12.8672L41.228 13.3945C42.3648 13.793 42.9331 14.5195 42.9331 15.5742C42.9331 16.3242 42.6226 16.9629 42.0015 17.4902C41.3921 18.0059 40.6245 18.2637 39.6987 18.2637C39.2183 18.2637 38.7027 18.1758 38.1519 18C37.6128 17.8359 37.2261 17.666 36.9917 17.4902V15.9434C37.273 16.1543 37.6714 16.3594 38.187 16.5586C38.7144 16.7578 39.1831 16.8574 39.5933 16.8574C40.1323 16.8574 40.5659 16.7402 40.8941 16.5059C41.2222 16.2598 41.3862 15.9492 41.3862 15.5742C41.3862 15.3047 41.2866 15.0879 41.0874 14.9238C40.8882 14.7598 40.5659 14.5957 40.1206 14.4316L38.8198 13.957C38.1753 13.7227 37.73 13.418 37.4839 13.043C37.2495 12.6562 37.1323 12.1875 37.1323 11.6367C37.1323 10.875 37.4136 10.2539 37.9761 9.77344C38.5503 9.28125 39.3003 9.03516 40.2261 9.03516ZM45.8462 6.67969V9.21094H48.4126V10.5645H45.8462V15.7148C45.8462 16.5 46.227 16.8926 46.9888 16.8926C47.5161 16.8926 48.0141 16.752 48.4829 16.4707V17.6484C47.9555 18.0586 47.352 18.2637 46.6723 18.2637C45.9458 18.2637 45.3833 18.041 44.9848 17.5957C44.5981 17.1504 44.4048 16.5469 44.4048 15.7852V10.5645H42.7173V10.1426C43.7368 9.68555 44.5571 8.53125 45.1782 6.67969H45.8462ZM52.9428 9.03516C53.4467 9.03516 53.9565 9.1582 54.4721 9.4043C54.9995 9.63867 55.4506 9.9668 55.8256 10.3887V9.21094H57.267V18H55.8256V16.5059C55.4858 17.0098 55.0522 17.4316 54.5248 17.7715C54.0092 18.0996 53.435 18.2637 52.8022 18.2637C51.6537 18.2637 50.6811 17.8418 49.8842 16.998C49.0991 16.1426 48.7065 15.0586 48.7065 13.7461C48.7065 12.3164 49.1049 11.1738 49.9018 10.3184C50.6987 9.46289 51.7123 9.03516 52.9428 9.03516ZM53.2065 10.4414C52.5971 10.4414 52.058 10.5996 51.5893 10.916C51.1323 11.2324 50.7866 11.6426 50.5522 12.1465C50.3178 12.6387 50.2006 13.1719 50.2006 13.7461C50.2006 14.6133 50.4643 15.3516 50.9916 15.9609C51.519 16.5586 52.1987 16.8574 53.0307 16.8574C53.8276 16.8574 54.4955 16.5469 55.0346 15.9258C55.5737 15.3047 55.8373 14.5254 55.8256 13.5879L55.808 11.9004C55.0229 10.9277 54.1557 10.4414 53.2065 10.4414ZM62.852 9.03516C63.8012 9.03516 64.5805 9.3457 65.1898 9.9668C65.7992 10.5879 66.1039 11.4785 66.1039 12.6387V18H64.6625L64.6449 12.7793C64.6449 11.2207 63.9652 10.4414 62.6059 10.4414C62.1723 10.4414 61.7211 10.6055 61.2523 10.9336C60.7953 11.25 60.3734 11.6602 59.9867 12.1641V18H58.5453V9.21094H59.9867V10.5996C60.3031 10.1895 60.7191 9.82617 61.2348 9.50977C61.7621 9.19336 62.3012 9.03516 62.852 9.03516ZM71.0912 9.03516C71.6654 9.03516 72.1927 9.12891 72.6732 9.31641C73.1537 9.49219 73.5052 9.68555 73.7279 9.89648V11.3555C72.8959 10.7461 72.017 10.4414 71.0912 10.4414C70.1771 10.4414 69.433 10.7578 68.8587 11.3906C68.2845 12.0234 67.9974 12.7793 67.9974 13.6582C67.9974 14.5371 68.2845 15.293 68.8587 15.9258C69.433 16.5469 70.1771 16.8574 71.0912 16.8574C72.017 16.8574 72.8959 16.5527 73.7279 15.9434V17.4023C73.517 17.6133 73.1712 17.8125 72.6908 18C72.2103 18.1758 71.6771 18.2637 71.0912 18.2637C70.224 18.2637 69.433 18.0527 68.7181 17.6309C68.015 17.209 67.4701 16.6523 67.0834 15.9609C66.6966 15.2578 66.5033 14.4902 66.5033 13.6582C66.5033 12.3926 66.9369 11.3086 67.8041 10.4062C68.683 9.49219 69.7787 9.03516 71.0912 9.03516ZM82.055 13.3066V14.168H75.305C75.4105 14.9297 75.7386 15.5684 76.2894 16.084C76.8519 16.5996 77.5433 16.8574 78.3636 16.8574C79.4652 16.8574 80.5198 16.3418 81.5277 15.3105L81.5101 16.875C81.2288 17.2148 80.7894 17.5312 80.1917 17.8242C79.6058 18.1172 78.9964 18.2637 78.3636 18.2637C77.0511 18.2637 75.9554 17.8125 75.0765 16.9102C74.2093 16.0078 73.7757 14.9238 73.7757 13.6582C73.7757 12.3809 74.1741 11.291 74.971 10.3887C75.7796 9.48633 76.7933 9.03516 78.012 9.03516C79.3128 9.03516 80.3089 9.43359 81.0003 10.2305C81.7034 11.0156 82.055 12.041 82.055 13.3066ZM75.3402 12.9375H80.6312C80.5491 12.1289 80.2562 11.5137 79.7523 11.0918C79.2601 10.6582 78.68 10.4414 78.012 10.4414C77.3089 10.4414 76.7171 10.6758 76.2366 11.1445C75.7679 11.6133 75.4691 12.2109 75.3402 12.9375Z" fill="white"/>
</svg>
