<svg width="112" height="52" viewBox="0 0 112 52" fill="none" xmlns="http://www.w3.org/2000/svg">
<path fill-rule="evenodd" clip-rule="evenodd" d="M54.9584 1.22156C20.9651 0.0562286 23.8477 53.6656 58.5144 48.3322C72.7371 46.5549 81.6251 37.2216 79.8477 22.9989C78.0704 7.88823 70.3491 0.97356 54.9584 1.22156Z" fill="#FF391C"/>
<path opacity="0.699997" fill-rule="evenodd" clip-rule="evenodd" d="M69.6277 39.0002C56.5437 39.0002 45.6277 28.0828 45.6277 15.0002C45.6277 10.0188 47.2184 5.35619 49.9011 1.48418C21.3637 5.54552 25.6731 53.3855 58.5144 48.3322C66.9251 47.2815 73.4451 43.5708 77.0224 37.7868C74.6837 38.5655 72.2011 39.0002 69.6277 39.0002Z" fill="#E01E00"/>
<path d="M35.1224 10.5575C35.1224 10.5575 34.5621 10.2042 33.42 9.75883C32.2887 9.29281 30.5704 8.75545 28.3794 8.14648C26.1864 7.54526 23.4786 6.95812 20.3982 6.48662C18.8593 6.26494 17.215 6.09658 15.534 6.08538C13.8916 6.09618 12.0602 6.20264 10.8529 6.78693C10.2587 7.0629 10.0002 7.43665 10.0141 7.62292C10.1413 7.36749 10.0882 7.45867 10.1819 7.58385C10.2566 7.73586 10.4214 8.00529 10.6571 8.28832C11.6459 9.46089 13.297 10.7608 15.0445 11.9116C18.591 14.2549 22.7334 16.4025 27.0602 18.5056C31.4068 20.5902 35.9868 22.615 40.6872 24.5765C45.3924 26.5241 50.2079 28.4375 55.0684 30.2205C59.9173 32.0391 64.8143 33.72 69.6477 35.2928C74.4879 36.8385 79.2751 38.261 83.9256 39.4114C88.5619 40.5308 93.1216 41.4675 97.224 41.634C99.2221 41.7342 101.249 41.4953 102.239 40.9914C102.477 40.8709 102.626 40.761 102.73 40.6591C102.764 40.6362 102.776 40.6048 102.803 40.5799L102.813 40.5686C102.868 40.4451 102.75 40.7303 102.771 40.6818L102.811 40.5929L102.893 40.417C102.935 40.3284 102.911 40.3691 102.908 40.3808C102.905 40.3937 102.902 40.4095 102.905 40.4241C102.91 40.4364 102.916 40.3992 102.933 40.3898C103.022 40.3035 102.925 39.7942 102.481 39.2197C101.598 38.053 100.081 37.008 98.6813 36.0872C97.2458 35.167 95.7788 34.3778 94.3785 33.6741C91.5603 32.2923 89.0183 31.1584 86.9033 30.2839C84.7744 29.4211 83.0999 28.7422 81.9595 28.2794C81.3855 28.0518 80.9445 27.8755 80.6483 27.7573C80.5232 27.6861 80.3369 27.6725 80.3644 27.5901C80.4427 27.6124 80.4825 27.6237 80.4825 27.6237L80.3615 27.6182C80.3641 27.5749 80.5378 27.6389 80.6778 27.6506C80.994 27.6996 81.4616 27.7754 82.0721 27.8732C83.2889 28.0912 85.0881 28.3712 87.3439 28.8864C89.6019 29.3981 92.3543 30.0266 95.452 31.066C97.0037 31.5823 98.6485 32.1769 100.371 32.9558C102.094 33.7596 103.885 34.6643 105.666 36.4173C106.103 36.8757 106.537 37.412 106.901 38.1077C107.26 38.7914 107.537 39.684 107.511 40.648C107.493 40.8909 107.482 41.1121 107.435 41.374L107.339 41.7924L107.242 42.1255L107.181 42.3095L107.151 42.4023L107.03 42.6771C106.93 42.8789 106.835 43.0848 106.713 43.2714C106.246 44.0409 105.61 44.6625 104.963 45.1244C103.655 46.045 102.322 46.4634 101.056 46.7498C99.7844 47.032 98.5387 47.171 97.305 47.2402C92.3788 47.4708 87.5025 46.8108 82.5295 45.9109C77.5675 44.989 72.5413 43.7417 67.5086 42.2675C62.4731 40.8103 57.4383 39.1032 52.4533 37.2739C47.4806 35.4064 42.5561 33.4177 37.7886 31.2579C33.0178 29.1111 28.388 26.8292 24.006 24.3866C19.6211 21.9391 15.47 19.3812 11.7333 16.4033C9.88503 14.8643 8.07877 13.3607 6.59648 11.0681C6.23286 10.4781 5.88317 9.81608 5.65384 8.96972C5.43842 8.10622 5.31164 7.11373 5.80325 5.89118C6.57926 4.14743 8.11949 3.25474 9.34005 2.85381C10.6027 2.43867 11.7426 2.35431 12.8075 2.33912C13.8737 2.32426 14.8684 2.43032 15.8175 2.57032C17.7101 2.85582 19.4216 3.2884 21.0015 3.75263C24.162 4.673 26.769 5.80534 28.881 6.78488C30.9963 7.76248 32.5709 8.70919 33.6148 9.38701C34.6611 10.0723 35.1224 10.5575 35.1224 10.5575Z" fill="#FE6953"/>
</svg>
