<svg width="200" height="201" viewBox="0 0 200 201" fill="none" xmlns="http://www.w3.org/2000/svg">
<g clip-path="url(#clip0)">
<path d="M74.0548 197.002C32.7311 185.889 3.4787 149.795 0.264781 105.954C-1.81964 77.5205 8.44444 50.789 29.582 29.601C56.1352 2.98448 89.7231 -5.90571 126.92 3.83708C146.021 8.84016 157.253 15.176 170.852 28.6204C209.791 67.1161 209.704 131.668 170.661 170.711C145.598 195.774 107.769 206.069 74.0549 197.002H74.0548Z" fill="#FF9D8E"/>
<path d="M78.6182 197.187C64.0467 194.017 52.538 188.498 38.2479 177.829C24.7704 167.766 24.4996 164.194 37.8979 173.21C59.8178 187.961 93.6278 192.423 120.526 184.115C163.84 170.737 192.61 128.518 189.499 82.9009C188.897 74.0806 186.902 62.5941 185.065 57.3753L181.724 47.8865L174.54 53.366C168.535 57.9467 165.357 58.8456 155.172 58.8456C141.182 58.8456 132.203 53.9182 126.575 43.1518C122.201 34.7862 122.503 19.8086 127.205 11.848C131.557 4.48172 135.327 4.71326 150.005 13.2476C174.638 27.5707 193.232 54.9985 198.196 84.3319C206.814 135.261 171.616 186.388 120.477 197.225C104.062 200.703 94.7454 200.695 78.6182 197.185V197.187ZM83.6019 153.313C80.9835 152.008 77.6769 148.512 76.2539 145.544C74.0785 141.007 74.1641 139.186 76.7915 134.105C82.5993 122.875 98.4552 124.357 102.737 136.532C106.634 147.614 94.1443 158.568 83.6019 153.313V153.313ZM46.1661 151.659C42.5581 148.051 43.2664 142.442 47.6246 140.11C52.5207 137.49 57.281 139.271 58.8845 144.323C61.2614 151.812 51.785 157.278 46.1661 151.659ZM159.527 135.862C154.115 132.711 154.993 122.755 161.03 118.799C165.672 115.758 166.411 115.758 171.053 118.799C177.011 122.703 177.627 129.979 172.399 134.71C168.228 138.484 164.587 138.81 159.527 135.862V135.862ZM65.6419 98.7336C63.8608 96.5875 63.7826 95.1531 65.3606 93.575C68.1286 90.807 73.8297 92.8808 73.8297 96.6558C73.8297 100.833 68.5055 102.184 65.6418 98.7336H65.6419ZM148.963 97.8718C148.185 96.6121 148.491 94.6382 149.644 93.4853C152.338 90.7914 158.619 93.141 157.523 96.433C156.407 99.7842 150.734 100.738 148.963 97.8718ZM99.7502 86.742C96.2341 82.5054 99.7422 76.887 105.903 76.887C112.065 76.887 115.573 82.5054 112.057 86.742C110.607 88.4883 107.838 89.917 105.903 89.917C103.968 89.917 101.199 88.4883 99.7502 86.742ZM139.982 75.8847C139.982 73.2119 141.318 71.8755 143.991 71.8755C146.664 71.8755 148 73.2119 148 75.8847C148 78.5575 146.664 79.8939 143.991 79.8939C141.318 79.8939 139.982 78.5575 139.982 75.8847ZM44.4906 60.8636C43.7963 59.0542 44.1894 56.6126 45.3643 55.4378C48.4185 52.3836 54.2054 55.1752 53.4076 59.3177C52.519 63.932 46.0955 65.0456 44.4906 60.8636ZM73.0056 53.6802C67.3367 46.9432 66.5585 41.8991 70.1479 35.1596C73.6917 28.506 78.1177 25.9035 86.0091 25.8333C101.379 25.6963 108.784 45.108 97.1718 55.0961C89.0896 62.0482 79.5778 61.4909 73.0056 53.6802Z" fill="#FF563D"/>
<path d="M67.6022 193.406C55.9771 189.302 35.7421 177.601 35.7421 174.983C35.7421 174.466 40.2663 176.336 45.7959 179.138C88.3905 200.722 141.533 188.546 170.352 150.6C191.442 122.831 197.148 84.5652 184.8 53.7057L181.547 45.5749L176.3 50.5793C165.61 60.7748 153.383 62.361 140.007 55.2876C129.535 49.75 123.942 40.1756 123.952 27.8054C123.959 19.7741 129.712 5.72345 132.993 5.72345C133.592 5.72345 139.279 8.347 145.631 11.5535C178.644 28.2184 198.115 61.0088 198.115 99.9401C198.115 128.216 190.6 147.267 171.448 167.539C151.015 189.165 129.692 198.194 99.2098 198.124C85.1763 198.089 77.7228 196.979 67.6022 193.406V193.406ZM46.8212 150.825C45.0394 149.043 43.9011 146.627 44.2915 145.455C45.4691 141.923 51.023 139.313 54.5134 140.653C58.7097 142.263 58.7897 151.248 54.622 152.848C50.3712 154.479 50.5116 154.515 46.8212 150.825V150.825ZM78.9549 149.609C71.8827 139.512 77.914 127.336 89.9878 127.336C93.3337 127.336 97.5318 128.797 99.3168 130.582C103.647 134.912 103.436 145.029 98.9107 150.029C93.8181 155.657 83.0316 155.43 78.9549 149.609V149.609ZM160.474 134.907C158.023 133.191 156.019 129.693 156.019 127.134C156.019 116.425 171.401 114.456 174.985 124.706C176.705 129.625 176.327 130.962 172.294 134.228C166.618 138.825 166.109 138.854 160.474 134.907V134.907ZM66.1578 96.614C67.0026 92.2271 72.8274 91.6065 72.8274 95.9034C72.8274 97.5421 71.1668 99.2026 69.1373 99.5935C66.4583 100.109 65.6419 99.2929 66.1578 96.614V96.614ZM150.005 95.9308C150.005 93.7035 151.341 91.9217 153.012 91.9217C154.682 91.9217 156.019 93.7035 156.019 95.9308C156.019 98.1581 154.682 99.9401 153.012 99.9401C151.341 99.9401 150.005 98.1581 150.005 95.9308ZM100.103 86.3064C97.4238 81.3005 101.639 75.1555 107.038 76.1954C112.908 77.3259 112.484 88.6913 106.54 89.5375C103.823 89.9245 101.384 88.7006 100.103 86.3064V86.3064ZM140.363 76.3859C140.735 74.4565 142.367 72.8779 143.991 72.8779C145.615 72.8779 147.247 74.4565 147.619 76.3859C148.093 78.8473 147.01 79.8939 143.991 79.8939C140.972 79.8939 139.889 78.8473 140.363 76.3859ZM46.0097 61.1448C43.573 58.2088 44.9561 55.8387 49.1062 55.8387C52.0924 55.8387 52.7653 61.0063 50.0015 62.7145C49.0239 63.3186 47.2276 62.6122 46.0097 61.1448V61.1448ZM74.9792 55.1659C67.6858 47.8724 67.7451 35.7114 75.1023 29.9243C86.3997 21.0377 101.894 28.3081 101.894 42.4956C101.894 51.5624 96.5999 57.6896 87.508 59.145C81.3677 60.1279 79.2773 59.4637 74.9792 55.1659V55.1659Z" fill="#FF7C69"/>
<path d="M79.9216 149.677C71.7788 140.937 77.0973 128.005 88.8347 128.005C97.4279 128.005 101.894 132.471 101.894 141.064C101.894 152.96 88.0395 158.391 79.9216 149.677ZM46.5441 149.194C44.5481 143.992 47.3457 139.693 52.2712 140.393C55.5843 140.863 56.7906 142.372 56.7906 146.046C56.7906 149.72 55.5843 151.229 52.2712 151.699C49.5605 152.084 47.2685 151.082 46.5441 149.194ZM157.983 131.938C153.581 123.713 160.679 116.009 169.948 118.951C179.379 121.945 176.158 136.023 166.042 136.023C162.184 136.023 159.419 134.621 157.983 131.938V131.938ZM67.1477 98.6037C64.8411 96.2971 65.6878 93.9263 68.8182 93.9263C70.472 93.9263 71.8251 95.2795 71.8251 96.9333C71.8251 100.064 69.4543 100.91 67.1477 98.6037ZM151.007 97.9356C149.372 95.2904 151.769 91.5367 154.153 93.0096C156.587 94.5144 156.572 99.9401 154.132 99.9401C153.095 99.9401 151.688 99.0381 151.007 97.9356H151.007ZM102.395 88.5895C98.8835 87.1724 99.2613 78.5596 102.897 77.1646C107.741 75.3056 111.917 77.9614 111.917 82.901C111.917 86.4288 107.596 90.8655 105.238 89.7589C105.053 89.6719 103.774 89.1456 102.395 88.5895V88.5895ZM141.36 78.5994C138.746 75.9852 139.994 73.8803 144.158 73.8803C146.491 73.8803 147.984 74.931 147.541 76.2607C146.564 79.1901 143.217 80.4566 141.36 78.5994V78.5994ZM45.7652 58.8457C45.7652 57.1919 47.1183 55.8388 48.7721 55.8388C50.4259 55.8388 51.779 57.1919 51.779 58.8457C51.779 60.4995 50.4259 61.8526 48.7721 61.8526C47.1183 61.8526 45.7652 60.4995 45.7652 58.8457ZM79.8435 58.4462C72.0696 55.6399 67.6513 43.7781 71.0657 34.8804C74.5833 25.7137 93.1004 24.13 98.9592 32.4947C108.229 45.7286 94.8663 63.8693 79.8435 58.4462ZM145.232 57.7746C133.497 54.2608 123.945 40.7925 123.945 27.759C123.945 21.8771 130.749 5.72379 133.227 5.72379C136.929 5.72379 158.778 19.228 167.693 27.0266C182.604 40.0703 183.722 42.8787 176.859 50.0417C168.729 58.5276 157.179 61.3517 145.232 57.7746Z" fill="#FF6852"/>
<path d="M79.989 148.783C77.704 145.878 75.8343 142.391 75.8343 141.034C75.8343 135.802 84.1324 128.005 89.7014 128.005C100.807 128.005 105.984 141.956 97.885 150.055C92.2905 155.65 84.9819 155.13 79.989 148.783ZM46.4305 148.897C45.763 147.158 46.6935 144.259 48.498 142.454C51.5363 139.416 52.0217 139.416 55.06 142.454C59.1584 146.552 57.2773 152.06 51.779 152.06C49.5047 152.06 47.0979 150.637 46.4305 148.897V148.897ZM159.36 134.686C158.625 133.951 158.023 130.775 158.023 127.627C158.023 120.514 165.994 115.788 170.994 119.937C175.039 123.294 174.969 133.24 170.889 134.806C166.702 136.413 161.027 136.354 159.36 134.686V134.686ZM67.0932 98.5491C64.8356 96.2916 65.7182 93.9262 68.8182 93.9262C70.472 93.9262 71.8251 94.7751 71.8251 95.8125C71.8251 98.3403 68.6947 100.151 67.0932 98.5491ZM151.287 98.5491C149.029 96.2916 149.912 93.9262 153.012 93.9262C154.665 93.9262 156.019 94.7751 156.019 95.8125C156.019 98.3403 152.888 100.151 151.287 98.5491ZM100.617 84.9113C99.924 83.1061 100.283 80.7031 101.415 79.5712C104.683 76.3035 110.915 78.5059 110.915 82.9284C110.915 88.0274 102.439 89.6596 100.617 84.9113ZM143.155 78.1584C142.291 76.7612 142.126 75.0766 142.788 74.415C144.582 72.621 146.538 75.2595 145.569 78.1665C144.89 80.2036 144.418 80.2019 143.155 78.1608V78.1584ZM45.7652 58.8456C45.7652 57.008 46.7349 55.8279 47.9202 56.2229C49.1054 56.6178 50.0751 57.7982 50.0751 58.8456C50.0751 59.893 49.1054 61.0732 47.9202 61.4683C46.7349 61.8632 45.7652 60.6831 45.7652 58.8456ZM80.5592 57.8415C75.0954 55.6604 69.8205 48.19 69.8205 42.6331C69.8205 40.2707 71.6901 35.9611 73.9752 33.0561C79.8445 25.5945 91.8702 25.5945 97.7395 33.0561C103.123 39.9005 103.005 46.3747 97.3838 52.558C92.0338 58.443 86.4546 60.195 80.5592 57.8415V57.8415ZM145.304 56.9238C134.91 53.2177 129.029 47.2867 126.119 37.574C122.275 24.7418 127.741 7.72809 135.708 7.72809C143.445 7.72809 182.078 37.8069 182.078 43.8311C182.078 47.0073 169.817 55.7151 162.471 57.7551C153.523 60.2402 154.775 60.3008 145.304 56.9238V56.9238Z" fill="#FF4529"/>
<path d="M81.8481 150.055C76.4002 144.607 76.6243 135.096 82.2942 131.125C88.5814 126.721 95.1255 127.251 98.7736 132.46C103.359 139.006 102.59 145.207 96.6124 149.91C90.0096 155.103 86.9268 155.134 81.8481 150.055V150.055ZM47.8427 149.141C44.8596 145.546 46.7567 142.037 51.6828 142.037C56.1678 142.037 58.3103 146.731 55.2307 149.811C52.2572 152.784 50.7535 152.648 47.8427 149.141V149.141ZM160.049 133.042C158.604 131.301 158.114 127.916 158.87 124.902C159.973 120.508 161.121 119.835 166.612 120.365C171.586 120.846 173.207 122.043 173.713 125.609C174.964 134.432 165.483 139.59 160.049 133.042V133.042ZM67.8159 95.9308C67.8159 94.8282 68.7179 93.9262 69.8205 93.9262C70.923 93.9262 71.8251 94.8282 71.8251 95.9308C71.8251 97.0333 70.923 97.9354 69.8205 97.9354C68.7179 97.9354 67.8159 97.0333 67.8159 95.9308ZM152.009 95.8126C152.009 94.645 152.911 94.2473 154.014 94.9286C155.117 95.6101 156.019 96.5654 156.019 97.0515C156.019 97.538 155.117 97.9356 154.014 97.9356C152.911 97.9356 152.009 96.9802 152.009 95.8126ZM101.402 85.4068C99.9089 81.3477 101.958 77.8895 105.856 77.8895C109.754 77.8895 111.868 81.3477 110.453 85.4068C109.972 86.7849 107.946 87.9125 105.951 87.9125C103.956 87.9125 101.908 86.7849 101.402 85.4068V85.4068ZM141.986 75.8848C141.986 74.7823 142.888 73.8803 143.991 73.8803C145.093 73.8803 145.996 74.7823 145.996 75.8848C145.996 76.9874 145.093 77.8895 143.991 77.8895C142.888 77.8895 141.986 76.9874 141.986 75.8848ZM46.8733 60.0192C46.2279 58.9749 46.5543 57.5923 47.5986 56.9469C48.6429 56.3014 50.0255 56.6276 50.6709 57.6722C51.3163 58.7166 50.9899 60.0991 49.9456 60.7445C48.9013 61.39 47.5187 61.0639 46.8733 60.0192ZM73.7564 51.3285C66.8947 40.2178 73.453 27.7743 86.1705 27.7743C93.5487 27.7743 101.894 35.7541 101.894 42.8088C101.894 50.4746 93.5731 57.8434 84.9167 57.8434C79.0268 57.8434 77.0771 56.7053 73.7564 51.3285V51.3285ZM137.664 52.9118C129.684 47.489 125.949 39.3489 125.949 27.3756C125.949 19.1299 130.671 7.72827 134.086 7.72827C139.531 7.72827 157.242 19.0326 168.939 29.9746C181.147 41.3952 181.83 42.4863 179.153 46.3073C170.478 58.6935 150.786 61.8281 137.664 52.9118V52.9118Z" fill="#FF7E6B"/>
<path d="M90.2254 145.996C94.9986 141.222 96.0141 138.833 94.9953 134.774C93.2584 127.854 98.1906 129.368 100.723 136.533C103.355 143.978 97.7599 152.06 89.9746 152.06H84.1612L90.2254 145.996ZM161.376 134.698C160.648 133.97 162.037 132.384 164.463 131.174C166.89 129.965 169.461 126.727 170.178 123.979L171.48 118.984L172.994 124.523C173.959 128.055 173.612 131.141 172.034 133.042C169.476 136.124 163.699 137.021 161.376 134.698V134.698ZM84.8551 54.4371C93.779 49.6206 96.0961 45.7524 95.1227 37.2961C94.0816 28.2525 94.8144 27.9165 98.7943 35.6127C101.164 40.1947 101.345 42.7848 99.6372 47.6827C97.1456 54.8299 92.5643 57.878 84.4857 57.7631L78.8412 57.683L84.8551 54.4371ZM140.984 54.1513C137.676 52.129 133.617 48.8357 131.963 46.8329C129.075 43.3345 129.209 43.3217 135.372 46.5078C147.149 52.5964 166.161 49.0392 172.845 39.4964C175.265 36.0416 175.738 35.9907 178.172 38.9235C181.53 42.9689 179.198 47.115 170.067 53.3325C161.889 58.9017 149.332 59.2552 140.984 54.1511V54.1513Z" fill="#FE6953"/>
</g>
<defs>
<clipPath id="clip0">
<rect width="200" height="200.248" fill="white"/>
</clipPath>
</defs>
</svg>
