<svg width="201" height="201" viewBox="0 0 201 201" fill="none" xmlns="http://www.w3.org/2000/svg">
<path fill-rule="evenodd" clip-rule="evenodd" d="M132.925 8.63784C18.3947 -38.9058 -65.3824 135.422 70.3584 192.022C117.015 212.396 168.979 196.549 192.306 139.949C211.396 94.6717 197.939 33.5413 132.925 8.63784Z" fill="#3D36BC"/>
<path fill-rule="evenodd" clip-rule="evenodd" d="M94.6568 0.604187C83.2967 0.530853 72.56 2.5742 62.6766 6.35089C73.8766 12.5976 89.8201 12.0909 94.6568 0.604187ZM34.7603 65.9462C41.3931 68.9037 47.0733 73.2713 52.7542 77.6393C57.7852 81.5076 62.8166 85.3763 68.5105 88.2664C77.6072 92.8897 86.4673 91.483 96.2574 89.513C106.121 87.5297 117.171 85.0463 125.614 79.293C129.708 76.503 135.281 69.9162 127.748 66.3496C121.481 63.3829 113.861 64.9829 107.697 67.4929C105.912 68.2207 104.093 69.07 102.244 69.933C97.3021 72.2398 92.1518 74.6439 86.8973 75.0829C80.4639 75.6196 74.3639 74.2129 68.3672 71.9229C51.6871 65.5529 30.757 53.6095 22.4436 36.2727C16.3102 44.0061 11.2968 52.6428 7.60016 61.8262C16.9335 61.8795 26.2369 62.1429 34.7603 65.9462ZM193.636 105.562C187.026 109.185 183.283 117.019 190.946 121.962C192.996 123.282 195.1 124.206 197.263 124.949C196.56 127.776 195.743 130.572 194.806 133.319C194.468 133.339 194.13 133.359 193.792 133.379C188.011 133.726 182.391 134.062 176.596 133.152C171.254 132.317 166.639 129.544 162.068 126.797C160.712 125.983 159.361 125.171 157.996 124.412C152.263 121.225 143.753 118.759 137.529 122.229C132.672 124.937 128.889 129.003 125.079 133.097C121.489 136.955 117.876 140.838 113.316 143.639C103.529 149.646 91.0357 150.942 80.2689 147.266C73.1139 144.827 66.9035 139.872 60.9174 135.096L60.9165 135.095L60.9122 135.092C59.3062 133.811 57.7164 132.542 56.1288 131.339C48.9154 125.869 41.3687 120.989 32.2553 119.719C26.3556 118.895 20.5907 120.203 14.8368 121.508C11.631 122.236 8.42873 122.962 5.20849 123.319C4.67515 123.376 4.14182 123.412 3.60848 123.442C0.98513 114.009 -0.0182066 104.372 0.385129 94.8453C6.07099 92.5178 12.4531 90.9303 17.3887 89.7027L17.3915 89.702C17.8975 89.5761 18.3887 89.454 18.8619 89.3353C31.862 86.0786 44.3887 88.4586 55.8621 95.1053C59.7425 97.3547 63.3476 100.007 66.9545 102.661C70.911 105.572 74.8695 108.485 79.1956 110.869C85.339 114.255 91.9923 115.689 98.8824 114.219C105.233 112.866 107.995 108.697 110.833 104.413C112.806 101.434 114.816 98.3986 118.096 96.2153C125.157 91.518 134.478 95.771 142.099 99.2487L142.1 99.249L142.101 99.2497C143.592 99.93 145.018 100.581 146.349 101.129C152.606 103.702 159.019 105.889 165.796 106.425C176.213 107.252 182.51 100.215 185.06 90.8153C187.683 81.1753 185.49 72.9185 174.69 72.2185C171.413 72.0056 168.082 72.3314 164.756 72.6565C162.459 72.8812 160.164 73.1056 157.893 73.1519C148.011 73.355 149.227 62.2644 149.965 55.5355L150.003 55.1884C151.239 43.845 147.953 33.005 135.476 30.4149C123.321 27.8891 116.133 39.1755 110.522 47.9875C110.216 48.467 109.916 48.9395 109.619 49.4017C98.7457 66.3485 66.0822 63.1818 55.5155 47.3317C47.3721 35.125 56.9155 25.5749 69.2789 23.9682C73.0487 23.4774 76.8149 23.4552 80.5775 23.4331C85.5283 23.4039 90.473 23.3748 95.4124 22.2782C106.596 19.7982 111.186 11.8048 112.939 2.47811C117.156 3.33811 121.446 4.51813 125.776 5.98147C124.963 7.34018 123.929 8.73515 122.899 10.125C119.955 14.0988 117.041 18.0309 119.409 20.9549C122.963 25.3482 134.349 23.9016 139.149 23.1682C142.834 22.6045 146.128 20.605 149.329 18.6628C150.008 18.2506 150.683 17.841 151.356 17.4482C158.823 21.7982 165.386 26.7083 171.043 32.0816C170.464 34.1297 169.579 35.9568 168.702 37.7705C167.412 40.435 166.136 43.0705 165.863 46.335C165.496 50.6017 168.349 54.7918 171.199 57.5951C175.413 61.7434 181.089 63.7055 186.792 65.6771C189.539 66.6268 192.293 67.5788 194.893 68.7785C198.786 79.8852 200.503 91.482 200.223 102.952C199.875 103.075 199.528 103.195 199.182 103.315C197.166 104.016 195.213 104.694 193.636 105.562ZM54.2462 172.555C56.0741 172.284 57.9169 172.114 59.7599 171.944C62.3666 171.704 64.9737 171.463 67.5396 170.938C67.8417 170.876 68.1498 170.814 68.4617 170.751C70.5381 170.335 72.7868 169.885 74.6096 168.885C80.543 165.631 72.4963 161.165 69.4229 160.545C68.073 160.272 66.6722 160.059 65.2563 159.843C60.9 159.18 56.3995 158.495 52.7895 155.975C51.0874 154.787 49.4986 153.454 47.9121 152.123C45.2143 149.859 42.5231 147.601 39.2927 146.075C30.9527 142.125 20.2226 139.485 10.7026 141.248C17.4426 154.075 27.676 166.048 41.8561 176.275C45.4494 174.368 49.6228 173.242 54.2462 172.555ZM141.123 161.927C143.774 158.388 146.391 154.892 151.057 153.255C161.885 149.449 169.454 155.627 177.145 161.903C177.861 162.487 178.579 163.073 179.3 163.652C172.094 173.692 163.66 181.615 154.424 187.518C153.64 186.502 152.607 185.628 151.207 184.992C142.437 180.99 130.778 184.291 120.294 187.26C116.098 188.448 112.089 189.583 108.53 190.175C99.5199 191.672 87.7231 192.278 81.8064 183.952C77.4497 177.822 83.5564 175.332 88.7665 174.148C96.638 172.357 104.867 172.396 113.026 172.435C116.742 172.453 120.443 172.47 124.09 172.315C128.18 172.142 130.86 171.478 134.313 169.142C137.17 167.207 139.156 164.555 141.123 161.927Z" fill="#5148FB"/>
</svg>
